<?xml version="1.0" standalone="no"?>
<!DOCTYPE svg PUBLIC "-//W3C//DTD SVG 1.1//EN" "http://www.w3.org/Graphics/SVG/1.1/DTD/svg11.dtd" >
<svg xmlns="http://www.w3.org/2000/svg" xmlns:xlink="http://www.w3.org/1999/xlink" version="1.1">
<metadata>
Created by FontForge 20150318 at Tue Sep 22 14:46:23 2015
 By uniteet7
Copyright (c) 2011-2013, Sol Matas (www.huertatipografica.com.ar), with Reserved Font Name "Bitter".
</metadata>
<defs>
<font id="BitterBoldItalic" horiz-adv-x="640" >
  <font-face 
    font-family="BitterBoldItalic"
    font-weight="700"
    font-style="italic"
    font-stretch="normal"
    units-per-em="1000"
    panose-1="0 0 8 0 0 0 0 0 0 0"
    ascent="800"
    descent="-200"
    x-height="540"
    cap-height="705"
    bbox="-134 -360 1210 1118"
    underline-thickness="50"
    underline-position="-50"
    slope="-9"
    unicode-range="U+000D-FB02"
  />
<missing-glyph horiz-adv-x="570" 
d="M70 0v700h500v-700h-500zM320 395l170 255h-340zM350 350l170 -255v510zM150 50h340l-170 255zM120 605v-510l170 255z" />
    <glyph glyph-name="fi" unicode="fi" horiz-adv-x="695" 
d="M56 430l14 88l92 15q16 127 68.5 190.5t176.5 63.5q41 0 106.5 -5.5t110.5 -11.5l44 -6l-30 -162h-117v75h-110q-48 0 -69.5 -20.5t-28.5 -61.5l-10 -60l341 5l-69 -435l76 -15l-13 -80l-220 -10l67 431h-199l-73 -462q-16 -99 -71.5 -156.5t-149.5 -57.5
q-18 0 -43.5 3.5t-42.5 7.5l-16 3l19 87h69q77 0 92 96l75 478h-89z" />
    <glyph glyph-name="fl" unicode="fl" horiz-adv-x="700" 
d="M425 0l106 670q-65 7 -120 7q-85 0 -98 -82l-10 -65h123l-18 -100h-122l-73 -461q-16 -99 -71.5 -156.5t-149.5 -57.5q-18 0 -43.5 3.5t-42.5 7.5l-16 3l19 87h69q77 0 92 96l75 478h-89l14 87l92 13q8 61 23.5 105.5t45.5 80t79 53.5t117 18q53 0 119 -6.5t105 -12.5
l39 -7l-105 -656l76 -15l-13 -80z" />
    <glyph glyph-name=".notdef" horiz-adv-x="570" 
d="M70 0v700h500v-700h-500zM320 395l170 255h-340zM350 350l170 -255v510zM150 50h340l-170 255zM120 605v-510l170 255z" />
    <glyph glyph-name=".null" horiz-adv-x="0" 
 />
    <glyph glyph-name="nonmarkingreturn" horiz-adv-x="333" 
 />
    <glyph glyph-name="CR" unicode="&#xd;" horiz-adv-x="285" 
 />
    <glyph glyph-name="space" unicode=" " horiz-adv-x="285" 
 />
    <glyph glyph-name="exclam" unicode="!" horiz-adv-x="344" 
d="M110 256l66 509h148l-98 -504zM55 58q0 47 25.5 78.5t72.5 31.5q33 0 52.5 -19.5t19.5 -52.5q0 -46 -25.5 -77.5t-71.5 -31.5q-33 0 -53 19t-20 52z" />
    <glyph glyph-name="quotedbl" unicode="&#x22;" horiz-adv-x="449" 
d="M70 500l44 282h131l-66 -282h-109zM265 500l44 282h130l-66 -282h-108z" />
    <glyph glyph-name="numbersign" unicode="#" horiz-adv-x="689" 
d="M234 470l38 130h123l-38 -130h122l38 130h122l-37 -130h92l-16 -103h-105l-36 -123h96l-16 -103h-109l-41 -141h-123l41 141h-122l-40 -141h-123l40 141h-90l16 103h103l36 123h-95l16 103h108zM414 244l36 123h-122l-36 -123h122z" />
    <glyph glyph-name="dollar" unicode="$" horiz-adv-x="570" 
d="M136 203l2 -80q37 -18 89 -18q45 0 79.5 22.5t34.5 58.5q0 26 -26 45t-63 34.5t-74 34.5t-63 53.5t-26 83.5q0 87 54.5 142t141.5 69l18 110l104 7l-18 -114q36 -4 72.5 -12.5t54.5 -15.5l19 -7l-31 -169h-77l-12 79q-41 15 -77 15q-45 0 -73.5 -19.5t-28.5 -53.5
q0 -25 26 -44t63 -34t74.5 -33.5t63.5 -52.5t26 -80q0 -92 -57.5 -152.5t-146.5 -77.5l-22 -140h-103l21 135q-38 3 -78 11.5t-61 15.5l-21 7l29 180h86z" />
    <glyph glyph-name="percent" unicode="%" horiz-adv-x="816" 
d="M285 717q67 0 103.5 -34.5t36.5 -97.5q0 -101 -55.5 -168t-148.5 -67q-70 0 -108 34t-38 100q0 102 59 167.5t151 65.5zM236 436q32 0 54 38t22 88q0 35 -10.5 52t-36.5 17q-33 0 -55 -38t-22 -90q0 -67 48 -67zM678 353q67 0 103.5 -34.5t36.5 -97.5
q0 -101 -55.5 -167.5t-148.5 -66.5q-71 0 -108.5 33.5t-37.5 99.5q0 102 59 167.5t151 65.5zM629 72q32 0 54 38t22 88q0 35 -10.5 52t-36.5 17q-33 0 -55 -38t-22 -90q0 -67 48 -67zM774 712l-519 -719h-140l519 719h140z" />
    <glyph glyph-name="ampersand" unicode="&#x26;" horiz-adv-x="661" 
d="M464 517l-5 65q-36 13 -90 13q-51 0 -77.5 -24.5t-26.5 -63.5q0 -38 26.5 -60t74.5 -22h295l-14 -85l-71 -23l-17 -105q-17 -106 -94.5 -165t-196.5 -59q-113 0 -168 44t-55 123q0 78 46.5 132.5t113.5 84.5q-1 1 -10.5 6.5t-15 9.5t-15.5 12.5t-16.5 17.5t-13 21
t-10 27.5t-3.5 32.5q0 107 73 162.5t190 55.5q56 0 115.5 -15t82.5 -27l-27 -158h-91zM435 317h-94q-60 0 -100.5 -34t-40.5 -91q0 -39 25.5 -60.5t69.5 -21.5q106 0 125 115z" />
    <glyph glyph-name="quotesingle" unicode="'" horiz-adv-x="216" 
d="M97 500l44 282h131l-66 -282h-109z" />
    <glyph glyph-name="parenleft" unicode="(" horiz-adv-x="330" 
d="M318 770h126q-115 -150 -177.5 -302t-62.5 -334q0 -216 80 -364h-125q-94 175 -94 359q0 178 60.5 333t192.5 308z" />
    <glyph glyph-name="parenright" unicode=")" horiz-adv-x="331" 
d="M50 -230h-125q115 150 177.5 302t62.5 334q0 216 -80 364h125q94 -175 94 -359q0 -178 -61 -333t-193 -308z" />
    <glyph glyph-name="asterisk" unicode="*" horiz-adv-x="432" 
d="M256 587l-28 30l5 119l91 2l-29 -122zM272 576l23 40l115 49l18 -90l-124 -25zM239 574l-42 -22l-117 21l42 89l106 -45zM241 555l3 -44l-77 -111l-65 54l95 98zM304 550l65 -97l-80 -53l-45 111l17 44z" />
    <glyph glyph-name="plus" unicode="+" horiz-adv-x="617" 
d="M259 328l33 205h128l-33 -205h196l-19 -116h-196l-33 -212h-128l33 212h-195l20 116h194z" />
    <glyph glyph-name="comma" unicode="," horiz-adv-x="278" 
d="M22 -184l-52 52q78 82 78 121q0 11 -9 35.5t-9 42.5q0 44 27 72.5t68 28.5q35 0 54 -19t19 -54q0 -63 -54.5 -139t-121.5 -140z" />
    <glyph glyph-name="hyphen" unicode="-" horiz-adv-x="385" 
d="M345 335l-20 -125h-275l20 125h275z" />
    <glyph glyph-name="period" unicode="." horiz-adv-x="287" 
d="M28 59q0 46 25 77.5t71 31.5q33 0 53.5 -19t20.5 -52q0 -46 -26 -78t-72 -32q-33 0 -52.5 19.5t-19.5 52.5z" />
    <glyph glyph-name="slash" unicode="/" horiz-adv-x="448" 
d="M561 705l-439 -705h-147l439 705h147z" />
    <glyph glyph-name="zero" unicode="0" horiz-adv-x="623" 
d="M388 717q106 0 158 -59.5t52 -163.5q0 -66 -9 -131t-32.5 -134.5t-59 -122t-94 -86t-132.5 -33.5q-216 0 -216 223q0 68 10 135t34.5 135.5t61.5 120t95.5 84t131.5 32.5zM363 592q-40 0 -71.5 -41t-48.5 -102.5t-25.5 -121.5t-8.5 -111q0 -56 19.5 -80t64.5 -24
q38 0 68.5 41t47 103t25.5 123t9 111q0 55 -18.5 78.5t-61.5 23.5z" />
    <glyph glyph-name="one" unicode="1" horiz-adv-x="500" 
d="M30 0l19 115h134l69 430l-162 -97l-46 104l254 153h128l-94 -590h133l-18 -115h-417z" />
    <glyph glyph-name="two" unicode="2" horiz-adv-x="566" 
d="M-10 0l16 122l114 85q142 106 205.5 176t64.5 132q0 80 -97 80q-19 0 -41.5 -3.5t-35.5 -7.5l-14 -3l-22 -89h-100l21 187q117 38 214 38q241 0 241 -162q0 -51 -18.5 -99.5t-55.5 -94.5t-79.5 -86t-102.5 -87l-84 -66h291l-18 -122h-499z" />
    <glyph glyph-name="three" unicode="3" horiz-adv-x="565" 
d="M75 501l22 176q115 40 218 40q104 0 164 -40t60 -114q0 -71 -38.5 -122t-113.5 -73q53 -16 83 -53.5t30 -89.5q0 -107 -86.5 -172.5t-214.5 -65.5q-52 0 -104.5 14t-78.5 29l-27 14l57 107q89 -41 165 -41q57 0 95.5 32.5t38.5 84.5q0 83 -114 83h-79l17 105h76
q69 0 104.5 32t35.5 78q0 33 -26 51.5t-72 18.5q-20 0 -42.5 -3.5t-34.5 -6.5l-13 -3l-19 -81h-103z" />
    <glyph glyph-name="four" unicode="4" horiz-adv-x="591" 
d="M447 145l-23 -145h-146l23 145h-301l7 115l377 460l152 -15l-70 -440h100l-19 -120h-100zM362 528l-215 -263h173z" />
    <glyph glyph-name="five" unicode="5" horiz-adv-x="567" 
d="M10 43l56 107q91 -40 163 -40q55 0 95 32.5t40 82.5q0 92 -145 92h-124l71 388h396l-20 -123h-259l-25 -151h35q109 -3 170 -50t61 -129q0 -117 -85.5 -191t-208.5 -74q-54 0 -109 14t-83 28z" />
    <glyph glyph-name="six" unicode="6" horiz-adv-x="588" 
d="M581 705l-24 -115q-37 5 -81 5q-57 0 -103 -20.5t-71.5 -49.5t-42 -58t-21.5 -49l-6 -21q73 43 160 43q80 0 131 -45t51 -127q0 -118 -85.5 -199.5t-210.5 -81.5q-110 0 -165 64.5t-55 166.5q0 65 16 132.5t50 133.5t82 117.5t119 83.5t153 32q25 0 50.5 -3t39.5 -6z
M211 287q-8 -45 -8 -70q0 -50 25.5 -78.5t68.5 -28.5q52 0 84.5 34t35.5 88q5 90 -89 90q-28 0 -57 -9t-45 -17z" />
    <glyph glyph-name="seven" unicode="7" horiz-adv-x="509" 
d="M551 597l-347 -597h-160l342 580h-214l-35 -93h-97l35 218h494z" />
    <glyph glyph-name="eight" unicode="8" horiz-adv-x="599" 
d="M584 561q0 -65 -36 -111.5t-96 -72.5q30 -18 48 -32.5t34 -44t16 -66.5q0 -110 -85.5 -178.5t-213.5 -68.5q-108 0 -164.5 46.5t-56.5 119.5q0 136 155 208q-39 24 -60 53.5t-21 76.5q0 105 77.5 165.5t203.5 60.5q97 0 148 -42.5t51 -113.5zM355 595q-43 0 -73.5 -22.5
t-30.5 -61.5q0 -31 23 -50t68 -37q39 16 67 44.5t28 65.5q0 28 -21.5 44.5t-60.5 16.5zM274 110q55 0 88 29t33 73q0 34 -25.5 54.5t-75.5 41.5q-109 -48 -109 -125q0 -34 23.5 -53.5t65.5 -19.5z" />
    <glyph glyph-name="nine" unicode="9" horiz-adv-x="586" 
d="M45 0l21 114q38 -4 82 -4q43 0 79.5 11t60.5 29t44 39t31 42.5t18 39.5t9 29l3 11q-73 -42 -160 -42q-83 0 -133 43.5t-50 125.5q0 119 84.5 199t210.5 80q99 0 160 -59t61 -172q0 -68 -16 -137.5t-50.5 -134.5t-82.5 -115.5t-118.5 -81t-152.5 -30.5q-24 0 -49 3.5
t-39 6.5zM414 422q7 35 7 64q0 54 -26 81.5t-68 27.5q-52 0 -84.5 -34.5t-35.5 -88.5q-2 -42 20.5 -64t69.5 -22q28 0 57 9t44 18z" />
    <glyph glyph-name="colon" unicode=":" horiz-adv-x="277" 
d="M77 359q0 47 25 78.5t71 31.5q33 0 53.5 -19t20.5 -52q0 -46 -26 -78t-72 -32q-33 0 -52.5 19t-19.5 52zM30 59q0 46 25 77.5t71 31.5q33 0 53.5 -19t20.5 -52q0 -46 -26 -78t-72 -32q-33 0 -52.5 19.5t-19.5 52.5z" />
    <glyph glyph-name="semicolon" unicode=";" horiz-adv-x="296" 
d="M86 359q0 46 25.5 78t71.5 32q33 0 53 -19t20 -52q0 -46 -26 -78t-73 -32q-33 0 -52 18.5t-19 52.5zM32 -184l-52 52q78 82 78 121q0 11 -9 35.5t-9 42.5q0 44 27 72.5t68 28.5q35 0 54 -19t19 -54q0 -63 -54.5 -139t-121.5 -140z" />
    <glyph glyph-name="less" unicode="&#x3c;" horiz-adv-x="614" 
d="M516 -10l-466 218l20 120l537 219l-22 -133l-367 -148l319 -145z" />
    <glyph glyph-name="equal" unicode="=" horiz-adv-x="647" 
d="M592 437l-18 -115h-485l18 115h485zM558 222l-18 -115h-485l18 115h485z" />
    <glyph glyph-name="greater" unicode="&#x3e;" horiz-adv-x="609" 
d="M80 418l21 129l466 -221l-19 -120l-538 -216q9 52 22 134l368 143z" />
    <glyph glyph-name="question" unicode="?" horiz-adv-x="458" 
d="M126 249v65q0 39 21.5 72.5t51.5 57.5t60.5 46.5t52 51t21.5 59.5q0 52 -74 52q-19 0 -41.5 -2.5t-35.5 -4.5l-13 -2l-8 102q79 24 156 24q76 0 122 -32t46 -101q0 -46 -23 -88t-56 -73t-66.5 -58.5t-57.5 -57t-26 -57.5l-3 -45zM85 58q0 47 25.5 78.5t72.5 31.5
q33 0 52.5 -19t19.5 -52q0 -46 -25.5 -78t-71.5 -32q-33 0 -53 19t-20 52z" />
    <glyph glyph-name="at" unicode="@" horiz-adv-x="820" 
d="M480 107l39 -80q-78 -42 -182 -42q-129 0 -203 72.5t-74 201.5q0 201 114 329.5t306 128.5q145 0 228 -71.5t83 -203.5q0 -124 -55 -207.5t-149 -83.5q-86 0 -94 109q-51 -108 -134 -108q-52 0 -81 35.5t-29 92.5q0 128 60.5 197t147.5 69q20 0 40 -6t30 -12l10 -6l17 16
h59l-38 -242q-3 -18 -3 -30q0 -34 27 -34q38 0 60.5 60.5t22.5 127.5q0 200 -222 200q-134 0 -211.5 -96.5t-77.5 -240.5q0 -99 49.5 -150t139.5 -51q28 0 58 6t46 12zM491 401l13 61q-22 8 -47 8q-46 0 -77.5 -51.5t-31.5 -121.5q0 -59 34 -59q29 0 56 41t40 81z" />
    <glyph glyph-name="A" unicode="A" horiz-adv-x="711" 
d="M677 88l-15 -88h-296l14 87l79 25l-12 73h-221l-36 -76l69 -22l-14 -87h-283l14 88l67 23l307 587l154 7l115 -597zM276 292h154l-37 241z" />
    <glyph glyph-name="B" unicode="B" horiz-adv-x="653" 
d="M333 705h96q83 0 139.5 -39.5t56.5 -112.5q0 -72 -42 -119t-106 -66q122 -35 122 -133q0 -113 -80.5 -174t-205.5 -61h-316l14 87l78 24l75 477l-69 29l13 83zM287 417h55q57 0 92 29t35 77q0 32 -21 48t-56 16h-78zM239 117h71q63 0 97.5 31t34.5 79q0 45 -27.5 65
t-86.5 20h-58z" />
    <glyph glyph-name="C" unicode="C" horiz-adv-x="645" 
d="M552 480l-13 94q-54 18 -108 18q-67 0 -117 -47.5t-73.5 -117.5t-23.5 -150q0 -74 36.5 -117.5t95.5 -43.5q96 0 196 70l53 -84q-135 -115 -282 -115q-119 0 -190 71t-71 191q0 206 110 337t283 131q52 0 106.5 -11.5t82.5 -23.5l28 -12l-30 -190h-83z" />
    <glyph glyph-name="D" unicode="D" horiz-adv-x="711" 
d="M336 705h93q119 0 188 -64.5t69 -185.5q0 -216 -109.5 -335.5t-292.5 -119.5h-282l14 87l78 24l75 477l-69 29l13 83zM242 117h65q72 0 123.5 48t75 121.5t23.5 162.5q0 60 -30.5 99t-89.5 39h-92z" />
    <glyph glyph-name="E" unicode="E" horiz-adv-x="611" 
d="M297 420h197l-17 -110h-198l-30 -190h175l36 81h90l-33 -201h-510l14 87l78 24l75 477l-69 29l13 83l225 5h273l-31 -193h-80l-13 73h-168z" />
    <glyph glyph-name="F" unicode="F" horiz-adv-x="554" 
d="M293 410h202l-18 -110h-201l-30 -189l77 -24l-14 -87h-302l14 87l78 24l75 477l-69 29l13 83l222 5h273l-31 -193h-80l-13 75h-167z" />
    <glyph glyph-name="G" unicode="G" horiz-adv-x="716" 
d="M627 262l-31 -203q-127 -71 -277 -71q-121 0 -192.5 69.5t-71.5 191.5q0 206 111.5 337t284.5 131q52 0 107 -11.5t84 -23.5l29 -12l-31 -178h-83l-13 83q-55 17 -112 17q-98 0 -157.5 -94t-59.5 -221q0 -79 39 -122t105 -43q59 0 111 19l22 131l-75 23l13 80l281 5
l-13 -85z" />
    <glyph glyph-name="H" unicode="H" horiz-adv-x="783" 
d="M700 0h-299l14 87l78 24l31 194h-255l-31 -194l70 -24l-14 -87h-297l14 87l77 24l76 477l-69 29l13 83l298 5l-14 -88l-78 -30l-27 -165h255l27 166l-71 29l13 83l300 5l-14 -88l-78 -30l-76 -476l71 -24z" />
    <glyph glyph-name="I" unicode="I" horiz-adv-x="378" 
d="M295 0h-298l14 87l78 24l76 477l-69 29l13 83l298 5l-14 -88l-78 -30l-76 -476l70 -24z" />
    <glyph glyph-name="J" unicode="J" horiz-adv-x="368" 
d="M325 587l-78 -485q-22 -134 -80.5 -196.5t-180.5 -62.5l-73 7l29 100h47q41 0 67 25t33 71l86 542l-69 29l13 83l298 5l-14 -88z" />
    <glyph glyph-name="K" unicode="K" horiz-adv-x="670" 
d="M662 0h-286l14 87l57 21l-103 197h-72l-31 -194l68 -24l-14 -87h-293l14 87l78 24l75 477l-69 29l13 83l294 5l-14 -88l-77 -29l-27 -173h65l208 285l165 5l-14 -88l-76 -30l-169 -220l142 -257l66 -23z" />
    <glyph glyph-name="L" unicode="L" horiz-adv-x="529" 
d="M386 120l40 110h92l-38 -230h-488l14 87l78 24l75 477l-69 29l13 83l301 5l-14 -88l-81 -29l-75 -468h152z" />
    <glyph glyph-name="M" unicode="M" horiz-adv-x="853" 
d="M270 0h-278l14 87l77 24l76 477l-69 29l13 83l248 5l96 -338l203 333l237 5l-15 -88l-77 -30l-75 -475l69 -25l-14 -87h-283l14 87l74 25l56 356l-175 -285l-108 -7l-83 288l-56 -353l70 -24z" />
    <glyph glyph-name="N" unicode="N" horiz-adv-x="767" 
d="M-8 0l14 87l78 24l75 477l-69 29l13 83l232 5l191 -466l55 349l-65 29l13 83l277 5l-14 -88l-77 -29l-93 -588h-155l-193 464l-57 -353l67 -24l-14 -87h-278z" />
    <glyph glyph-name="O" unicode="O" horiz-adv-x="732" 
d="M306 -13q-120 0 -186 67t-66 192q0 129 46 235t136.5 171t207.5 65q123 0 191.5 -69.5t68.5 -192.5q0 -197 -111 -332.5t-287 -135.5zM544 449q0 143 -120 143q-67 0 -117 -56.5t-71.5 -130t-21.5 -147.5q0 -71 29.5 -108.5t87.5 -37.5q66 0 116.5 55.5t73.5 130.5
t23 151z" />
    <glyph glyph-name="P" unicode="P" horiz-adv-x="605" 
d="M-3 0l14 87l78 24l75 477l-69 29l13 83l225 5h94q89 0 147 -42.5t58 -128.5q0 -98 -45 -165t-115 -95.5t-159 -28.5h-53l-21 -134l72 -24l-14 -87h-300zM278 362h53q75 0 111 39t36 102q0 43 -24.5 63.5t-62.5 20.5h-77z" />
    <glyph glyph-name="Q" unicode="Q" horiz-adv-x="747" 
d="M457 -149l-183 139q-103 7 -161.5 74.5t-58.5 181.5q0 129 46 235t136.5 171t208.5 65q122 0 191 -68.5t69 -188.5q0 -159 -75 -283.5t-198 -168.5l83 -56q55 -37 86 -37q16 0 42 8.5t44 17.5l18 9l38 -80q-106 -68 -168 -68q-52 0 -118 49zM424 592q-67 0 -117 -56.5
t-71.5 -130t-21.5 -147.5q0 -146 118 -146q66 0 116.5 55.5t73.5 131.5t23 155q0 138 -121 138z" />
    <glyph glyph-name="R" unicode="R" horiz-adv-x="655" 
d="M298 0h-296l14 87l78 25l75 475l-68 30l13 83l222 5h96q89 0 147 -43t58 -123q0 -85 -42 -143.5t-117 -84.5q20 -20 41 -81l39 -118l68 -25l-14 -87h-175l-54 190q-14 53 -38.5 70t-75.5 17l-26 -165l69 -25zM285 382h57q65 0 103 33t38 95q0 38 -22.5 57.5t-62.5 19.5
h-80z" />
    <glyph glyph-name="S" unicode="S" horiz-adv-x="592" 
d="M147 217l2 -86q38 -19 97 -19q47 0 84 24t37 65q0 28 -28 49.5t-67.5 38t-79.5 37.5t-68 59.5t-28 92.5q0 114 78.5 176.5t196.5 62.5q48 0 99 -10t78 -20l27 -10l-34 -182h-82l-12 85q-43 15 -87 15q-47 0 -76 -21t-29 -57q0 -28 28 -49.5t67.5 -38t79 -37t67.5 -57.5
t28 -88q0 -121 -84 -190.5t-206 -69.5q-48 0 -100.5 9.5t-81.5 19.5l-29 9l31 192h92z" />
    <glyph glyph-name="T" unicode="T" horiz-adv-x="577" 
d="M188 111l75 476h-93l-40 -97h-90l36 215h565l-34 -215h-90l-10 97h-94l-75 -476l77 -24l-14 -87h-311l14 87z" />
    <glyph glyph-name="U" unicode="U" horiz-adv-x="756" 
d="M305 587l-51 -317q-5 -33 -5 -56q0 -51 24 -77.5t84 -26.5q68 0 102 40t48 133l48 304l-70 30l13 83l297 5l-14 -88l-77 -30l-46 -295q-24 -150 -99 -227t-223 -77q-126 0 -182 50t-56 150q0 41 7 82l51 317l-71 30l13 83l296 5l-14 -88z" />
    <glyph glyph-name="V" unicode="V" horiz-adv-x="667" 
d="M40 617l14 83l204 5l79 -504l175 387l-66 29l15 83l285 5l-14 -88l-70 -30l-290 -587h-153l-109 590z" />
    <glyph glyph-name="W" unicode="W" horiz-adv-x="978" 
d="M45 617l13 83l193 5l62 -471l194 463l116 8l63 -474l148 357l-69 29l15 83l278 5l-15 -88l-72 -29l-267 -588h-117l-65 440l-197 -440h-117l-93 590z" />
    <glyph glyph-name="X" unicode="X" horiz-adv-x="665" 
d="M244 0h-287l14 87l76 23l206 240l-136 248l-62 19l13 83l295 5l-14 -88l-49 -15l70 -139l113 136l-42 18l13 83l282 5l-14 -88l-76 -21l-207 -233l139 -256l68 -20l-14 -87h-299l14 87l48 12l-70 145l-115 -140l48 -17z" />
    <glyph glyph-name="Y" unicode="Y" horiz-adv-x="617" 
d="M411 0h-296l14 87l78 25l21 134l-107 349l-76 22l13 83l188 5l90 -329l127 219l-68 22l13 83l283 5l-14 -88l-74 -28l-229 -359l-19 -118l70 -25z" />
    <glyph glyph-name="Z" unicode="Z" horiz-adv-x="594" 
d="M25 104l374 483h-200l-36 -85h-88l29 203h494l-12 -111l-371 -477h205l38 104h93l-35 -221h-505z" />
    <glyph glyph-name="bracketleft" unicode="[" horiz-adv-x="339" 
d="M15 -230l159 1000l241 -5l-16 -103l-118 -11l-121 -763l115 -11l-16 -102z" />
    <glyph glyph-name="backslash" unicode="\" horiz-adv-x="508" 
d="M306 0l-216 705h141l215 -705h-140z" />
    <glyph glyph-name="bracketright" unicode="]" horiz-adv-x="349" 
d="M98 -111l122 762l-116 11l17 103l243 5l-159 -1000l-240 5l15 103z" />
    <glyph glyph-name="asciicircum" unicode="^" horiz-adv-x="571" 
d="M35 320l248 385h106l126 -385h-123l-79 245l-156 -245h-122z" />
    <glyph glyph-name="underscore" unicode="_" horiz-adv-x="501" 
d="M433 -80v-100h-504v100h504z" />
    <glyph glyph-name="grave" unicode="`" horiz-adv-x="318" 
d="M122 841l260 -169l-38 -75l-271 132z" />
    <glyph glyph-name="a" unicode="a" horiz-adv-x="615" 
d="M563 10l-215 -10l35 148q-4 -7 -12 -20.5t-29 -39t-44.5 -46t-58.5 -36.5t-70 -16q-65 0 -104 51.5t-39 129.5q0 91 26 164.5t69 119.5t97.5 70.5t113.5 24.5q31 0 60 -9t43 -19l14 -9l29 27h91l-70 -436l77 -15zM392 347l15 83q-29 12 -73 12q-69 0 -113.5 -71.5
t-44.5 -180.5q0 -39 13 -61t36 -22q28 0 55.5 24.5t46.5 60t34.5 71t22.5 59.5z" />
    <glyph glyph-name="b" unicode="b" horiz-adv-x="612" 
d="M71 687l13 80l219 8l-44 -250l-34 -137q8 16 18 31.5t37.5 51t67.5 57.5t85 22q68 0 105 -53t37 -132q0 -172 -96 -273.5t-229 -101.5q-48 0 -100 7.5t-80 14.5l-28 8l102 647zM217 193l-16 -82q33 -11 68 -11q63 0 110.5 71t47.5 171q0 37 -14 62.5t-41 25.5
q-28 0 -54.5 -24.5t-44 -59t-30.5 -69.5t-19 -59z" />
    <glyph glyph-name="c" unicode="c" horiz-adv-x="485" 
d="M400 151l43 -79q-120 -82 -228 -82q-87 0 -137 50t-50 143q0 166 86 266.5t224 100.5q66 0 155 -40l-25 -158h-88l-5 70q-20 9 -53 9q-48 0 -82 -35.5t-49 -85.5t-15 -107q0 -43 22 -68t60 -25q52 0 142 41z" />
    <glyph glyph-name="d" unicode="d" horiz-adv-x="610" 
d="M558 5l-209 -5l37 148q-5 -11 -18.5 -30t-41.5 -51.5t-69 -54.5t-85 -22q-65 0 -103 51t-38 130q0 177 90 278t215 101q21 0 42.5 -5t33.5 -9l11 -5l23 136l-77 20l12 80l222 8l-108 -671l76 -15zM393 347l14 83q-28 12 -70 12q-73 0 -115.5 -74.5t-42.5 -175.5
q0 -40 13 -62.5t36 -22.5q28 0 55.5 24.5t46 60t33.5 71t23 59.5z" />
    <glyph glyph-name="e" unicode="e" horiz-adv-x="522" 
d="M418 141l42 -74q-36 -25 -101 -51t-134 -26q-91 0 -145 49t-54 136q0 163 88 269t213 106q88 0 139 -38.5t51 -104.5q0 -86 -91.5 -139.5t-253.5 -54.5q0 -62 23 -85t71 -23q20 0 46.5 5t42.5 10t39 13zM372 389q0 48 -57 48q-44 0 -80 -38t-51 -98q91 2 139.5 27
t48.5 61z" />
    <glyph glyph-name="f" unicode="f" horiz-adv-x="401" 
d="M56 430l14 87l92 13q16 128 67 192.5t168 64.5q37 0 78.5 -5.5t64.5 -11.5l24 -6l-30 -162h-85v75h-48q-41 0 -61.5 -21t-26.5 -61l-10 -65h133l-18 -100h-132l-73 -461q-16 -99 -71.5 -156.5t-149.5 -57.5q-18 0 -43.5 3.5t-42.5 7.5l-16 3l19 87h69q77 0 92 96l75 478
h-89z" />
    <glyph glyph-name="g" unicode="g" horiz-adv-x="589" 
d="M12 -203l33 98q94 -34 161 -34q63 0 97 31t47 93l35 166q-80 -134 -176 -157q-18 -4 -35 -4q-64 0 -104 49.5t-40 126.5q0 177 90.5 280.5t212.5 103.5q31 0 60 -9t43 -19l14 -9l29 27h88l-88 -552q-39 -240 -253 -240q-44 0 -97.5 12.5t-85 24t-31.5 12.5zM393 347
l14 83q-28 12 -72 12q-69 0 -113.5 -71.5t-44.5 -179.5q0 -40 13 -62t36 -22q45 0 86.5 60t61.5 120z" />
    <glyph glyph-name="h" unicode="h" horiz-adv-x="639" 
d="M315 775l-70 -395q4 10 18 32t41 56t69 58t87 24q112 0 112 -121q0 -24 -5 -59l-42 -265l75 -15l-13 -80l-224 -10l56 342q3 20 3 36q0 49 -38 49q-31 0 -60 -29t-49 -71.5t-33 -80t-18 -64.5l-33 -182h-145l107 667l-77 20l13 80z" />
    <glyph glyph-name="i" unicode="i" horiz-adv-x="334" 
d="M147 685q0 46 26.5 78t68.5 32q31 0 50 -18t19 -52q0 -47 -26 -79.5t-67 -32.5q-32 0 -51.5 18.5t-19.5 53.5zM214 105l76 -15l-13 -80l-224 -10l68 432l-77 20l14 80l225 8z" />
    <glyph glyph-name="j" unicode="j" horiz-adv-x="329" 
d="M144 685q0 46 26.5 78t68.5 32q32 0 51 -18t19 -52q0 -47 -26 -79.5t-68 -32.5q-32 0 -51.5 18.5t-19.5 53.5zM59 532l222 8l-94 -583q-15 -95 -72 -148.5t-149 -53.5q-19 0 -44 3.5t-40 7.5l-16 4l20 88q3 0 25 -1.5t38 -1.5q51 0 70.5 28t31.5 101l72 448l-78 20z" />
    <glyph glyph-name="k" unicode="k" horiz-adv-x="549" 
d="M241 339h65l82 102l-40 14l12 80l238 5l-13 -85l-65 -12l-118 -137l83 -203l72 -23l-11 -80h-173l-88 244h-59l-39 -244h-143l107 667l-77 20l13 80l224 8z" />
    <glyph glyph-name="l" unicode="l" horiz-adv-x="321" 
d="M206 105l76 -15l-13 -80l-223 -10l107 667l-77 20l13 80l224 8z" />
    <glyph glyph-name="m" unicode="m" horiz-adv-x="938" 
d="M278 540l-33 -161q58 116 142 155q34 16 69 16q54 0 81 -33t27 -88q0 -17 -3 -37q11 23 27 46t41 50.5t60 44.5t73 17q110 0 110 -122q0 -25 -5 -58l-43 -265l75 -15l-13 -80l-221 -10l56 342q3 20 3 36q0 49 -38 49q-49 0 -90 -74t-64 -160l-31 -193h-141l55 342
q3 20 3 36q0 49 -38 49q-48 0 -89.5 -76.5t-68.5 -180.5l-28 -170h-141l68 432l-77 20l13 80z" />
    <glyph glyph-name="n" unicode="n" horiz-adv-x="648" 
d="M282 540l-34 -160q4 9 12 22t29.5 41.5t45 50t59.5 39t73 17.5q57 0 86 -33t29 -89q0 -25 -5 -58l-46 -265l78 -15l-13 -80l-226 -10l55 340q4 26 4 36q0 49 -38 49q-40 0 -79.5 -54t-61 -111t-25.5 -89l-29 -171h-144l69 432l-77 20l13 80z" />
    <glyph glyph-name="o" unicode="o" horiz-adv-x="579" 
d="M244 -10q-102 0 -158 55t-56 155q0 159 83 254.5t219 95.5q103 0 159.5 -56.5t56.5 -154.5q0 -158 -84 -253.5t-220 -95.5zM398 345q-3 85 -83 85q-61 0 -98 -64t-37 -158q0 -98 81 -98q38 0 66.5 22.5t43 59t21 75t6.5 78.5z" />
    <glyph glyph-name="p" unicode="p" horiz-adv-x="616" 
d="M275 540l-40 -152q6 12 11.5 22.5t26.5 39t43 48t57 36t72 16.5q68 0 106 -53t38 -132q0 -169 -92 -271.5t-216 -102.5q-50 0 -88 18l-22 -134l77 -25l-13 -80h-297l13 80l79 25l87 557l-73 20l13 80zM225 193l-15 -82q34 -11 71 -11q63 0 110.5 71t47.5 171
q0 38 -13.5 63t-41.5 25t-55 -24.5t-45 -59t-32 -69.5t-20 -59z" />
    <glyph glyph-name="q" unicode="q" horiz-adv-x="590" 
d="M520 -230h-300l13 80l89 28l21 122l38 142q-7 -13 -18.5 -29t-39.5 -48.5t-68 -53.5t-83 -21q-64 0 -102.5 51.5t-38.5 129.5q0 176 90.5 277.5t213.5 101.5q31 0 60 -9t43 -19l14 -9l29 27h88l-106 -662l70 -28zM396 347l15 83q-31 12 -74 12q-69 0 -113.5 -72
t-44.5 -180q0 -39 13 -61t36 -22q44 0 86 60t62 120z" />
    <glyph glyph-name="r" unicode="r" horiz-adv-x="447" 
d="M358 342v78q-36 -10 -79.5 -85.5t-56.5 -153.5l-29 -181h-140l69 440l-77 20l12 72l222 8l-31 -150q4 11 16 30.5t36 52t62 55t79 22.5q12 0 26 -2.5t22 -5.5l8 -2l-39 -198h-100z" />
    <glyph glyph-name="s" unicode="s" horiz-adv-x="487" 
d="M123 175v-70q29 -11 69 -11q85 0 85 58q0 22 -22 40.5t-53 33.5t-62 33t-53 49t-22 72q0 84 62 127t161 43q40 0 82.5 -7t65.5 -14l22 -7l-27 -150h-86l-5 65q-21 9 -58 9q-33 0 -51.5 -14t-18.5 -39q0 -22 22.5 -40.5t54 -33.5t63.5 -32.5t54.5 -47.5t22.5 -70
q0 -84 -67.5 -131.5t-176.5 -47.5q-40 0 -83.5 6t-67.5 12l-23 7l26 160h86z" />
    <glyph glyph-name="t" unicode="t" horiz-adv-x="404" 
d="M347 122l22 -72q-30 -19 -81 -39.5t-90 -20.5q-117 0 -117 131q0 32 5 60l37 236h-90l15 95l92 13l22 137l146 28l-27 -165h134l-17 -108h-134l-35 -217q-5 -27 -5 -49q0 -49 42 -49q13 0 33 5t34 10z" />
    <glyph glyph-name="u" unicode="u" 
d="M362 0l34 159q-7 -13 -19.5 -32t-41 -54.5t-70.5 -59t-87 -23.5q-110 0 -110 121q0 31 48 321l-77 20l13 80l222 8q-58 -357 -58 -378q0 -50 38 -50q31 0 60.5 28.5t50 71t32 74t18.5 56.5l33 198h141l-69 -436l76 -15l-13 -79z" />
    <glyph glyph-name="v" unicode="v" horiz-adv-x="564" 
d="M400 437l-61 15l13 80l252 8l-14 -85l-49 -16l-218 -439h-162l-91 435l-68 17l12 80l190 8l54 -311l8 -85z" />
    <glyph glyph-name="w" unicode="w" horiz-adv-x="822" 
d="M669 437l-64 15l13 80l242 8l-14 -85l-42 -13l-202 -442h-149l-42 300l-121 -300h-148l-69 439l-64 13l13 80l190 8l41 -375l141 361l116 16l49 -377z" />
    <glyph glyph-name="x" unicode="x" horiz-adv-x="548" 
d="M569 455l-71 -16l-138 -168l87 -173l76 -14l-13 -79l-171 -10l-84 184l-127 -179h-154l13 80l67 23l136 172l-85 162l-71 15l13 80l166 8l79 -177l128 172l163 5z" />
    <glyph glyph-name="y" unicode="y" horiz-adv-x="563" 
d="M9 452l12 80l192 8l68 -326l6 -62l118 286l-62 14l12 80l251 8l-14 -85l-49 -16l-191 -423q-67 -149 -117.5 -202.5t-138.5 -53.5q-27 0 -58.5 5t-49.5 10l-19 5l28 100q39 -5 74 -5q50 0 74.5 19.5t50.5 77.5l-118 463z" />
    <glyph glyph-name="z" unicode="z" horiz-adv-x="498" 
d="M480 452l-286 -346h141l34 89h80l-24 -195h-418l7 90l294 345h-136l-33 -75h-83l27 180h404z" />
    <glyph glyph-name="braceleft" unicode="{" horiz-adv-x="373" 
d="M303 570l-23 -134q-16 -106 -110 -141q68 -29 68 -107q0 -17 -3 -35l-28 -173q-3 -21 -3 -36q0 -38 23 -53t81 -15l-16 -101h-51q-86 0 -125.5 30.5t-39.5 101.5q0 26 4 53l29 181q3 18 3 34q0 70 -77 70l17 100q50 0 74 27t32 77l23 141q16 100 67.5 142.5t152.5 42.5
h50l-15 -101q-69 0 -95.5 -21.5t-37.5 -82.5z" />
    <glyph glyph-name="bar" unicode="|" horiz-adv-x="295" 
d="M168 755h114l-157 -985h-114z" />
    <glyph glyph-name="braceright" unicode="}" horiz-adv-x="372" 
d="M180 436l17 100q9 56 9 70q0 38 -23 53t-81 15l17 101h53q88 0 129 -35t33 -110l-24 -164q-6 -38 -6 -50q0 -71 78 -71l-16 -100q-51 0 -76 -27t-32 -77l-25 -160q-17 -109 -69 -157.5t-153 -48.5h-51l16 101q67 0 95 22t38 82l24 152q20 128 115 163q-71 29 -71 109
q0 16 3 32z" />
    <glyph glyph-name="asciitilde" unicode="~" horiz-adv-x="625" 
d="M113 209l-53 50q3 5 8.5 13t23 28.5t36.5 36t47.5 28.5t57.5 13q44 0 103 -33.5t92 -33.5q24 0 49 13.5t37 27.5l13 14l56 -50q-3 -5 -8.5 -13t-23.5 -28.5t-37 -36.5t-46.5 -29t-53.5 -13q-44 0 -106.5 33.5t-96.5 33.5q-23 0 -47.5 -13.5t-37.5 -27.5z" />
    <glyph glyph-name="nbspace" unicode="&#xa0;" horiz-adv-x="285" 
 />
    <glyph glyph-name="exclamdown" unicode="&#xa1;" horiz-adv-x="305" 
d="M116 448q0 46 25 77.5t71 31.5q33 0 53.5 -19t20.5 -52q0 -46 -26 -78t-72 -32q-33 0 -52.5 19.5t-19.5 52.5zM235 288l-67 -509h-148l98 504z" />
    <glyph glyph-name="cent" unicode="&#xa2;" horiz-adv-x="492" 
d="M265 609l15 88q35 3 105 7l-15 -88q17 -1 34 -5t31.5 -9t24.5 -8.5t20.5 -9t11.5 -5.5l-28 -150h-85v69q-20 8 -52 8q-69 0 -105.5 -56t-36.5 -136q0 -43 26 -70.5t66 -27.5q60 0 129 37l42 -70q-76 -55 -160 -73l-17 -110h-104l17 110q-64 14 -102 63t-38 119
q0 127 59.5 210t161.5 107z" />
    <glyph glyph-name="sterling" unicode="&#xa3;" horiz-adv-x="602" 
d="M16 87l52 18q39 13 50.5 49t22.5 147q1 13 2 19h-90l15 90l86 15q6 60 10 85q12 97 72.5 152t166.5 55q53 0 103 -8.5t74 -16.5l24 -8l-29 -180h-83l-13 90q-54 6 -78 6q-42 0 -66.5 -24t-29.5 -65q-2 -16 -4.5 -45.5t-3.5 -38.5h139l-18 -107h-131l-11 -99
q-8 -71 -52 -104h181l35 86h91l-33 -203h-495z" />
    <glyph glyph-name="currency" unicode="&#xa4;" horiz-adv-x="616" 
d="M26 117l84 75q-10 29 -10 69q0 79 45 143l-61 76l84 80l64 -78q53 28 110 28q59 0 101 -25l87 76l60 -78l-83 -74q11 -33 11 -69q0 -83 -48 -152l61 -74l-85 -79l-63 76q-52 -26 -107 -26q-62 0 -106 27l-85 -75zM328 404q-47 0 -75.5 -36.5t-28.5 -97.5q0 -39 19 -59
t51 -20q46 0 73.5 36.5t27.5 96.5q0 80 -67 80z" />
    <glyph glyph-name="yen" unicode="&#xa5;" horiz-adv-x="652" 
d="M194 403l-58 192l-76 22l13 83l187 5l90 -329l127 219l-68 22l14 83l283 5l-14 -88l-75 -28l-119 -186h90l-14 -90h-485l15 90h90zM369 112l71 -25l-14 -87h-296l14 87l78 25l8 51h-164l14 90h485l-15 -90h-173z" />
    <glyph glyph-name="brokenbar" unicode="&#xa6;" horiz-adv-x="272" 
d="M179 765h114l-64 -400h-114zM80 145h114l-66 -410h-113z" />
    <glyph glyph-name="section" unicode="&#xa7;" horiz-adv-x="550" 
d="M142 52l3 -90q21 -5 49 -5q37 0 64 23.5t27 61.5q0 27 -21.5 52t-52.5 46t-61.5 45t-52 58.5t-21.5 76.5q0 61 27.5 107t67.5 70q-15 45 -15 73q0 95 67.5 156t160.5 61q40 0 78 -7.5t56 -15.5l19 -8l-29 -165h-73l-6 86q-23 5 -43 5q-42 0 -68.5 -24.5t-26.5 -63.5
q0 -26 21.5 -51.5t52.5 -48t62 -47t52.5 -58t21.5 -72.5q0 -107 -97 -175q17 -34 17 -67q0 -96 -67.5 -159.5t-163.5 -63.5q-37 0 -76 7t-59 15l-20 7l32 171h75zM230 422q-29 -29 -29 -67q0 -26 22 -48.5t63 -49t59 -43.5q30 28 30 66q0 26 -22 48.5t-63.5 50t-59.5 43.5z
" />
    <glyph glyph-name="dieresis" unicode="&#xa8;" horiz-adv-x="515" 
d="M102 694q0 40 22 68t61 28q29 0 45.5 -16.5t16.5 -44.5q0 -40 -23.5 -67.5t-61.5 -27.5q-28 0 -44 16t-16 44zM315 694q0 40 22 68t60 28q29 0 45.5 -16.5t16.5 -44.5q0 -40 -23 -67.5t-61 -27.5q-28 0 -44 16t-16 44z" />
    <glyph glyph-name="copyright" unicode="&#xa9;" horiz-adv-x="838" 
d="M45 345q0 161 108.5 267.5t270.5 106.5q164 0 266.5 -99t102.5 -265q0 -160 -113 -267t-276 -107t-261 98t-98 266zM147 350q0 -129 70 -202t192 -73t202 77t80 198q0 128 -74.5 201.5t-197.5 73.5q-121 0 -196.5 -76.5t-75.5 -198.5zM531 273l37 -57q-77 -64 -152 -64
q-85 0 -134.5 49.5t-49.5 140.5q0 97 51.5 154t143.5 57q28 0 60 -7.5t51 -15.5l18 -7l-3 -112h-69l-11 55q-18 6 -48 6q-83 0 -83 -117q0 -120 87 -120q28 0 57 12.5t45 25.5z" />
    <glyph glyph-name="ordfeminine" unicode="&#xaa;" horiz-adv-x="483" 
d="M447 326l-158 -5l25 108q-2 -5 -7.5 -14t-20.5 -28t-32 -34t-42 -27t-51 -12q-48 0 -75.5 39t-27.5 95q0 126 64.5 197.5t154.5 71.5q21 0 42 -6t31 -12l11 -6l19 17h70l-49 -307l56 -12zM320 571l11 55q-22 9 -53 9q-45 0 -77 -49.5t-32 -126.5q0 -57 34 -57
q31 0 60 42.5t43 84.5zM419 235l-16 -100h-364l16 100h364z" />
    <glyph glyph-name="guillemotleft" unicode="&#xab;" horiz-adv-x="611" 
d="M186 52l-129 178l12 77l182 170l71 -58l-136 -152l85 -160zM433 52l-133 178l12 77l186 170l71 -58l-141 -152l90 -160z" />
    <glyph glyph-name="logicalnot" unicode="&#xac;" 
d="M590 375l-47 -295h-123l29 180h-389l19 115h511z" />
    <glyph glyph-name="softhyphen" unicode="&#xad;" horiz-adv-x="385" 
d="M345 335l-20 -125h-275l20 125h275z" />
    <glyph glyph-name="registered" unicode="&#xae;" horiz-adv-x="724" 
d="M89 449q0 137 90.5 227t226.5 90q137 0 227 -85.5t90 -220.5t-95 -226t-232 -91q-135 0 -221 85.5t-86 220.5zM188 455q0 -101 57 -162.5t156 -61.5q100 0 162.5 62t62.5 162t-62.5 161.5t-162.5 61.5q-99 0 -156 -61t-57 -162zM266 302v45l35 12v198l-35 14v42l143 2
q56 1 89.5 -22.5t33.5 -68.5q0 -58 -52 -84q0 -1 3 -4t7.5 -9t8.5 -14l29 -54l32 -12v-45h-89l-39 83q-12 24 -22 31t-32 7v-64l33 -12v-45h-145zM378 476h26q20 0 35 11.5t15 28.5q0 40 -43 40h-33v-80z" />
    <glyph glyph-name="macron" unicode="&#xaf;" horiz-adv-x="309" 
d="M309 747l-18 -105h-291l18 105h291z" />
    <glyph glyph-name="degree" unicode="&#xb0;" horiz-adv-x="407" 
d="M55 568q0 70 52 121.5t127 51.5q65 0 106 -37t41 -106q0 -71 -51.5 -125t-128.5 -54q-63 0 -104.5 38t-41.5 111zM225 649q-30 0 -50 -21t-20 -52q0 -66 57 -66q31 0 50.5 22t19.5 56q0 30 -15.5 45.5t-41.5 15.5z" />
    <glyph glyph-name="plusminus" unicode="&#xb1;" horiz-adv-x="616" 
d="M273 405l23 147h129l-23 -147h185l-19 -117h-185l-24 -151h-129l24 151h-187l19 117h187zM535 78l-18 -114h-502l18 114h502z" />
    <glyph glyph-name="twosuperior" unicode="&#xb2;" horiz-adv-x="407" 
d="M51 280l16 100q143 100 174 128q46 42 46 76t-46 34q-10 0 -21 -2t-16 -4l-6 -1l-13 -53h-83l17 132q81 25 147 25q155 0 155 -101q0 -22 -4.5 -41.5t-19 -40t-22.5 -32.5t-34 -33t-32.5 -27t-39.5 -29.5t-36 -25.5h157l-17 -105h-322z" />
    <glyph glyph-name="threesuperior" unicode="&#xb3;" horiz-adv-x="389" 
d="M88 578l15 114q87 23 154 23q146 0 146 -99q0 -86 -96 -112q32 -5 53 -27t21 -53q0 -76 -58.5 -114t-141.5 -38q-36 0 -73 10.5t-56 21.5l-19 10l38 80q53 -27 109 -27q35 0 55.5 14.5t20.5 38.5q0 39 -60 39h-57l11 75h54q76 0 76 55q0 33 -48 33l-55 -6l-10 -38h-79z
" />
    <glyph glyph-name="acute" unicode="&#xb4;" horiz-adv-x="290" 
d="M365 741l-52 104l-249 -172l46 -73z" />
    <glyph glyph-name="micro" unicode="&#xb5;" horiz-adv-x="648" 
d="M373 0l34 160q-4 -11 -16 -32.5t-35.5 -55.5t-60 -58t-76.5 -24q-14 0 -30 7l-40 -232h-141l114 667l-78 20l14 80l222 8l-56 -344q-4 -28 -4 -34q0 -50 41 -50q39 0 77.5 50.5t60 107t29.5 99.5l30 171h141l-70 -436l76 -17l-14 -80z" />
    <glyph glyph-name="paragraph" unicode="&#xb6;" horiz-adv-x="720" 
d="M181 -65l54 338q-66 8 -108 56.5t-42 122.5q0 105 72 179t184 74h179l198 -8l-13 -80l-80 -20l-123 -767h-122l123 767h-102l-123 -767h-194l13 82z" />
    <glyph glyph-name="periodcentered" unicode="&#xb7;" horiz-adv-x="306" 
d="M65 286q0 49 25.5 81.5t74.5 32.5q34 0 55 -20t21 -54q0 -48 -26.5 -81t-75.5 -33q-34 0 -54 20t-20 54z" />
    <glyph glyph-name="cedilla" unicode="&#xb8;" horiz-adv-x="436" 
d="M108 -204l38 55q32 -19 69 -19q24 0 39.5 11t15.5 31q0 39 -75 39l14 87h83l-7 -44q33 -7 52 -26.5t19 -49.5q0 -51 -39.5 -82.5t-93.5 -31.5q-30 0 -59 7.5t-42 14.5z" />
    <glyph glyph-name="onesuperior" unicode="&#xb9;" horiz-adv-x="372" 
d="M65 280l14 89h89l34 211l-95 -55l-34 81l167 99h103l-53 -336h87l-14 -89h-298z" />
    <glyph glyph-name="ordmasculine" unicode="&#xba;" horiz-adv-x="496" 
d="M297 718q75 0 116 -38.5t41 -107.5q0 -113 -61.5 -185.5t-165.5 -72.5q-78 0 -120.5 37.5t-42.5 109.5q0 114 65 185.5t168 71.5zM277 627q-45 0 -70 -46t-25 -110q0 -66 64 -66q42 0 66 46.5t24 107.5q0 68 -59 68zM396 235l-16 -100h-364l16 100h364z" />
    <glyph glyph-name="guillemotright" unicode="&#xbb;" horiz-adv-x="611" 
d="M178 477l133 -179l-12 -77l-186 -169l-71 57l141 153l-90 159zM425 477l129 -179l-12 -77l-182 -169l-71 57l136 153l-85 159z" />
    <glyph glyph-name="onequarter" unicode="&#xbc;" horiz-adv-x="970" 
d="M872 170h58l-16 -93h-57l-12 -77h-124l12 77h-194l2 84l233 269l137 -15zM813 705l-501 -705h-142l501 705h142zM749 170l20 127l-112 -127h92zM50 280l14 89h92l33 209l-96 -55l-35 83l169 99h106l-53 -336h79l-14 -89h-295z" />
    <glyph glyph-name="onehalf" unicode="&#xbd;" horiz-adv-x="988" 
d="M50 280l14 89h92l33 209l-96 -55l-35 83l169 99h106l-53 -336h79l-14 -89h-295zM814 705l-501 -705h-142l501 705h142zM583 0l16 100q143 100 174 128q46 42 46 76t-46 34q-10 0 -21 -2t-16 -4l-6 -1l-13 -53h-83l17 132q81 25 147 25q155 0 155 -101q0 -17 -3 -32.5
t-11.5 -31t-15 -27.5t-21.5 -27t-23 -23.5t-27.5 -23.5t-27.5 -21.5t-30.5 -22.5t-28.5 -20h157l-17 -105h-322z" />
    <glyph glyph-name="threequarters" unicode="&#xbe;" horiz-adv-x="982" 
d="M884 170h58l-16 -93h-57l-12 -77h-124l12 77h-194l2 84l233 269l137 -15zM825 705l-501 -705h-142l501 705h142zM761 170l20 127l-112 -127h92zM90 574l15 114q87 23 154 23q146 0 146 -99q0 -86 -96 -112q32 -5 53 -27t21 -53q0 -76 -58.5 -114t-141.5 -38
q-36 0 -73 10.5t-56 21.5l-19 10l38 80q53 -27 109 -27q35 0 55.5 14.5t20.5 38.5q0 39 -60 39h-57l11 75h54q76 0 76 55q0 33 -48 33l-55 -6l-10 -38h-79z" />
    <glyph glyph-name="questiondown" unicode="&#xbf;" horiz-adv-x="453" 
d="M240 448q0 46 25 77.5t71 31.5q33 0 53.5 -19t20.5 -52q0 -46 -26 -78t-72 -32q-33 0 -52.5 19.5t-19.5 52.5zM369 296v-66q0 -38 -21.5 -71.5t-51.5 -57.5t-60.5 -47t-52 -51t-21.5 -59q0 -53 74 -53q19 0 41.5 2.5t35.5 4.5l13 2l8 -101q-79 -24 -156 -24
q-76 0 -122 31.5t-46 100.5q0 47 23 89t56 72.5t66.5 58t57.5 57.5t26 58l3 45z" />
    <glyph glyph-name="Agrave" unicode="&#xc0;" horiz-adv-x="711" 
d="M337 957l242 -131l-38 -80l-251 103zM677 88l-15 -88h-296l14 87l79 25l-12 73h-221l-36 -76l69 -22l-14 -87h-283l14 88l67 23l307 587l154 7l115 -597zM276 292h154l-37 241z" />
    <glyph glyph-name="Aacute" unicode="&#xc1;" horiz-adv-x="711" 
d="M386 738l-38 80l245 130l53 -104zM677 88l-15 -88h-296l14 87l79 25l-12 73h-221l-36 -76l69 -22l-14 -87h-283l14 88l67 23l307 587l154 7l115 -597zM276 292h154l-37 241z" />
    <glyph glyph-name="Acircumflex" unicode="&#xc2;" horiz-adv-x="711" 
d="M252 810l172 137l87 7l130 -144l-56 -65l-127 100l-164 -100zM677 88l-15 -88h-296l14 87l79 25l-12 73h-221l-36 -76l69 -22l-14 -87h-283l14 88l67 23l307 587l154 7l115 -597zM276 292h154l-37 241z" />
    <glyph glyph-name="Atilde" unicode="&#xc3;" horiz-adv-x="711" 
d="M280 780l-38 41q2 4 7 11.5t19.5 26t30 32.5t39 25.5t45.5 11.5q35 0 83.5 -22.5t76.5 -22.5q17 0 35 10.5t28 20.5l10 11l45 -39q-2 -4 -6.5 -11.5t-19 -26.5t-30 -33t-38 -26t-44.5 -12q-35 0 -86 22t-79 22q-18 0 -37.5 -10.5t-30.5 -20.5zM677 88l-15 -88h-296l14 87
l79 25l-12 73h-221l-36 -76l69 -22l-14 -87h-283l14 88l67 23l307 587l154 7l115 -597zM276 292h154l-37 241z" />
    <glyph glyph-name="Adieresis" unicode="&#xc4;" horiz-adv-x="711" 
d="M677 88l-15 -88h-296l14 87l79 25l-12 73h-221l-36 -76l69 -22l-14 -87h-283l14 88l67 23l307 587l154 7l115 -597zM276 292h154l-37 241zM290 830q0 40 22 68t61 28q29 0 45.5 -16.5t16.5 -44.5q0 -40 -23.5 -67.5t-61.5 -27.5q-28 0 -44 16t-16 44zM503 830q0 40 22 68
t60 28q29 0 45.5 -16.5t16.5 -44.5q0 -40 -23 -67.5t-61 -27.5q-28 0 -44 16t-16 44z" />
    <glyph glyph-name="Aring" unicode="&#xc5;" horiz-adv-x="711" 
d="M43 111l307 587q-41 28 -41 83q0 64 42 110t107 46q48 0 80.5 -27.5t32.5 -75.5q0 -39 -18 -74t-49 -57l115 -595l58 -20l-15 -88h-296l14 87l79 25l-12 73h-221l-36 -76l69 -22l-14 -87h-283l14 88zM448 865q-25 0 -40.5 -22t-15.5 -50q0 -43 40 -43q25 0 40.5 22
t15.5 50q0 43 -40 43zM276 292h154l-37 241z" />
    <glyph glyph-name="AE" unicode="&#xc6;" horiz-adv-x="934" 
d="M817 420l-17 -110h-198l-30 -193h175l36 84h90l-33 -201h-506l15 87l75 25l13 80h-190l-53 -84l59 -21l-15 -87h-276l14 87l71 25l300 477l-77 28l13 83l247 5h409l-31 -193h-80l-13 75h-168l-27 -167h197zM483 587l-174 -287h143l47 287h-16z" />
    <glyph glyph-name="Ccedilla" unicode="&#xc7;" horiz-adv-x="645" 
d="M203 -204l38 55q32 -19 69 -19q24 0 39.5 11t15.5 31q0 39 -75 39l12 74q-113 5 -180 75.5t-67 186.5q0 206 110 337t283 131q52 0 106.5 -11.5t82.5 -23.5l28 -12l-30 -190h-83l-13 94q-54 18 -108 18q-67 0 -117 -47.5t-73.5 -117.5t-23.5 -150q0 -74 36.5 -117.5
t95.5 -43.5q96 0 196 70l53 -84q-101 -86 -212 -108l-6 -38q33 -7 52 -26.5t19 -49.5q0 -51 -39.5 -82.5t-93.5 -31.5q-30 0 -59 7.5t-43 14.5z" />
    <glyph glyph-name="Egrave" unicode="&#xc8;" horiz-adv-x="611" 
d="M292 957l242 -131l-38 -80l-251 103zM297 420h197l-17 -110h-198l-30 -190h175l36 81h90l-33 -201h-510l14 87l78 24l75 477l-69 29l13 83l225 5h273l-31 -193h-80l-13 73h-168z" />
    <glyph glyph-name="Eacute" unicode="&#xc9;" horiz-adv-x="611" 
d="M331 738l-38 80l245 130l53 -104zM297 420h197l-17 -110h-198l-30 -190h175l36 81h90l-33 -201h-510l14 87l78 24l75 477l-69 29l13 83l225 5h273l-31 -193h-80l-13 73h-168z" />
    <glyph glyph-name="Ecircumflex" unicode="&#xca;" horiz-adv-x="609" 
d="M211 810l172 137l87 7l130 -144l-56 -65l-127 100l-164 -100zM295 420h197l-17 -110h-198l-30 -193h175l36 84h90l-33 -201h-508l14 87l78 24l75 477l-69 29l13 83l223 5h273l-31 -193h-80l-13 75h-168z" />
    <glyph glyph-name="Edieresis" unicode="&#xcb;" horiz-adv-x="611" 
d="M224 830q0 40 22 68t61 28q29 0 45.5 -16.5t16.5 -44.5q0 -40 -23.5 -67.5t-61.5 -27.5q-28 0 -44 16t-16 44zM437 830q0 40 22 68t60 28q29 0 45.5 -16.5t16.5 -44.5q0 -40 -23 -67.5t-61 -27.5q-28 0 -44 16t-16 44zM297 420h197l-17 -110h-198l-30 -190h175l36 81h90
l-33 -201h-510l14 87l78 24l75 477l-69 29l13 83l225 5h273l-31 -193h-80l-13 73h-168z" />
    <glyph glyph-name="Igrave" unicode="&#xcc;" horiz-adv-x="378" 
d="M167 957l242 -131l-38 -80l-251 103zM295 0h-298l14 87l78 24l76 477l-69 29l13 83l298 5l-14 -88l-78 -30l-76 -476l70 -24z" />
    <glyph glyph-name="Iacute" unicode="&#xcd;" horiz-adv-x="378" 
d="M195 738l-38 80l245 130l53 -104zM295 0h-298l14 87l78 24l76 477l-69 29l13 83l298 5l-14 -88l-78 -30l-76 -476l70 -24z" />
    <glyph glyph-name="Icircumflex" unicode="&#xce;" horiz-adv-x="380" 
d="M90 807l160 137l87 7l118 -144l-56 -65l-115 100l-152 -100zM295 0h-298l14 87l78 24l76 477l-69 29l13 83l298 5l-14 -88l-78 -30l-76 -476l70 -24z" />
    <glyph glyph-name="Idieresis" unicode="&#xcf;" horiz-adv-x="379" 
d="M110 830q0 40 22 68t61 28q29 0 45.5 -16.5t16.5 -44.5q0 -40 -23.5 -67.5t-61.5 -27.5q-28 0 -44 16t-16 44zM323 830q0 40 22 68t60 28q29 0 45.5 -16.5t16.5 -44.5q0 -40 -23 -67.5t-61 -27.5q-28 0 -44 16t-16 44zM296 0h-298l14 87l78 24l76 477l-69 29l13 83l298 5
l-14 -88l-78 -30l-76 -476l70 -24z" />
    <glyph glyph-name="Eth" unicode="&#xd0;" horiz-adv-x="720" 
d="M335 705h96q120 0 189.5 -64.5t69.5 -185.5q0 -216 -110 -335.5t-293 -119.5h-285l14 87l76 25l32 198h-73l18 110h72l27 168l-68 29l13 83zM241 117h68q72 0 124 48t76 121.5t24 162.5q0 138 -121 138h-96l-27 -167h118l-15 -110h-120z" />
    <glyph glyph-name="Ntilde" unicode="&#xd1;" horiz-adv-x="767" 
d="M301 780l-38 41q2 4 7 11.5t19.5 26t30 32.5t39 25.5t45.5 11.5q35 0 83.5 -22.5t76.5 -22.5q17 0 35 10.5t28 20.5l10 11l45 -39q-2 -4 -6.5 -11.5t-19 -26.5t-30 -33t-38 -26t-44.5 -12q-35 0 -86 22t-79 22q-18 0 -37.5 -10.5t-29.5 -20.5zM-8 0l14 87l78 24l75 477
l-69 29l13 83l232 5l191 -466l55 349l-65 29l13 83l277 5l-14 -88l-77 -29l-93 -588h-155l-193 464l-57 -353l67 -24l-14 -87h-278z" />
    <glyph glyph-name="Ograve" unicode="&#xd2;" horiz-adv-x="732" 
d="M370 957l242 -131l-38 -80l-251 103zM306 -13q-120 0 -186 67t-66 192q0 129 46 235t136.5 171t207.5 65q123 0 191.5 -69.5t68.5 -192.5q0 -197 -111 -332.5t-287 -135.5zM544 449q0 143 -120 143q-67 0 -117 -56.5t-71.5 -130t-21.5 -147.5q0 -71 29.5 -108.5
t87.5 -37.5q66 0 116.5 55.5t73.5 130.5t23 151z" />
    <glyph glyph-name="Oacute" unicode="&#xd3;" horiz-adv-x="732" 
d="M386 738l-38 80l245 130l53 -104zM306 -13q-120 0 -186 67t-66 192q0 129 46 235t136.5 171t207.5 65q123 0 191.5 -69.5t68.5 -192.5q0 -197 -111 -332.5t-287 -135.5zM544 449q0 143 -120 143q-67 0 -117 -56.5t-71.5 -130t-21.5 -147.5q0 -71 29.5 -108.5t87.5 -37.5
q66 0 116.5 55.5t73.5 130.5t23 151z" />
    <glyph glyph-name="Ocircumflex" unicode="&#xd4;" horiz-adv-x="732" 
d="M267 807l172 137l87 7l130 -144l-56 -65l-127 100l-164 -100zM306 -13q-120 0 -186 67t-66 192q0 129 46 235t136.5 171t207.5 65q123 0 191.5 -69.5t68.5 -192.5q0 -197 -111 -332.5t-287 -135.5zM544 449q0 143 -120 143q-67 0 -117 -56.5t-71.5 -130t-21.5 -147.5
q0 -71 29.5 -108.5t87.5 -37.5q66 0 116.5 55.5t73.5 130.5t23 151z" />
    <glyph glyph-name="Otilde" unicode="&#xd5;" horiz-adv-x="732" 
d="M299 780l-38 41q2 4 7 11.5t19.5 26t30 32.5t39 25.5t45.5 11.5q35 0 83.5 -22.5t76.5 -22.5q17 0 35 10.5t28 20.5l10 11l45 -39q-2 -4 -6.5 -11.5t-19 -26.5t-30 -33t-38 -26t-44.5 -12q-35 0 -86 22t-79 22q-18 0 -37.5 -10.5t-29.5 -20.5zM306 -13q-120 0 -186 67
t-66 192q0 129 46 235t136.5 171t207.5 65q123 0 191.5 -69.5t68.5 -192.5q0 -197 -111 -332.5t-287 -135.5zM544 449q0 143 -120 143q-67 0 -117 -56.5t-71.5 -130t-21.5 -147.5q0 -71 29.5 -108.5t87.5 -37.5q66 0 116.5 55.5t73.5 130.5t23 151z" />
    <glyph glyph-name="Odieresis" unicode="&#xd6;" horiz-adv-x="732" 
d="M306 -13q-120 0 -186 67t-66 192q0 129 46 235t136.5 171t207.5 65q123 0 191.5 -69.5t68.5 -192.5q0 -197 -111 -332.5t-287 -135.5zM544 449q0 143 -120 143q-67 0 -117 -56.5t-71.5 -130t-21.5 -147.5q0 -71 29.5 -108.5t87.5 -37.5q66 0 116.5 55.5t73.5 130.5
t23 151zM306 830q0 40 22 68t61 28q29 0 45.5 -16.5t16.5 -44.5q0 -40 -23.5 -67.5t-61.5 -27.5q-28 0 -44 16t-16 44zM519 830q0 40 22 68t60 28q29 0 45.5 -16.5t16.5 -44.5q0 -40 -23 -67.5t-61 -27.5q-28 0 -44 16t-16 44z" />
    <glyph glyph-name="multiply" unicode="&#xd7;" horiz-adv-x="629" 
d="M336 354l192 170l68 -83l-191 -171l137 -169l-95 -85l-137 170l-192 -170l-68 85l191 169l-137 170l95 84z" />
    <glyph glyph-name="Oslash" unicode="&#xd8;" horiz-adv-x="738" 
d="M15 -59l97 128q-53 67 -53 177q0 129 45.5 235t135.5 171t207 65q75 0 130 -27l77 103l78 -51l-83 -110q56 -67 56 -172q0 -131 -48.5 -238t-139.5 -170.5t-208 -63.5q-71 0 -124 24l-92 -122zM227 222l266 356q-25 14 -66 14q-93 0 -150.5 -96t-57.5 -219q0 -29 8 -55z
M537 482l-266 -355q25 -15 63 -15q91 0 150 92.5t59 219.5q0 32 -6 58z" />
    <glyph glyph-name="Ugrave" unicode="&#xd9;" horiz-adv-x="756" 
d="M320 957l242 -131l-38 -80l-251 103zM305 587l-51 -317q-5 -33 -5 -56q0 -51 24 -77.5t84 -26.5q68 0 102 40t48 133l48 304l-70 30l13 83l297 5l-14 -88l-77 -30l-46 -295q-24 -150 -99 -227t-223 -77q-126 0 -182 50t-56 150q0 41 7 82l51 317l-71 30l13 83l296 5
l-14 -88z" />
    <glyph glyph-name="Uacute" unicode="&#xda;" horiz-adv-x="756" 
d="M376 738l-38 80l245 130l53 -104zM305 587l-51 -317q-5 -33 -5 -56q0 -51 24 -77.5t84 -26.5q68 0 102 40t48 133l48 304l-70 30l13 83l297 5l-14 -88l-77 -30l-46 -295q-24 -150 -99 -227t-223 -77q-126 0 -182 50t-56 150q0 41 7 82l51 317l-71 30l13 83l296 5l-14 -88
z" />
    <glyph glyph-name="Ucircumflex" unicode="&#xdb;" horiz-adv-x="735" 
d="M252 807l172 137l87 7l130 -144l-56 -65l-127 100l-164 -100zM295 587l-51 -317q-5 -33 -5 -56q0 -51 24 -77.5t84 -26.5q68 0 102 40t48 133l48 304l-70 30l13 83l297 5l-14 -88l-77 -30l-46 -295q-24 -150 -99 -227t-223 -77q-126 0 -182 50t-56 150q0 41 7 82l51 317
l-71 30l13 83l296 5l-14 -88z" />
    <glyph glyph-name="Udieresis" unicode="&#xdc;" horiz-adv-x="736" 
d="M286 830q0 40 22 68t61 28q29 0 45.5 -16.5t16.5 -44.5q0 -40 -23.5 -67.5t-61.5 -27.5q-28 0 -44 16t-16 44zM499 830q0 40 22 68t60 28q29 0 45.5 -16.5t16.5 -44.5q0 -40 -23 -67.5t-61 -27.5q-28 0 -44 16t-16 44zM295 587l-51 -317q-5 -33 -5 -56q0 -51 24 -77.5
t84 -26.5q68 0 102 40t48 133l48 304l-70 30l13 83l297 5l-14 -88l-77 -30l-46 -295q-24 -150 -99 -227t-223 -77q-126 0 -182 50t-56 150q0 41 7 82l51 317l-71 30l13 83l296 5l-14 -88z" />
    <glyph glyph-name="Yacute" unicode="&#xdd;" horiz-adv-x="617" 
d="M347 738l-38 80l245 130l53 -104zM411 0h-296l14 87l78 25l21 134l-107 349l-76 22l13 83l188 5l90 -329l127 219l-68 22l13 83l283 5l-14 -88l-74 -28l-229 -359l-19 -118l70 -25z" />
    <glyph glyph-name="Thorn" unicode="&#xde;" horiz-adv-x="612" 
d="M292 0h-294l13 87l78 25l75 476l-68 29l13 83l296 5l-14 -88l-78 -30l-6 -32h98q94 0 146.5 -38.5t52.5 -114.5q0 -115 -80.5 -178.5t-210.5 -63.5h-69l-7 -48l69 -25zM262 267h62q61 0 96 29.5t35 81.5q0 67 -90 67h-75z" />
    <glyph glyph-name="germandbls" unicode="&#xdf;" horiz-adv-x="729" 
d="M42 430l15 87l103 13l4 26q16 105 90 168t184 63q104 0 160.5 -37.5t56.5 -105.5q0 -38 -15 -69t-36 -52t-42.5 -39t-36.5 -37.5t-15 -39.5q0 -23 19 -41.5t46.5 -32.5t55 -30t46.5 -44t19 -66q0 -87 -71.5 -145t-170.5 -58q-39 0 -80 6t-62 12l-21 6l24 159h85l3 -69
q19 -9 55 -9q44 0 65.5 19.5t21.5 47.5q0 22 -19 40t-46.5 32t-55 30t-46.5 43t-19 62q0 41 15.5 72.5t37.5 51.5t43.5 37t37 37.5t15.5 44.5q0 65 -85 65q-45 0 -76.5 -31t-40.5 -87l-95 -590q-17 -100 -72 -157t-151 -57q-19 0 -43.5 3.5t-39.5 6.5l-15 3l17 90h61
q86 0 100 94l76 478h-102z" />
    <glyph glyph-name="agrave" unicode="&#xe0;" horiz-adv-x="615" 
d="M223 841l260 -169l-38 -75l-271 132zM563 10l-215 -10l35 148q-4 -7 -12 -20.5t-29 -39t-44.5 -46t-58.5 -36.5t-70 -16q-65 0 -104 51.5t-39 129.5q0 91 26 164.5t69 119.5t97.5 70.5t113.5 24.5q31 0 60 -9t43 -19l14 -9l29 27h91l-70 -436l77 -15zM392 347l15 83
q-29 12 -73 12q-69 0 -113.5 -71.5t-44.5 -180.5q0 -39 13 -61t36 -22q28 0 55.5 24.5t46.5 60t34.5 71t22.5 59.5z" />
    <glyph glyph-name="aacute" unicode="&#xe1;" horiz-adv-x="615" 
d="M570 741l-52 104l-249 -172l46 -73zM563 10l-215 -10l35 148q-4 -7 -12 -20.5t-29 -39t-44.5 -46t-58.5 -36.5t-70 -16q-65 0 -104 51.5t-39 129.5q0 91 26 164.5t69 119.5t97.5 70.5t113.5 24.5q31 0 60 -9t43 -19l14 -9l29 27h91l-70 -436l77 -15zM392 347l15 83
q-29 12 -73 12q-69 0 -113.5 -71.5t-44.5 -180.5q0 -39 13 -61t36 -22q28 0 55.5 24.5t46.5 60t34.5 71t22.5 59.5z" />
    <glyph glyph-name="acircumflex" unicode="&#xe2;" horiz-adv-x="605" 
d="M146 684l172 137l87 7l130 -144l-56 -65l-127 100l-164 -100zM553 10l-212 -10l35 148q-4 -7 -12 -20.5t-29 -39t-44.5 -46t-58.5 -36.5t-70 -16q-64 0 -102.5 51.5t-38.5 129.5q0 178 89.5 278.5t214.5 100.5q31 0 60 -9t43 -19l14 -9l29 27h88l-70 -436l77 -15z
M385 347l15 83q-29 12 -73 12q-69 0 -113.5 -71.5t-44.5 -180.5q0 -39 13 -61t36 -22q28 0 55.5 24.5t47 60t34.5 71t23 59.5z" />
    <glyph glyph-name="atilde" unicode="&#xe3;" horiz-adv-x="605" 
d="M184 637l-38 41q2 4 7 11.5t19.5 26t30 32.5t39 25.5t45.5 11.5q35 0 83.5 -22.5t76.5 -22.5q17 0 35 10.5t28 21.5l10 10l45 -39q-2 -4 -6.5 -11.5t-19 -26.5t-30 -33t-38 -26t-44.5 -12q-35 0 -86 22t-79 22q-18 0 -37.5 -10t-30.5 -20zM553 10l-212 -10l35 148
q-4 -7 -12 -20.5t-29 -39t-44.5 -46t-58.5 -36.5t-70 -16q-64 0 -102.5 51.5t-38.5 129.5q0 178 89.5 278.5t214.5 100.5q31 0 60 -9t43 -19l14 -9l29 27h88l-70 -436l77 -15zM385 347l15 83q-29 12 -73 12q-69 0 -113.5 -71.5t-44.5 -180.5q0 -39 13 -61t36 -22
q28 0 55.5 24.5t47 60t34.5 71t23 59.5z" />
    <glyph glyph-name="adieresis" unicode="&#xe4;" horiz-adv-x="615" 
d="M563 10l-215 -10l35 148q-4 -7 -12 -20.5t-29 -39t-44.5 -46t-58.5 -36.5t-70 -16q-65 0 -104 51.5t-39 129.5q0 91 26 164.5t69 119.5t97.5 70.5t113.5 24.5q31 0 60 -9t43 -19l14 -9l29 27h91l-70 -436l77 -15zM392 347l15 83q-29 12 -73 12q-69 0 -113.5 -71.5
t-44.5 -180.5q0 -39 13 -61t36 -22q28 0 55.5 24.5t46.5 60t34.5 71t22.5 59.5zM185 680q0 40 22 68t61 28q29 0 45.5 -16.5t16.5 -44.5q0 -40 -23.5 -67.5t-61.5 -27.5q-28 0 -44 16t-16 44zM398 680q0 40 22 68t60 28q29 0 45.5 -16.5t16.5 -44.5q0 -40 -23 -67.5
t-61 -27.5q-28 0 -44 16t-16 44z" />
    <glyph glyph-name="aring" unicode="&#xe5;" horiz-adv-x="615" 
d="M283 701q0 64 42 110t107 46q48 0 80.5 -27.5t32.5 -75.5q0 -63 -43.5 -110t-107.5 -47q-48 0 -79.5 28.5t-31.5 75.5zM422 785q-25 0 -40.5 -22t-15.5 -50q0 -43 40 -43q25 0 40.5 22t15.5 50q0 43 -40 43zM563 10l-215 -10l35 148q-4 -7 -12 -20.5t-29 -39t-44.5 -46
t-58.5 -36.5t-70 -16q-65 0 -104 51.5t-39 129.5q0 91 26 164.5t69 119.5t97.5 70.5t113.5 24.5q31 0 60 -9t43 -19l14 -9l29 27h91l-70 -436l77 -15zM392 347l15 83q-29 12 -73 12q-69 0 -113.5 -71.5t-44.5 -180.5q0 -39 13 -61t36 -22q28 0 55.5 24.5t46.5 60t34.5 71
t22.5 59.5z" />
    <glyph glyph-name="ae" unicode="&#xe6;" horiz-adv-x="811" 
d="M87 365l17 145q115 40 215 40q117 0 137 -66q76 66 167 66q84 0 133.5 -39.5t49.5 -103.5q0 -87 -89.5 -138t-252.5 -53q0 -58 20.5 -84.5t72.5 -26.5q17 0 35.5 3t37 8t31.5 9t28.5 9.5t17.5 6.5l42 -74q-21 -14 -49.5 -29.5t-81.5 -31.5t-102 -16q-130 0 -171 97
q-82 -96 -194 -96q-63 0 -100 34.5t-37 94.5q0 95 68 143t185 48h71l9 56q2 12 2 20q0 55 -64 55q-23 0 -45.5 -3t-33.5 -7l-11 -3l-25 -64h-83zM661 389q0 48 -57 48q-44 0 -79 -37t-50 -96q93 2 139.5 25t46.5 60zM325 226h-56q-112 0 -112 -76q0 -21 15.5 -35.5
t36.5 -14.5q43 0 76.5 40.5t39.5 85.5z" />
    <glyph glyph-name="ccedilla" unicode="&#xe7;" horiz-adv-x="485" 
d="M117 -204l38 55q32 -19 69 -19q24 0 39.5 11t15.5 31q0 39 -75 39l12 77q-87 2 -137.5 51.5t-50.5 141.5q0 166 86 266.5t224 100.5q66 0 155 -40l-27 -158h-88l-3 74q-20 9 -53 9q-70 0 -108 -72t-38 -163q0 -45 22 -70t60 -25q51 0 141 41l44 -74q-75 -50 -141 -70
l-8 -46q33 -7 52 -26.5t19 -49.5q0 -51 -39.5 -82.5t-93.5 -31.5q-30 0 -59 7.5t-43 14.5z" />
    <glyph glyph-name="egrave" unicode="&#xe8;" horiz-adv-x="522" 
d="M233 841l260 -169l-38 -75l-271 132zM418 141l42 -74q-36 -25 -101 -51t-134 -26q-91 0 -145 49t-54 136q0 163 88 269t213 106q88 0 139 -38.5t51 -104.5q0 -86 -91.5 -139.5t-253.5 -54.5q0 -62 23 -85t71 -23q20 0 46.5 5t42.5 10t39 13zM372 389q0 48 -57 48
q-44 0 -80 -38t-51 -98q91 2 139.5 27t48.5 61z" />
    <glyph glyph-name="eacute" unicode="&#xe9;" horiz-adv-x="522" 
d="M545 741l-52 104l-249 -172l46 -73zM418 141l42 -74q-36 -25 -101 -51t-134 -26q-91 0 -145 49t-54 136q0 163 88 269t213 106q88 0 139 -38.5t51 -104.5q0 -86 -91.5 -139.5t-253.5 -54.5q0 -62 23 -85t71 -23q20 0 46.5 5t42.5 10t39 13zM372 389q0 48 -57 48
q-44 0 -80 -38t-51 -98q91 2 139.5 27t48.5 61z" />
    <glyph glyph-name="ecircumflex" unicode="&#xea;" horiz-adv-x="517" 
d="M140 684l172 137l87 7l130 -144l-56 -65l-127 100l-164 -100zM418 141l42 -74q-36 -25 -101 -51t-134 -26q-91 0 -145 49t-54 136q0 163 88 269t213 106q88 0 139 -38.5t51 -104.5q0 -86 -91.5 -139.5t-253.5 -54.5q0 -62 23 -85t71 -23q20 0 46.5 5t42.5 10t39 13z
M372 389q0 48 -57 48q-44 0 -80 -38t-51 -98q91 2 139.5 27t48.5 61z" />
    <glyph glyph-name="edieresis" unicode="&#xeb;" horiz-adv-x="522" 
d="M418 141l42 -74q-36 -25 -101 -51t-134 -26q-91 0 -145 49t-54 136q0 163 88 269t213 106q88 0 139 -38.5t51 -104.5q0 -86 -91.5 -139.5t-253.5 -54.5q0 -62 23 -85t71 -23q20 0 46.5 5t42.5 10t39 13zM372 389q0 48 -57 48q-44 0 -80 -38t-51 -98q91 2 139.5 27
t48.5 61zM176 680q0 40 22 68t61 28q29 0 45.5 -16.5t16.5 -44.5q0 -40 -23.5 -67.5t-61.5 -27.5q-28 0 -44 16t-16 44zM389 680q0 40 22 68t60 28q29 0 45.5 -16.5t16.5 -44.5q0 -40 -23 -67.5t-61 -27.5q-28 0 -44 16t-16 44z" />
    <glyph glyph-name="igrave" unicode="&#xec;" horiz-adv-x="330" 
d="M102 841l260 -169l-38 -75l-271 132zM210 105l76 -15l-13 -80l-220 -10l68 432l-77 20l14 80l221 8z" />
    <glyph glyph-name="iacute" unicode="&#xed;" horiz-adv-x="330" 
d="M429 741l-52 104l-249 -172l46 -73zM210 105l76 -15l-13 -80l-220 -10l68 432l-77 20l14 80l221 8z" />
    <glyph glyph-name="icircumflex" unicode="&#xee;" horiz-adv-x="339" 
d="M20 681l164 137l87 7l123 -144l-59 -65l-117 100l-153 -100zM216 105l76 -15l-13 -80l-220 -10l68 432l-77 20l14 80l221 8z" />
    <glyph glyph-name="idieresis" unicode="&#xef;" horiz-adv-x="330" 
d="M60 680q0 40 22 68t61 28q29 0 45.5 -16.5t16.5 -44.5q0 -40 -23.5 -67.5t-61.5 -27.5q-28 0 -44 16t-16 44zM254 680q0 40 22 68t60 28q29 0 45.5 -16.5t16.5 -44.5q0 -40 -23 -67.5t-61 -27.5q-28 0 -44 16t-16 44zM210 105l76 -15l-13 -80l-220 -10l68 432l-77 20
l14 80l221 8z" />
    <glyph glyph-name="eth" unicode="&#xf0;" horiz-adv-x="564" 
d="M534 711l-89 -48q88 -104 88 -274q0 -185 -77.5 -293t-222.5 -108q-97 0 -152 50t-55 140q0 146 80 236.5t207 90.5q22 0 43.5 -6.5t31.5 -12.5l11 -6q-11 74 -60 126l-122 -66l-43 78l90 49q-33 19 -77 35l53 87q76 -20 136 -61l114 61zM255 102q42 0 71 33t40.5 77.5
t11.5 94.5q0 83 -79 83q-59 0 -89.5 -61t-30.5 -141q0 -86 76 -86z" />
    <glyph glyph-name="ntilde" unicode="&#xf1;" 
d="M205 630l-38 46q2 4 6.5 11.5t19 26.5t29.5 33.5t38 26.5t45 12q35 0 80.5 -23t73.5 -23q17 0 35 10.5t28 21.5l10 10l45 -46q-2 -4 -6.5 -11.5t-19 -26.5t-30 -33t-38 -26t-44.5 -12q-35 0 -81.5 22t-74.5 22q-18 0 -37.5 -10.5t-29.5 -20.5zM279 540l-34 -160
q4 9 12 22t29.5 41.5t45 50t59.5 39t73 17.5q110 0 110 -122q0 -25 -5 -58l-43 -265l75 -15l-13 -80l-221 -10l55 342q4 26 4 36q0 49 -38 49q-40 0 -80 -54.5t-61 -112t-25 -89.5l-29 -171h-141l69 432l-77 20l13 80z" />
    <glyph glyph-name="ograve" unicode="&#xf2;" horiz-adv-x="579" 
d="M233 841l260 -169l-38 -75l-271 132zM244 -10q-102 0 -158 55t-56 155q0 159 83 254.5t219 95.5q103 0 159.5 -56.5t56.5 -154.5q0 -158 -84 -253.5t-220 -95.5zM398 345q-3 85 -83 85q-61 0 -98 -64t-37 -158q0 -98 81 -98q38 0 66.5 22.5t43 59t21 75t6.5 78.5z" />
    <glyph glyph-name="oacute" unicode="&#xf3;" horiz-adv-x="579" 
d="M540 741l-52 104l-249 -172l46 -73zM244 -10q-102 0 -158 55t-56 155q0 159 83 254.5t219 95.5q103 0 159.5 -56.5t56.5 -154.5q0 -158 -84 -253.5t-220 -95.5zM398 345q-3 85 -83 85q-61 0 -98 -64t-37 -158q0 -98 81 -98q38 0 66.5 22.5t43 59t21 75t6.5 78.5z" />
    <glyph glyph-name="ocircumflex" unicode="&#xf4;" horiz-adv-x="574" 
d="M151 673l172 137l87 7l130 -144l-56 -65l-127 100l-164 -100zM232 -10q-98 0 -151 50.5t-53 144.5q0 164 86.5 264.5t225.5 100.5q99 0 152.5 -52t53.5 -144q0 -164 -87 -264t-227 -100zM398 345q0 90 -79 90q-63 0 -103 -70.5t-40 -169.5q0 -90 77 -90q64 0 104.5 68.5
t40.5 171.5z" />
    <glyph glyph-name="otilde" unicode="&#xf5;" horiz-adv-x="574" 
d="M180 638l-38 41q2 4 7 11.5t19.5 26t30 32.5t39 25.5t45.5 11.5q35 0 83.5 -22.5t76.5 -22.5q17 0 35 10.5t28 20.5l10 11l45 -39q-2 -4 -6.5 -11.5t-19 -26.5t-30 -33t-38 -26t-44.5 -12q-35 0 -86 22t-79 22q-18 0 -37.5 -10.5t-30.5 -20.5zM232 -10q-98 0 -151 50.5
t-53 144.5q0 164 86.5 264.5t225.5 100.5q99 0 152.5 -52t53.5 -144q0 -164 -87 -264t-227 -100zM398 345q0 90 -79 90q-63 0 -103 -70.5t-40 -169.5q0 -90 77 -90q64 0 104.5 68.5t40.5 171.5z" />
    <glyph glyph-name="odieresis" unicode="&#xf6;" horiz-adv-x="579" 
d="M244 -10q-102 0 -158 55t-56 155q0 159 83 254.5t219 95.5q103 0 159.5 -56.5t56.5 -154.5q0 -158 -84 -253.5t-220 -95.5zM398 345q-3 85 -83 85q-61 0 -98 -64t-37 -158q0 -98 81 -98q38 0 66.5 22.5t43 59t21 75t6.5 78.5zM176 680q0 40 22 68t61 28q29 0 45.5 -16.5
t16.5 -44.5q0 -40 -23.5 -67.5t-61.5 -27.5q-28 0 -44 16t-16 44zM389 680q0 40 22 68t60 28q29 0 45.5 -16.5t16.5 -44.5q0 -40 -23 -67.5t-61 -27.5q-28 0 -44 16t-16 44z" />
    <glyph glyph-name="divide" unicode="&#xf7;" horiz-adv-x="622" 
d="M261 461q0 48 25 80t73 32q34 0 54.5 -19.5t20.5 -52.5q0 -48 -26 -80.5t-74 -32.5q-34 0 -53.5 19.5t-19.5 53.5zM577 323l-18 -115h-509l18 115h509zM193 31q0 48 25.5 80t73.5 32q34 0 54.5 -19.5t20.5 -52.5q0 -48 -26.5 -80.5t-74.5 -32.5q-34 0 -53.5 19.5
t-19.5 53.5z" />
    <glyph glyph-name="oslash" unicode="&#xf8;" horiz-adv-x="586" 
d="M-10 -75l90 122q-47 50 -47 138q0 164 86 264.5t225 100.5q50 0 95 -16l80 109l67 -42l-81 -109q48 -53 48 -135q0 -166 -87.5 -266.5t-227.5 -100.5q-47 0 -92 15l-90 -122zM185 190l176 238q-19 7 -36 7q-63 0 -102 -66.5t-39 -159.5q0 -13 1 -19zM401 350l-177 -239
q15 -6 35 -6q62 0 102.5 62t40.5 156q0 5 -0.5 14t-0.5 13z" />
    <glyph glyph-name="ugrave" unicode="&#xf9;" 
d="M230 841l260 -169l-38 -75l-271 132zM362 0l34 159q-7 -13 -19.5 -32t-41 -54.5t-70.5 -59t-87 -23.5q-110 0 -110 121q0 31 48 321l-77 20l13 80l222 8q-58 -357 -58 -378q0 -50 38 -50q31 0 60.5 28.5t50 71t32 74t18.5 56.5l33 198h141l-69 -436l76 -15l-13 -79z" />
    <glyph glyph-name="uacute" unicode="&#xfa;" 
d="M555 741l-52 104l-249 -172l46 -73zM362 0l34 159q-7 -13 -19.5 -32t-41 -54.5t-70.5 -59t-87 -23.5q-110 0 -110 121q0 31 48 321l-77 20l13 80l222 8q-58 -357 -58 -378q0 -50 38 -50q31 0 60.5 28.5t50 71t32 74t18.5 56.5l33 198h141l-69 -436l76 -15l-13 -79z" />
    <glyph glyph-name="ucircumflex" unicode="&#xfb;" 
d="M150 684l172 137l87 7l130 -144l-56 -65l-127 100l-164 -100zM362 0l34 159q-7 -13 -19.5 -32t-41 -54.5t-70.5 -59t-87 -23.5q-110 0 -110 121q0 33 5 59l43 262l-77 20l13 80l222 8l-55 -343q-3 -19 -3 -35q0 -50 38 -50q31 0 60.5 28.5t50 71t32 74t18.5 56.5l33 198
h141l-69 -436l76 -15l-13 -79z" />
    <glyph glyph-name="udieresis" unicode="&#xfc;" 
d="M178 680q0 40 22 68t61 28q29 0 45.5 -16.5t16.5 -44.5q0 -40 -23.5 -67.5t-61.5 -27.5q-28 0 -44 16t-16 44zM391 680q0 40 22 68t60 28q29 0 45.5 -16.5t16.5 -44.5q0 -40 -23 -67.5t-61 -27.5q-28 0 -44 16t-16 44zM362 0l34 159q-7 -13 -19.5 -32t-41 -54.5
t-70.5 -59t-87 -23.5q-110 0 -110 121q0 31 48 321l-77 20l13 80l222 8q-58 -357 -58 -378q0 -50 38 -50q31 0 60.5 28.5t50 71t32 74t18.5 56.5l33 198h141l-69 -436l76 -15l-13 -79z" />
    <glyph glyph-name="yacute" unicode="&#xfd;" horiz-adv-x="563" 
d="M536 741l-52 104l-249 -172l46 -73zM9 452l12 80l192 8l68 -326l6 -62l118 286l-62 14l12 80l251 8l-14 -85l-49 -16l-191 -423q-67 -149 -117.5 -202.5t-138.5 -53.5q-27 0 -58.5 5t-49.5 10l-19 5l28 100q39 -5 74 -5q50 0 74.5 19.5t50.5 77.5l-118 463z" />
    <glyph glyph-name="thorn" unicode="&#xfe;" horiz-adv-x="613" 
d="M279 540l-43 -152q8 16 18.5 32.5t37.5 51t67 56.5t84 22q68 0 105.5 -53t37.5 -132q0 -88 -26.5 -160t-71.5 -118t-101 -71t-116 -25q-38 0 -77 13l-21 -131l89 -23l-13 -80h-309l13 80l78 23l126 794l-76 20l13 80l223 8zM227 193l-15 -82q32 -11 67 -11q63 0 111 71
t48 171q0 37 -14 62.5t-42 25.5t-54 -24.5t-43.5 -59t-31 -69.5t-19.5 -59z" />
    <glyph glyph-name="ydieresis" unicode="&#xff;" horiz-adv-x="563" 
d="M154 680q0 40 22 68t61 28q29 0 45.5 -16.5t16.5 -44.5q0 -40 -23.5 -67.5t-61.5 -27.5q-28 0 -44 16t-16 44zM367 680q0 40 22 68t60 28q29 0 45.5 -16.5t16.5 -44.5q0 -40 -23 -67.5t-61 -27.5q-28 0 -44 16t-16 44zM9 452l12 80l192 8l68 -326l6 -62l118 286l-62 14
l12 80l251 8l-14 -85l-49 -16l-191 -423q-67 -149 -117.5 -202.5t-138.5 -53.5q-27 0 -58.5 5t-49.5 10l-19 5l28 100q39 -5 74 -5q50 0 74.5 19.5t50.5 77.5l-118 463z" />
    <glyph glyph-name="Amacron" unicode="&#x100;" horiz-adv-x="711" 
d="M609 901l-18 -105h-291l18 105h291zM677 88l-15 -88h-296l14 87l79 25l-12 73h-221l-36 -76l69 -22l-14 -87h-283l14 88l67 23l307 587l154 7l115 -597zM276 292h154l-37 241z" />
    <glyph glyph-name="amacron" unicode="&#x101;" horiz-adv-x="605" 
d="M500 747l-18 -105h-291l18 105h291zM553 10l-212 -10l35 148q-4 -7 -12 -20.5t-29 -39t-44.5 -46t-58.5 -36.5t-70 -16q-64 0 -102.5 51.5t-38.5 129.5q0 178 89.5 278.5t214.5 100.5q31 0 60 -9t43 -19l14 -9l29 27h88l-70 -436l77 -15zM385 347l15 83q-29 12 -73 12
q-69 0 -113.5 -71.5t-44.5 -180.5q0 -39 13 -61t36 -22q28 0 55.5 24.5t47 60t34.5 71t23 59.5z" />
    <glyph glyph-name="Abreve" unicode="&#x102;" horiz-adv-x="711" 
d="M314 930l85 9q0 -24 15 -48.5t50 -24.5q29 0 49.5 16t26.5 32l6 17l85 6q-13 -82 -68.5 -128t-124.5 -46q-57 0 -92 35t-35 94q0 11 3 38zM677 88l-15 -88h-296l14 87l79 25l-12 73h-221l-36 -76l69 -22l-14 -87h-283l14 88l67 23l307 587l154 7l115 -597zM276 292h154
l-37 241z" />
    <glyph glyph-name="abreve" unicode="&#x103;" horiz-adv-x="615" 
d="M233 779l85 9q0 -24 15 -48.5t50 -24.5q29 0 49.5 16.5t26.5 32.5l6 16l85 6q-13 -82 -68.5 -128t-124.5 -46q-57 0 -92 35t-35 94q0 11 3 38zM563 10l-215 -10l35 148q-4 -7 -12 -20.5t-29 -39t-44.5 -46t-58.5 -36.5t-70 -16q-65 0 -104 51.5t-39 129.5q0 91 26 164.5
t69 119.5t97.5 70.5t113.5 24.5q31 0 60 -9t43 -19l14 -9l29 27h91l-70 -436l77 -15zM392 347l15 83q-29 12 -73 12q-69 0 -113.5 -71.5t-44.5 -180.5q0 -39 13 -61t36 -22q28 0 55.5 24.5t46.5 60t34.5 71t22.5 59.5z" />
    <glyph glyph-name="Aogonek" unicode="&#x104;" horiz-adv-x="711" 
d="M677 88l-15 -88q-16 -5 -48 -19t-74.5 -43.5t-42.5 -54.5q0 -14 9 -22t25 -8l40 7l5 -71q-53 -24 -102 -24q-41 0 -67 22t-26 61q0 82 129 149q3 2 5 3h-149l14 87l79 25l-12 73h-221l-36 -76l69 -22l-14 -87h-283l14 88l67 23l307 587l154 7l115 -597zM276 292h154
l-37 241z" />
    <glyph glyph-name="aogonek" unicode="&#x105;" horiz-adv-x="605" 
d="M566 89l-13 -79q-137 -78 -137 -127q0 -14 9 -22t25 -8l40 7l5 -71q-53 -24 -102 -24q-41 0 -67 22t-26 61q0 29 14.5 56t37.5 47t40.5 32t35.5 21l-87 -4l35 148q-4 -7 -12 -20.5t-29 -39t-44.5 -46t-58.5 -36.5t-70 -16q-64 0 -102.5 51.5t-38.5 129.5
q0 178 89.5 278.5t214.5 100.5q31 0 60 -9t43 -19l14 -9l29 27h88l-70 -436zM385 347l15 83q-29 12 -73 12q-69 0 -113.5 -71.5t-44.5 -180.5q0 -39 13 -61t36 -22q28 0 55.5 24.5t47 60t34.5 71t23 59.5z" />
    <glyph glyph-name="Cacute" unicode="&#x106;" horiz-adv-x="645" 
d="M385 738l-38 80l245 130l53 -104zM552 480l-13 94q-54 18 -108 18q-67 0 -117 -47.5t-73.5 -117.5t-23.5 -150q0 -74 36.5 -117.5t95.5 -43.5q96 0 196 70l53 -84q-135 -115 -282 -115q-119 0 -190 71t-71 191q0 206 110 337t283 131q52 0 106.5 -11.5t82.5 -23.5l28 -12
l-30 -190h-83z" />
    <glyph glyph-name="cacute" unicode="&#x107;" horiz-adv-x="485" 
d="M534 741l-52 104l-249 -172l46 -73zM400 151l43 -79q-120 -82 -228 -82q-87 0 -137 50t-50 143q0 166 86 266.5t224 100.5q66 0 155 -40l-25 -158h-88l-5 70q-20 9 -53 9q-48 0 -82 -35.5t-49 -85.5t-15 -107q0 -43 22 -68t60 -25q52 0 142 41z" />
    <glyph glyph-name="Ccircumflex" unicode="&#x108;" horiz-adv-x="645" 
d="M258 807l172 137l87 7l130 -144l-56 -65l-127 100l-164 -100zM552 480l-13 94q-54 18 -108 18q-67 0 -117 -47.5t-73.5 -117.5t-23.5 -150q0 -74 36.5 -117.5t95.5 -43.5q96 0 196 70l53 -84q-135 -115 -282 -115q-119 0 -190 71t-71 191q0 206 110 337t283 131
q52 0 106.5 -11.5t82.5 -23.5l28 -12l-30 -190h-83z" />
    <glyph glyph-name="ccircumflex" unicode="&#x109;" horiz-adv-x="485" 
d="M151 684l172 137l87 7l130 -144l-56 -65l-127 100l-164 -100zM399 146l44 -74q-118 -82 -218 -82q-91 0 -144 49.5t-53 143.5q0 166 86 266.5t224 100.5q66 0 155 -40l-27 -158h-88l-3 74q-20 9 -53 9q-70 0 -108 -72t-38 -163q0 -45 22 -70t60 -25q51 0 141 41z" />
    <glyph glyph-name="Cdotaccent" unicode="&#x10a;" horiz-adv-x="645" 
d="M400 829q0 37 24 66.5t62 29.5q60 0 60 -60q0 -43 -26 -69.5t-60 -26.5q-60 0 -60 60zM552 480l-13 94q-54 18 -108 18q-67 0 -117 -47.5t-73.5 -117.5t-23.5 -150q0 -74 36.5 -117.5t95.5 -43.5q96 0 196 70l53 -84q-135 -115 -282 -115q-119 0 -190 71t-71 191
q0 206 110 337t283 131q52 0 106.5 -11.5t82.5 -23.5l28 -12l-30 -190h-83z" />
    <glyph glyph-name="cdotaccent" unicode="&#x10b;" horiz-adv-x="485" 
d="M290 680q0 37 24 66.5t62 29.5q60 0 60 -60q0 -43 -26 -69.5t-60 -26.5q-60 0 -60 60zM400 151l43 -79q-120 -82 -228 -82q-87 0 -137 50t-50 143q0 166 86 266.5t224 100.5q66 0 155 -40l-25 -158h-88l-5 70q-20 9 -53 9q-48 0 -82 -35.5t-49 -85.5t-15 -107
q0 -43 22 -68t60 -25q52 0 142 41z" />
    <glyph glyph-name="Ccaron" unicode="&#x10c;" horiz-adv-x="645" 
d="M648 885l-159 -127l-87 -8l-125 134l65 60l114 -93l151 93zM552 480l-13 94q-54 18 -108 18q-67 0 -117 -47.5t-73.5 -117.5t-23.5 -150q0 -74 36.5 -117.5t95.5 -43.5q96 0 196 70l53 -84q-135 -115 -282 -115q-119 0 -190 71t-71 191q0 206 110 337t283 131
q52 0 106.5 -11.5t82.5 -23.5l28 -12l-30 -190h-83z" />
    <glyph glyph-name="ccaron" unicode="&#x10d;" horiz-adv-x="485" 
d="M570 766l-176 -154l-83 -7l-138 162l62 57l124 -118l173 119zM400 151l43 -79q-120 -82 -228 -82q-87 0 -137 50t-50 143q0 166 86 266.5t224 100.5q66 0 155 -40l-25 -158h-88l-5 70q-20 9 -53 9q-48 0 -82 -35.5t-49 -85.5t-15 -107q0 -43 22 -68t60 -25q52 0 142 41z
" />
    <glyph glyph-name="Dcaron" unicode="&#x10e;" horiz-adv-x="711" 
d="M614 885l-159 -127l-87 -8l-125 134l65 60l114 -93l151 93zM336 705h93q119 0 188 -64.5t69 -185.5q0 -216 -109.5 -335.5t-292.5 -119.5h-282l14 87l78 24l75 477l-69 29l13 83zM242 117h65q72 0 123.5 48t75 121.5t23.5 162.5q0 60 -30.5 99t-89.5 39h-92z" />
    <glyph glyph-name="dcaron" unicode="&#x10f;" horiz-adv-x="736" 
d="M702 510l-69 28q56 114 70 237l129 5q-9 -56 -47.5 -132.5t-82.5 -137.5zM558 5l-209 -5l37 148q-5 -11 -18.5 -30t-41.5 -51.5t-69 -54.5t-85 -22q-65 0 -103 51t-38 130q0 177 90 278t215 101q21 0 42.5 -5t33.5 -9l11 -5l23 136l-77 20l12 80l222 8l-108 -671l76 -15z
M393 347l14 83q-28 12 -70 12q-73 0 -115.5 -74.5t-42.5 -175.5q0 -40 13 -62.5t36 -22.5q28 0 55.5 24.5t46 60t33.5 71t23 59.5z" />
    <glyph glyph-name="Dcroat" unicode="&#x110;" horiz-adv-x="720" 
d="M335 705h96q120 0 189.5 -64.5t69.5 -185.5q0 -216 -110 -335.5t-293 -119.5h-285l14 87l76 25l32 198h-73l18 110h72l27 168l-68 29l13 83zM241 117h68q72 0 124 48t76 121.5t24 162.5q0 138 -121 138h-96l-27 -167h118l-15 -110h-120z" />
    <glyph glyph-name="dcroat" unicode="&#x111;" horiz-adv-x="610" 
d="M443 649l3 18l-77 20l12 80l222 8l-20 -126h82l-14 -80h-81l-75 -465l76 -15l-13 -84l-209 -5l37 148q-5 -11 -18.5 -30t-41.5 -51.5t-69 -54.5t-85 -22q-65 0 -103 51t-38 130q0 177 90 278t215 101q21 0 42.5 -5t33.5 -9l11 -5l6 38h-99l14 80h99zM393 347l14 83
q-28 12 -70 12q-73 0 -115.5 -74.5t-42.5 -175.5q0 -40 13 -62.5t36 -22.5q28 0 55.5 24.5t46 60t33.5 71t23 59.5z" />
    <glyph glyph-name="Emacron" unicode="&#x112;" horiz-adv-x="609" 
d="M561 901l-18 -105h-291l18 105h291zM295 420h197l-17 -110h-198l-30 -193h175l36 84h90l-33 -201h-508l14 87l78 24l75 477l-69 29l13 83l223 5h273l-31 -193h-80l-13 75h-168z" />
    <glyph glyph-name="emacron" unicode="&#x113;" horiz-adv-x="517" 
d="M480 747l-18 -105h-291l18 105h291zM418 141l42 -74q-36 -25 -101 -51t-134 -26q-91 0 -145 49t-54 136q0 163 88 269t213 106q88 0 139 -38.5t51 -104.5q0 -86 -91.5 -139.5t-253.5 -54.5q0 -62 23 -85t71 -23q20 0 46.5 5t42.5 10t39 13zM372 389q0 48 -57 48
q-44 0 -80 -38t-51 -98q91 2 139.5 27t48.5 61z" />
    <glyph glyph-name="Ebreve" unicode="&#x114;" horiz-adv-x="609" 
d="M283 930l85 9q0 -24 15 -48.5t50 -24.5q29 0 49.5 16t26.5 32l6 17l85 6q-13 -82 -68.5 -128t-124.5 -46q-57 0 -92 35t-35 94q0 11 3 38zM297 420h197l-17 -110h-198l-30 -190h175l36 81h90l-33 -201h-510l14 87l78 24l75 477l-69 29l13 83l225 5h273l-31 -193h-80
l-13 73h-168z" />
    <glyph glyph-name="ebreve" unicode="&#x115;" horiz-adv-x="522" 
d="M222 779l85 9q0 -24 15 -48.5t50 -24.5q29 0 49.5 16.5t26.5 32.5l6 16l85 6q-13 -82 -68.5 -128t-124.5 -46q-57 0 -92 35t-35 94q0 11 3 38zM418 141l42 -74q-36 -25 -101 -51t-134 -26q-91 0 -145 49t-54 136q0 163 88 269t213 106q88 0 139 -38.5t51 -104.5
q0 -86 -91.5 -139.5t-253.5 -54.5q0 -62 23 -85t71 -23q20 0 46.5 5t42.5 10t39 13zM372 389q0 48 -57 48q-44 0 -80 -38t-51 -98q91 2 139.5 27t48.5 61z" />
    <glyph glyph-name="Edotaccent" unicode="&#x116;" horiz-adv-x="611" 
d="M350 829q0 37 24 66.5t62 29.5q60 0 60 -60q0 -43 -26 -69.5t-60 -26.5q-60 0 -60 60zM297 420h197l-17 -110h-198l-30 -190h175l36 81h90l-33 -201h-510l14 87l78 24l75 477l-69 29l13 83l225 5h273l-31 -193h-80l-13 73h-168z" />
    <glyph glyph-name="edotaccent" unicode="&#x117;" horiz-adv-x="522" 
d="M305 680q0 37 24 66.5t62 29.5q60 0 60 -60q0 -43 -26 -69.5t-60 -26.5q-60 0 -60 60zM418 141l42 -74q-36 -25 -101 -51t-134 -26q-91 0 -145 49t-54 136q0 163 88 269t213 106q88 0 139 -38.5t51 -104.5q0 -86 -91.5 -139.5t-253.5 -54.5q0 -62 23 -85t71 -23
q20 0 46.5 5t42.5 10t39 13zM372 389q0 48 -57 48q-44 0 -80 -38t-51 -98q91 2 139.5 27t48.5 61z" />
    <glyph glyph-name="Eogonek" unicode="&#x118;" horiz-adv-x="609" 
d="M295 420h197l-17 -110h-198l-30 -193h175l36 84h90l-33 -201q-3 0 -31.5 -18t-59 -47.5t-30.5 -51.5q0 -14 9 -22t25 -8l40 7l5 -71q-53 -24 -102 -24q-41 0 -67 22t-26 61q0 87 125 152h-396l14 87l78 24l75 477l-69 29l13 83l223 5h273l-31 -193h-80l-13 75h-168z" />
    <glyph glyph-name="eogonek" unicode="&#x119;" horiz-adv-x="517" 
d="M348 -140l5 -71q-53 -24 -102 -24q-41 0 -67 22t-26 61q0 73 99 144q-20 -2 -32 -2q-91 0 -145 49t-54 136q0 163 88 269t213 106q88 0 139 -38.5t51 -104.5q0 -86 -91.5 -139.5t-253.5 -54.5q0 -62 23 -85t71 -23q20 0 46.5 5t42.5 10t39 13l24 8l42 -74l-11 -7
q-32 -22 -64.5 -47t-71.5 -65.5t-39 -64.5q0 -14 9 -22t25 -8zM184 301q91 2 139.5 27t48.5 61q0 48 -57 48q-44 0 -80 -38t-51 -98z" />
    <glyph glyph-name="Ecaron" unicode="&#x11a;" horiz-adv-x="611" 
d="M597 885l-159 -127l-87 -8l-125 134l65 60l114 -93l151 93zM297 420h197l-17 -110h-198l-30 -190h175l36 81h90l-33 -201h-510l14 87l78 24l75 477l-69 29l13 83l225 5h273l-31 -193h-80l-13 73h-168z" />
    <glyph glyph-name="ecaron" unicode="&#x11b;" horiz-adv-x="522" 
d="M573 766l-176 -154l-83 -7l-138 162l62 57l124 -118l173 119zM418 141l42 -74q-36 -25 -101 -51t-134 -26q-91 0 -145 49t-54 136q0 163 88 269t213 106q88 0 139 -38.5t51 -104.5q0 -86 -91.5 -139.5t-253.5 -54.5q0 -62 23 -85t71 -23q20 0 46.5 5t42.5 10t39 13z
M372 389q0 48 -57 48q-44 0 -80 -38t-51 -98q91 2 139.5 27t48.5 61z" />
    <glyph glyph-name="Gcircumflex" unicode="&#x11c;" horiz-adv-x="716" 
d="M258 807l172 137l87 7l130 -144l-56 -65l-127 100l-164 -100zM627 262l-31 -203q-127 -71 -277 -71q-121 0 -192.5 69.5t-71.5 191.5q0 206 111.5 337t284.5 131q52 0 107 -11.5t84 -23.5l29 -12l-31 -178h-83l-13 83q-55 17 -112 17q-98 0 -157.5 -94t-59.5 -221
q0 -79 39 -122t105 -43q59 0 111 19l22 131l-75 23l13 80l281 5l-13 -85z" />
    <glyph glyph-name="gcircumflex" unicode="&#x11d;" horiz-adv-x="589" 
d="M172 684l172 137l87 7l130 -144l-56 -65l-127 100l-164 -100zM12 -203l33 98q94 -34 161 -34q63 0 97 31t47 93l35 166q-80 -134 -176 -157q-18 -4 -35 -4q-64 0 -104 49.5t-40 126.5q0 177 90.5 280.5t212.5 103.5q31 0 60 -9t43 -19l14 -9l29 27h88l-88 -552
q-39 -240 -253 -240q-44 0 -97.5 12.5t-85 24t-31.5 12.5zM393 347l14 83q-28 12 -72 12q-69 0 -113.5 -71.5t-44.5 -179.5q0 -40 13 -62t36 -22q45 0 86.5 60t61.5 120z" />
    <glyph glyph-name="Gbreve" unicode="&#x11e;" horiz-adv-x="716" 
d="M335 930l85 9q0 -24 15 -48.5t50 -24.5q29 0 49.5 16t26.5 32l6 17l85 6q-13 -82 -68.5 -128t-124.5 -46q-57 0 -92 35t-35 94q0 11 3 38zM627 262l-31 -203q-127 -71 -277 -71q-121 0 -192.5 69.5t-71.5 191.5q0 206 111.5 337t284.5 131q52 0 107 -11.5t84 -23.5
l29 -12l-31 -178h-83l-13 83q-55 17 -112 17q-98 0 -157.5 -94t-59.5 -221q0 -79 39 -122t105 -43q59 0 111 19l22 131l-75 23l13 80l281 5l-13 -85z" />
    <glyph glyph-name="gbreve" unicode="&#x11f;" horiz-adv-x="589" 
d="M230 779l85 9q0 -24 15 -48.5t50 -24.5q29 0 49.5 16.5t26.5 32.5l6 16l85 6q-13 -82 -68.5 -128t-124.5 -46q-57 0 -92 35t-35 94q0 11 3 38zM12 -203l33 98q94 -34 161 -34q63 0 97 31t47 93l35 166q-80 -134 -176 -157q-18 -4 -35 -4q-64 0 -104 49.5t-40 126.5
q0 177 90.5 280.5t212.5 103.5q31 0 60 -9t43 -19l14 -9l29 27h88l-88 -552q-39 -240 -253 -240q-44 0 -97.5 12.5t-85 24t-31.5 12.5zM393 347l14 83q-28 12 -72 12q-69 0 -113.5 -71.5t-44.5 -179.5q0 -40 13 -62t36 -22q45 0 86.5 60t61.5 120z" />
    <glyph glyph-name="Gdotaccent" unicode="&#x120;" horiz-adv-x="716" 
d="M395 829q0 37 24 66.5t62 29.5q60 0 60 -60q0 -43 -26 -69.5t-60 -26.5q-60 0 -60 60zM627 262l-31 -203q-127 -71 -277 -71q-121 0 -192.5 69.5t-71.5 191.5q0 206 111.5 337t284.5 131q52 0 107 -11.5t84 -23.5l29 -12l-31 -178h-83l-13 83q-55 17 -112 17
q-98 0 -157.5 -94t-59.5 -221q0 -79 39 -122t105 -43q59 0 111 19l22 131l-75 23l13 80l281 5l-13 -85z" />
    <glyph glyph-name="gdotaccent" unicode="&#x121;" horiz-adv-x="589" 
d="M297 680q0 37 24 66.5t62 29.5q60 0 60 -60q0 -43 -26 -69.5t-60 -26.5q-60 0 -60 60zM12 -203l33 98q94 -34 161 -34q63 0 97 31t47 93l35 166q-80 -134 -176 -157q-18 -4 -35 -4q-64 0 -104 49.5t-40 126.5q0 177 90.5 280.5t212.5 103.5q31 0 60 -9t43 -19l14 -9
l29 27h88l-88 -552q-39 -240 -253 -240q-44 0 -97.5 12.5t-85 24t-31.5 12.5zM393 347l14 83q-28 12 -72 12q-69 0 -113.5 -71.5t-44.5 -179.5q0 -40 13 -62t36 -22q45 0 86.5 60t61.5 120z" />
    <glyph glyph-name="Gcommaaccent" unicode="&#x122;" horiz-adv-x="716" 
d="M627 262l-31 -203q-127 -71 -277 -71q-121 0 -192.5 69.5t-71.5 191.5q0 206 111.5 337t284.5 131q52 0 107 -11.5t84 -23.5l29 -12l-31 -178h-83l-13 83q-55 17 -112 17q-98 0 -157.5 -94t-59.5 -221q0 -79 39 -122t105 -43q59 0 111 19l22 131l-75 23l13 80l281 5
l-13 -85zM262 -329l-50 53q2 2 11 10t11.5 10.5l10 10t9.5 11t7 10t7 11.5t3.5 11.5t1.5 12.5q0 8 -6 26t-6 33q0 36 23.5 58t55.5 22q60 0 60 -65q0 -90 -138 -214z" />
    <glyph glyph-name="gcommaaccent" unicode="&#x123;" horiz-adv-x="589" 
d="M346 583l-50 53q2 2 11 10t11.5 10.5l10 10t9.5 11t7 10t7 11.5t3.5 11.5t1.5 12.5q0 8 -6 26t-6 33q0 36 23.5 58t55.5 22q60 0 60 -65q0 -90 -138 -214zM12 -203l33 98q94 -34 161 -34q63 0 97 31t47 93l35 166q-80 -134 -176 -157q-18 -4 -35 -4q-64 0 -104 49.5
t-40 126.5q0 177 90.5 280.5t212.5 103.5q31 0 60 -9t43 -19l14 -9l29 27h88l-88 -552q-39 -240 -253 -240q-44 0 -97.5 12.5t-85 24t-31.5 12.5zM393 347l14 83q-28 12 -72 12q-69 0 -113.5 -71.5t-44.5 -179.5q0 -40 13 -62t36 -22q45 0 86.5 60t61.5 120z" />
    <glyph glyph-name="Hcircumflex" unicode="&#x124;" horiz-adv-x="777" 
d="M270 807l172 137l87 7l130 -144l-56 -65l-127 100l-164 -100zM694 0h-296l14 87l78 24l31 194h-255l-31 -194l70 -24l-14 -87h-294l14 87l77 24l76 477l-69 29l13 83l295 5l-14 -88l-78 -30l-27 -165h255l27 166l-71 29l13 83l297 5l-14 -88l-78 -30l-76 -476l71 -24z
" />
    <glyph glyph-name="hcircumflex" unicode="&#x125;" horiz-adv-x="632" 
d="M44 857l172 137l87 7l130 -144l-56 -65l-127 100l-164 -100zM311 775l-70 -395q4 10 18 32t41 56t69 58t87 24q109 0 109 -121q0 -24 -5 -59l-42 -265l75 -15l-13 -80l-221 -10l56 342q3 20 3 36q0 49 -38 49q-31 0 -60 -29t-49 -71.5t-33 -80t-18 -64.5l-33 -182h-141
l107 667l-77 20l13 80z" />
    <glyph glyph-name="Hbar" unicode="&#x126;" horiz-adv-x="788" 
d="M165 564l4 24l-69 29l13 83l295 5l-14 -88l-78 -30l-4 -23h255l4 24l-71 29l13 83l297 5l-14 -88l-78 -30l-4 -23h75l-14 -90h-75l-58 -363l71 -24l-14 -87h-296l14 87l78 24l31 194h-255l-31 -194l70 -24l-14 -87h-294l14 87l77 24l58 363h-74l14 90h74zM552 474h-255
l-8 -52h255z" />
    <glyph glyph-name="hbar" unicode="&#x127;" horiz-adv-x="632" 
d="M288 646h106l-12 -80h-108l-33 -186q4 10 18 32t41 56t69 58t87 24q109 0 109 -121q0 -24 -5 -59l-42 -265l75 -15l-13 -80l-221 -10l56 342q3 20 3 36q0 49 -38 49q-31 0 -60 -29t-49 -71.5t-33 -80t-18 -64.5l-33 -182h-141l91 566h-79l13 80h78l4 21l-77 20l13 80
l222 8z" />
    <glyph glyph-name="Itilde" unicode="&#x128;" horiz-adv-x="379" 
d="M105 780l-38 41q2 4 7 11.5t19.5 26t30 32.5t39 25.5t45.5 11.5q35 0 83.5 -22.5t76.5 -22.5q17 0 35 10.5t28 20.5l10 11l45 -39q-2 -4 -6.5 -11.5t-19 -26.5t-30 -33t-38 -26t-44.5 -12q-35 0 -86 22t-79 22q-18 0 -37.5 -10.5t-29.5 -20.5zM295 0h-298l14 87l78 24
l76 477l-69 29l13 83l298 5l-14 -88l-78 -30l-76 -476l70 -24z" />
    <glyph glyph-name="itilde" unicode="&#x129;" horiz-adv-x="330" 
d="M32 630l-38 46q2 4 6 11.5t17.5 26.5t28 33.5t37 26.5t44.5 12q33 0 75.5 -23t68.5 -23q17 0 34 10.5t25 21.5l9 10l45 -46q-2 -4 -6 -11.5t-18 -26.5t-28.5 -33t-36.5 -26t-44 -12q-33 0 -76.5 22t-69.5 22q-18 0 -36.5 -10.5t-27.5 -20.5zM210 105l76 -15l-13 -80
l-220 -10l68 432l-77 20l14 80l221 8z" />
    <glyph glyph-name="Imacron" unicode="&#x12a;" horiz-adv-x="378" 
d="M438 901l-18 -105h-291l18 105h291zM295 0h-298l14 87l78 24l76 477l-69 29l13 83l298 5l-14 -88l-78 -30l-76 -476l70 -24z" />
    <glyph glyph-name="imacron" unicode="&#x12b;" horiz-adv-x="325" 
d="M360 747l-18 -105h-282l18 105h282zM210 105l76 -15l-13 -80l-220 -10l68 432l-77 20l14 80l221 8z" />
    <glyph glyph-name="Ibreve" unicode="&#x12c;" horiz-adv-x="378" 
d="M139 930l85 9q0 -24 15 -48.5t50 -24.5q29 0 49.5 16t26.5 32l6 17l85 6q-13 -82 -68.5 -128t-124.5 -46q-57 0 -92 35t-35 94q0 11 3 38zM295 0h-298l14 87l78 24l76 477l-69 29l13 83l298 5l-14 -88l-78 -30l-76 -476l70 -24z" />
    <glyph glyph-name="ibreve" unicode="&#x12d;" horiz-adv-x="330" 
d="M60 779l85 9q0 -24 15 -48.5t50 -24.5q29 0 49.5 16.5t26.5 32.5l6 16l85 6q-13 -82 -68.5 -128t-124.5 -46q-57 0 -92 35t-35 94q0 11 3 38zM210 105l76 -15l-13 -80l-220 -10l68 432l-77 20l14 80l221 8z" />
    <glyph glyph-name="Iogonek" unicode="&#x12e;" horiz-adv-x="378" 
d="M309 87l-14 -87q-13 -5 -44.5 -20.5t-70.5 -45t-39 -51.5q0 -14 9 -22t25 -8l40 7l5 -71q-53 -24 -102 -24q-41 0 -67 22t-26 61q0 85 134 152h-162l14 87l78 24l76 477l-69 29l13 83l298 5l-14 -88l-78 -30l-76 -476z" />
    <glyph glyph-name="iogonek" unicode="&#x12f;" horiz-adv-x="330" 
d="M143 685q0 46 26.5 78t68.5 32q31 0 50 -18t19 -52q0 -47 -26 -79.5t-67 -32.5q-32 0 -51.5 18.5t-19.5 53.5zM210 105l76 -15l-13 -80q-137 -78 -137 -127q0 -14 9 -22t25 -8l40 7l5 -71q-53 -24 -102 -24q-41 0 -67 22t-26 61q0 29 14.5 56.5t37.5 47t41 31.5t35 21
l-95 -4l68 432l-77 20l14 80l221 8z" />
    <glyph glyph-name="Idotaccent" unicode="&#x130;" horiz-adv-x="378" 
d="M210 829q0 37 24 66.5t62 29.5q60 0 60 -60q0 -43 -26 -69.5t-60 -26.5q-60 0 -60 60zM295 0h-298l14 87l78 24l76 477l-69 29l13 83l298 5l-14 -88l-78 -30l-76 -476l70 -24z" />
    <glyph glyph-name="dotlessi" unicode="&#x131;" horiz-adv-x="330" 
d="M210 105l76 -15l-13 -80l-220 -10l68 432l-77 20l14 80l221 8z" />
    <glyph glyph-name="IJ" unicode="&#x132;" horiz-adv-x="709" 
d="M744 617l-78 -30l-78 -485q-22 -135 -79.5 -197t-179.5 -62l-73 7l29 100h47q41 0 67 25t33 71l86 542l-105 29l-98 -30l-76 -476l65 -24l-14 -87h-293l14 87l78 24l76 477l-69 29l13 83l308 5h341z" />
    <glyph glyph-name="ij" unicode="&#x133;" horiz-adv-x="635" 
d="M138 685q0 46 26.5 78t68.5 32q31 0 50 -18t19 -52q0 -47 -26 -79.5t-67 -32.5q-33 0 -52 18.5t-19 53.5zM475 685q0 46 26.5 78t68.5 32q32 0 51 -18t19 -52q0 -47 -26 -79.5t-68 -32.5q-32 0 -51.5 18.5t-19.5 53.5zM376 452l14 80l222 8l-94 -583q-15 -95 -72 -148.5
t-149 -53.5q-19 0 -44 3.5t-41 7.5l-15 4l20 88q3 0 25 -1.5t38 -1.5q50 0 69.5 27.5t32.5 101.5l31 181q-2 -3 -13.5 -20.5t-21 -29.5t-26 -32t-34 -34t-39 -28t-47.5 -21.5t-54 -7.5q-109 0 -109 121q0 24 5 59l42 260l-77 20l15 80l221 10l-56 -342q-3 -20 -3 -36
q0 -49 38 -49q56 0 115 80.5t69 136.5l16 100z" />
    <glyph glyph-name="Jcircumflex" unicode="&#x134;" horiz-adv-x="369" 
d="M99 807l160 137l87 7l118 -144l-56 -65l-115 100l-152 -100zM325 587l-78 -485q-22 -134 -80.5 -196.5t-180.5 -62.5l-73 7l29 100h47q41 0 67 25t33 71l86 542l-69 29l13 83l298 5l-14 -88z" />
    <glyph glyph-name="jcircumflex" unicode="&#x135;" horiz-adv-x="329" 
d="M5 684l172 137l87 7l130 -144l-56 -65l-127 100l-164 -100zM62 532l222 8l-94 -583q-15 -95 -72 -148.5t-149 -53.5q-19 0 -44 3.5t-41 7.5l-15 4l20 88q3 0 25 -1.5t38 -1.5q51 0 70.5 28t31.5 101l72 448l-78 20z" />
    <glyph glyph-name="Kcommaaccent" unicode="&#x136;" horiz-adv-x="670" 
d="M657 0h-286l14 87l57 21l-103 197h-72l-31 -194l68 -24l-14 -87h-293l14 87l78 24l75 477l-69 29l13 83l294 5l-14 -88l-77 -29l-27 -173h65l208 285l165 5l-14 -88l-76 -30l-169 -220l142 -257l66 -23zM230 -329l-50 53q2 2 11 10t11.5 10.5l10 10t9.5 11t7 10t7 11.5
t3.5 11.5t1.5 12.5q0 8 -6 26t-6 33q0 36 23.5 58t55.5 22q60 0 60 -65q0 -90 -138 -214z" />
    <glyph glyph-name="kcommaaccent" unicode="&#x137;" horiz-adv-x="544" 
d="M240 335h59l91 110l-41 12l13 78l233 5l-14 -83l-59 -13l-126 -151q14 -17 30 -61l47 -128l76 -24l-13 -80h-168l-59 172q-15 44 -24.5 58.5t-28.5 14.5h-30l-39 -245h-141l107 667l-77 20l13 80l222 8zM194 -329l-50 53q2 2 11 10t11.5 10.5l10 10t9.5 11t7 10t7 11.5
t3.5 11.5t1.5 12.5q0 8 -6 26t-6 33q0 36 23.5 58t55.5 22q60 0 60 -65q0 -90 -138 -214z" />
    <glyph glyph-name="kgreenlandic" unicode="&#x138;" horiz-adv-x="560" 
d="M252 339h65l82 102l-40 14l12 80l238 5l-13 -85l-65 -12l-118 -137l83 -203l72 -23l-11 -80h-173l-88 244h-59l-40 -244h-144l69 433l-78 19l14 81l227 9z" />
    <glyph glyph-name="Lacute" unicode="&#x139;" horiz-adv-x="529" 
d="M191 738l-38 80l245 130l53 -104zM386 120l40 110h92l-38 -230h-488l14 87l78 24l75 477l-69 29l13 83l301 5l-14 -88l-81 -29l-75 -468h152z" />
    <glyph glyph-name="lacute" unicode="&#x13a;" horiz-adv-x="321" 
d="M148 788l-38 80l245 130l53 -104zM206 105l76 -15l-13 -80l-223 -10l107 667l-77 20l13 80l224 8z" />
    <glyph glyph-name="Lcommaaccent" unicode="&#x13b;" horiz-adv-x="527" 
d="M384 117l40 113h92l-38 -230h-486l14 87l78 24l75 477l-69 29l13 83l299 5l-14 -88l-81 -29l-75 -471h152zM156 -329l-50 53q2 2 11 10t11.5 10.5l10 10t9.5 11t7 10t7 11.5t3.5 11.5t1.5 12.5q0 8 -6 26t-6 33q0 36 23.5 58t55.5 22q60 0 60 -65q0 -90 -138 -214z" />
    <glyph glyph-name="lcommaaccent" unicode="&#x13c;" horiz-adv-x="321" 
d="M206 105l76 -15l-13 -80l-223 -10l107 667l-77 20l13 80l224 8zM44 -329l-50 53q2 2 11 10t11.5 10.5l10 10t9.5 11t7 10t7 11.5t3.5 11.5t1.5 12.5q0 8 -6 26t-6 33q0 36 23.5 58t55.5 22q60 0 60 -65q0 -90 -138 -214z" />
    <glyph glyph-name="Lcaron" unicode="&#x13d;" horiz-adv-x="554" 
d="M386 120l40 110h92l-38 -230h-488l14 87l78 24l75 477l-69 29l13 83l301 5l-14 -88l-81 -29l-75 -468h152zM483 435l-69 28q56 114 70 237l129 5q-9 -56 -47.5 -132.5t-82.5 -137.5z" />
    <glyph glyph-name="lcaron" unicode="&#x13e;" horiz-adv-x="439" 
d="M400 510l-69 28q56 114 70 237l129 5q-9 -56 -47.5 -132.5t-82.5 -137.5zM206 105l76 -15l-13 -80l-223 -10l107 667l-77 20l13 80l224 8z" />
    <glyph glyph-name="Ldot" unicode="&#x13f;" horiz-adv-x="527" 
d="M384 117l40 113h92l-38 -230h-486l14 87l78 24l75 477l-69 29l13 83l299 5l-14 -88l-81 -29l-75 -471h152zM340 356q0 49 25.5 81.5t74.5 32.5q34 0 55 -20t21 -54q0 -48 -26.5 -81t-75.5 -33q-34 0 -54 20t-20 54z" />
    <glyph glyph-name="ldot" unicode="&#x140;" horiz-adv-x="486" 
d="M206 105l76 -15l-13 -80l-223 -10l107 667l-77 20l13 80l224 8zM308 292q0 49 25.5 81.5t74.5 32.5q34 0 55 -20t21 -54q0 -48 -26.5 -81t-75.5 -33q-34 0 -54 20t-20 54z" />
    <glyph glyph-name="Lslash" unicode="&#x141;" horiz-adv-x="556" 
d="M453 482l11 -95l-176 -71l-32 -199h152l40 113h92l-38 -230h-486l14 87l78 24l22 143l-93 -37l-11 95l121 48l36 228l-69 29l13 83l299 5l-14 -88l-81 -29l-26 -165z" />
    <glyph glyph-name="lslash" unicode="&#x142;" horiz-adv-x="347" 
d="M215 105l76 -15l-13 -80l-223 -10l46 285l-97 -39l-11 100l126 51l43 270l-77 20l13 80l224 8l-51 -316l103 41l11 -100l-131 -53z" />
    <glyph glyph-name="Nacute" unicode="&#x143;" horiz-adv-x="767" 
d="M432 738l-38 80l245 130l53 -104zM-8 0l14 87l78 24l75 477l-69 29l13 83l232 5l191 -466l55 349l-65 29l13 83l277 5l-14 -88l-77 -29l-93 -588h-155l-193 464l-57 -353l67 -24l-14 -87h-278z" />
    <glyph glyph-name="nacute" unicode="&#x144;" horiz-adv-x="648" 
d="M605 741l-52 104l-249 -172l46 -73zM282 540l-34 -160q4 9 12 22t29.5 41.5t45 50t59.5 39t73 17.5q57 0 86 -33t29 -89q0 -25 -5 -58l-46 -265l78 -15l-13 -80l-226 -10l55 340q4 26 4 36q0 49 -38 49q-40 0 -79.5 -54t-61 -111t-25.5 -89l-29 -171h-144l69 432l-77 20
l13 80z" />
    <glyph glyph-name="Ncommaaccent" unicode="&#x145;" horiz-adv-x="767" 
d="M-8 0l14 87l78 24l75 477l-69 29l13 83l232 5l191 -466l55 349l-65 29l13 83l277 5l-14 -88l-77 -29l-93 -588h-155l-193 464l-57 -353l67 -24l-14 -87h-278zM258 -329l-50 53q2 2 11 10t11.5 10.5l10 10t9.5 11t7 10t7 11.5t3.5 11.5t1.5 12.5q0 8 -6 26t-6 33
q0 36 23.5 58t55.5 22q60 0 60 -65q0 -90 -138 -214z" />
    <glyph glyph-name="ncommaaccent" unicode="&#x146;" 
d="M279 540l-34 -160q4 9 12 22t29.5 41.5t45 50t59.5 39t73 17.5q110 0 110 -122q0 -25 -5 -58l-43 -265l75 -15l-13 -80l-221 -10l55 342q4 26 4 36q0 49 -38 49q-40 0 -80 -54.5t-61 -112t-25 -89.5l-29 -171h-141l69 432l-77 20l13 80zM192 -329l-50 53q2 2 11 10
t11.5 10.5l10 10t9.5 11t7 10t7 11.5t3.5 11.5t1.5 12.5q0 8 -6 26t-6 33q0 36 23.5 58t55.5 22q60 0 60 -65q0 -90 -138 -214z" />
    <glyph glyph-name="Ncaron" unicode="&#x147;" horiz-adv-x="767" 
d="M686 885l-159 -127l-87 -8l-125 134l65 60l114 -93l151 93zM-8 0l14 87l78 24l75 477l-69 29l13 83l232 5l191 -466l55 349l-65 29l13 83l277 5l-14 -88l-77 -29l-93 -588h-155l-193 464l-57 -353l67 -24l-14 -87h-278z" />
    <glyph glyph-name="ncaron" unicode="&#x148;" horiz-adv-x="648" 
d="M622 766l-176 -154l-83 -7l-138 162l62 57l124 -118l173 119zM282 540l-34 -160q4 9 12 22t29.5 41.5t45 50t59.5 39t73 17.5q57 0 86 -33t29 -89q0 -25 -5 -58l-46 -265l78 -15l-13 -80l-226 -10l55 340q4 26 4 36q0 49 -38 49q-40 0 -79.5 -54t-61 -111t-25.5 -89
l-29 -171h-144l69 432l-77 20l13 80z" />
    <glyph glyph-name="napostrophe" unicode="&#x149;" horiz-adv-x="656" 
d="M76 573l-50 53q2 2 11 10t11.5 10.5l10 10t9.5 11t7 10t7 11.5t3.5 11.5t1.5 12.5q0 8 -6 26t-6 33q0 36 23.5 58t55.5 22q60 0 60 -65q0 -90 -138 -214zM295 540l-34 -160q4 9 12 22t29.5 41.5t45 50t59.5 39t73 17.5q110 0 110 -122q0 -25 -5 -58l-43 -265l75 -15
l-13 -80l-221 -10l55 342q4 26 4 36q0 49 -38 49q-31 0 -61.5 -32t-51.5 -77t-35 -84.5t-18 -62.5l-29 -171h-141l69 432l-77 20l13 80z" />
    <glyph glyph-name="Eng" unicode="&#x14a;" horiz-adv-x="767" 
d="M-8 0l14 87l78 24l75 477l-69 29l13 83l232 5l191 -466l55 349l-65 29l13 83l277 5l-14 -88l-77 -29l-78 -486q-22 -135 -79.5 -197t-178.5 -62l-69 7l29 100h51q61 0 88 50l-204 464l-57 -353l67 -24l-14 -87h-278z" />
    <glyph glyph-name="eng" unicode="&#x14b;" horiz-adv-x="643" 
d="M366 -16l55 342q5 32 5 52q0 49 -38 49q-40 0 -80 -54.5t-61 -112t-25 -89.5l-29 -171h-141l69 432l-77 20l13 80l222 8l-34 -160q4 9 12 22t29.5 41.5t45 50t59.5 39t73 17.5q110 0 110 -122q0 -25 -5 -58l-67 -413q-15 -95 -72 -148.5t-149 -53.5q-19 0 -44 3.5
t-41 7.5l-15 4l20 88q3 0 25 -1.5t38 -1.5q49 0 69.5 28.5t32.5 100.5z" />
    <glyph glyph-name="Omacron" unicode="&#x14c;" horiz-adv-x="732" 
d="M625 901l-18 -105h-291l18 105h291zM306 -13q-120 0 -186 67t-66 192q0 129 46 235t136.5 171t207.5 65q123 0 191.5 -69.5t68.5 -192.5q0 -197 -111 -332.5t-287 -135.5zM544 449q0 143 -120 143q-67 0 -117 -56.5t-71.5 -130t-21.5 -147.5q0 -71 29.5 -108.5
t87.5 -37.5q66 0 116.5 55.5t73.5 130.5t23 151z" />
    <glyph glyph-name="omacron" unicode="&#x14d;" horiz-adv-x="574" 
d="M517 747l-18 -105h-291l18 105h291zM232 -10q-98 0 -151 50.5t-53 144.5q0 164 86.5 264.5t225.5 100.5q99 0 152.5 -52t53.5 -144q0 -164 -87 -264t-227 -100zM398 345q0 90 -79 90q-63 0 -103 -70.5t-40 -169.5q0 -90 77 -90q64 0 104.5 68.5t40.5 171.5z" />
    <glyph glyph-name="Obreve" unicode="&#x14e;" horiz-adv-x="732" 
d="M345 930l85 9q0 -24 15 -48.5t50 -24.5q29 0 49.5 16t26.5 32l6 17l85 6q-13 -82 -68.5 -128t-124.5 -46q-57 0 -92 35t-35 94q0 11 3 38zM306 -13q-120 0 -186 67t-66 192q0 129 46 235t136.5 171t207.5 65q123 0 191.5 -69.5t68.5 -192.5q0 -197 -111 -332.5
t-287 -135.5zM544 449q0 143 -120 143q-67 0 -117 -56.5t-71.5 -130t-21.5 -147.5q0 -71 29.5 -108.5t87.5 -37.5q66 0 116.5 55.5t73.5 130.5t23 151z" />
    <glyph glyph-name="obreve" unicode="&#x14f;" horiz-adv-x="579" 
d="M227 779l85 9q0 -24 15 -48.5t50 -24.5q29 0 49.5 16.5t26.5 32.5l6 16l85 6q-13 -82 -68.5 -128t-124.5 -46q-57 0 -92 35t-35 94q0 11 3 38zM244 -10q-102 0 -158 55t-56 155q0 159 83 254.5t219 95.5q103 0 159.5 -56.5t56.5 -154.5q0 -158 -84 -253.5t-220 -95.5z
M398 345q-3 85 -83 85q-61 0 -98 -64t-37 -158q0 -98 81 -98q38 0 66.5 22.5t43 59t21 75t6.5 78.5z" />
    <glyph glyph-name="Ohungarumlaut" unicode="&#x150;" horiz-adv-x="732" 
d="M306 -13q-120 0 -186 67t-66 192q0 129 46 235t136.5 171t207.5 65q123 0 191.5 -69.5t68.5 -192.5q0 -197 -111 -332.5t-287 -135.5zM544 449q0 143 -120 143q-67 0 -117 -56.5t-71.5 -130t-21.5 -147.5q0 -71 29.5 -108.5t87.5 -37.5q66 0 116.5 55.5t73.5 130.5
t23 151zM290 788l181 191l66 -80l-188 -164zM499 788l181 191l68 -83l-190 -161z" />
    <glyph glyph-name="ohungarumlaut" unicode="&#x151;" horiz-adv-x="579" 
d="M244 -10q-102 0 -158 55t-56 155q0 159 83 254.5t219 95.5q103 0 159.5 -56.5t56.5 -154.5q0 -158 -84 -253.5t-220 -95.5zM398 345q-3 85 -83 85q-61 0 -98 -64t-37 -158q0 -98 81 -98q38 0 66.5 22.5t43 59t21 75t6.5 78.5zM182 655l181 191l66 -80l-188 -164zM391 655
l181 191l68 -83l-190 -161z" />
    <glyph glyph-name="OE" unicode="&#x152;" horiz-adv-x="930" 
d="M813 420l-17 -110h-198l-30 -193h175l36 84h90l-33 -201h-311q-27 0 -100 -6t-115 -6q-117 0 -186 69.5t-69 191.5q0 209 108.5 338t273.5 129q32 0 89 -5.5t79 -5.5h330l-31 -193h-80l-13 75h-168l-27 -167h197zM420 117l74 470q-29 5 -64 5q-93 0 -155 -89t-62 -251
q0 -70 34 -105t95 -35z" />
    <glyph glyph-name="oe" unicode="&#x153;" horiz-adv-x="876" 
d="M772 141l42 -74q-21 -14 -49.5 -29.5t-81.5 -31.5t-102 -16q-108 0 -155 79q-79 -77 -192 -77q-99 0 -152.5 48.5t-53.5 144.5q0 164 85.5 264.5t223.5 100.5q115 0 167 -82q79 82 184 82q84 0 133.5 -39t49.5 -104q0 -87 -89.5 -138.5t-252.5 -52.5q0 -111 93 -111
q17 0 35.5 3t37 8t31.5 9t28.5 9.5t17.5 6.5zM669 437q-43 0 -78 -37t-51 -96q92 2 138.5 24.5t46.5 60.5q0 48 -56 48zM318 435q-63 -1 -102.5 -71t-39.5 -169q0 -90 76 -90q64 0 104 68.5t40 171.5q0 90 -78 90z" />
    <glyph glyph-name="Racute" unicode="&#x154;" horiz-adv-x="655" 
d="M326 738l-38 80l245 130l53 -104zM298 0h-296l14 87l78 25l75 475l-68 30l13 83l222 5h96q89 0 147 -43t58 -123q0 -85 -42 -143.5t-117 -84.5q20 -20 41 -81l39 -118l68 -25l-14 -87h-175l-54 190q-14 53 -38.5 70t-75.5 17l-26 -165l69 -25zM285 382h57q65 0 103 33
t38 95q0 38 -22.5 57.5t-62.5 19.5h-80z" />
    <glyph glyph-name="racute" unicode="&#x155;" horiz-adv-x="447" 
d="M525 741l-52 104l-249 -172l46 -73zM358 342v78q-36 -10 -79.5 -85.5t-56.5 -153.5l-29 -181h-140l69 440l-77 20l12 72l222 8l-31 -150q4 11 16 30.5t36 52t62 55t79 22.5q12 0 26 -2.5t22 -5.5l8 -2l-39 -198h-100z" />
    <glyph glyph-name="Rcommaaccent" unicode="&#x156;" horiz-adv-x="655" 
d="M298 0h-296l14 87l78 25l75 475l-68 30l13 83l222 5h96q89 0 147 -43t58 -123q0 -85 -42 -143.5t-117 -84.5q20 -20 41 -81l39 -118l68 -25l-14 -87h-175l-54 190q-14 53 -38.5 70t-75.5 17l-26 -165l69 -25zM285 382h57q65 0 103 33t38 95q0 38 -22.5 57.5t-62.5 19.5
h-80zM232 -329l-50 53q2 2 11 10t11.5 10.5l10 10t9.5 11t7 10t7 11.5t3.5 11.5t1.5 12.5q0 8 -6 26t-6 33q0 36 23.5 58t55.5 22q60 0 60 -65q0 -90 -138 -214z" />
    <glyph glyph-name="rcommaaccent" unicode="&#x157;" horiz-adv-x="447" 
d="M358 342v78q-36 -10 -79.5 -85.5t-56.5 -153.5l-29 -181h-140l69 440l-77 20l12 72l222 8l-31 -150q4 11 16 30.5t36 52t62 55t79 22.5q12 0 26 -2.5t22 -5.5l8 -2l-39 -198h-100zM36 -329l-50 53q2 2 11 10t11.5 10.5l10 10t9.5 11t7 10t7 11.5t3.5 11.5t1.5 12.5
q0 8 -6 26t-6 33q0 36 23.5 58t55.5 22q60 0 60 -65q0 -90 -138 -214z" />
    <glyph glyph-name="Rcaron" unicode="&#x158;" horiz-adv-x="655" 
d="M609 885l-159 -127l-87 -8l-125 134l65 60l114 -93l151 93zM298 0h-296l14 87l78 25l75 475l-68 30l13 83l222 5h96q89 0 147 -43t58 -123q0 -85 -42 -143.5t-117 -84.5q20 -20 41 -81l39 -118l68 -25l-14 -87h-175l-54 190q-14 53 -38.5 70t-75.5 17l-26 -165l69 -25z
M285 382h57q65 0 103 33t38 95q0 38 -22.5 57.5t-62.5 19.5h-80z" />
    <glyph glyph-name="rcaron" unicode="&#x159;" horiz-adv-x="447" 
d="M544 766l-176 -154l-83 -7l-138 162l62 57l124 -118l173 119zM358 342v78q-36 -10 -79.5 -85.5t-56.5 -153.5l-29 -181h-140l69 440l-77 20l12 72l222 8l-31 -150q4 11 16 30.5t36 52t62 55t79 22.5q12 0 26 -2.5t22 -5.5l8 -2l-39 -198h-100z" />
    <glyph glyph-name="Sacute" unicode="&#x15a;" horiz-adv-x="592" 
d="M321 738l-38 80l245 130l53 -104zM147 217l2 -86q38 -19 97 -19q47 0 84 24t37 65q0 28 -28 49.5t-67.5 38t-79.5 37.5t-68 59.5t-28 92.5q0 114 78.5 176.5t196.5 62.5q48 0 99 -10t78 -20l27 -10l-34 -182h-82l-12 85q-43 15 -87 15q-47 0 -76 -21t-29 -57
q0 -28 28 -49.5t67.5 -38t79 -37t67.5 -57.5t28 -88q0 -121 -84 -190.5t-206 -69.5q-48 0 -100.5 9.5t-81.5 19.5l-29 9l31 192h92z" />
    <glyph glyph-name="sacute" unicode="&#x15b;" horiz-adv-x="487" 
d="M487 741l-52 104l-249 -172l46 -73zM123 175v-70q29 -11 69 -11q85 0 85 58q0 22 -22 40.5t-53 33.5t-62 33t-53 49t-22 72q0 84 62 127t161 43q40 0 82.5 -7t65.5 -14l22 -7l-27 -150h-86l-5 65q-21 9 -58 9q-33 0 -51.5 -14t-18.5 -39q0 -22 22.5 -40.5t54 -33.5
t63.5 -32.5t54.5 -47.5t22.5 -70q0 -84 -67.5 -131.5t-176.5 -47.5q-40 0 -83.5 6t-67.5 12l-23 7l26 160h86z" />
    <glyph glyph-name="Scircumflex" unicode="&#x15c;" horiz-adv-x="592" 
d="M210 807l172 137l87 7l130 -144l-56 -65l-127 100l-164 -100zM147 217l2 -86q38 -19 97 -19q47 0 84 24t37 65q0 28 -28 49.5t-67.5 38t-79.5 37.5t-68 59.5t-28 92.5q0 114 78.5 176.5t196.5 62.5q48 0 99 -10t78 -20l27 -10l-34 -182h-82l-12 85q-43 15 -87 15
q-47 0 -76 -21t-29 -57q0 -28 28 -49.5t67.5 -38t79 -37t67.5 -57.5t28 -88q0 -121 -84 -190.5t-206 -69.5q-48 0 -100.5 9.5t-81.5 19.5l-29 9l31 192h92z" />
    <glyph glyph-name="scircumflex" unicode="&#x15d;" horiz-adv-x="489" 
d="M105 684l172 137l87 7l130 -144l-56 -65l-127 100l-164 -100zM125 175v-70q29 -11 69 -11q85 0 85 58q0 22 -22 40.5t-53 33.5t-62 33t-53 49t-22 72q0 84 62 127t161 43q40 0 82.5 -7t65.5 -14l22 -7l-27 -150h-86l-5 65q-21 9 -58 9q-33 0 -51.5 -14t-18.5 -39
q0 -22 22.5 -40.5t54 -33.5t63.5 -32.5t54.5 -47.5t22.5 -70q0 -84 -67.5 -131.5t-176.5 -47.5q-40 0 -83.5 6t-67.5 12l-23 7l26 160h86z" />
    <glyph glyph-name="Scedilla" unicode="&#x15e;" horiz-adv-x="592" 
d="M459 495l-12 85q-43 15 -87 15q-47 0 -76 -21t-29 -57q0 -28 28 -49.5t67.5 -38t79 -37t67.5 -57.5t28 -88q0 -110 -71 -178t-179 -80l-5 -33q33 -7 52 -26.5t19 -49.5q0 -51 -39.5 -82.5t-93.5 -31.5q-30 0 -59 7.5t-43 14.5l-13 8l38 55q32 -19 69 -19q24 0 39.5 11
t15.5 31q0 39 -75 39l12 76q-40 4 -82 13t-64 16l-22 7l31 192h92l2 -86q38 -19 97 -19q47 0 84 24t37 65q0 28 -28 49.5t-67.5 38t-79.5 37.5t-68 59.5t-28 92.5q0 114 78.5 176.5t196.5 62.5q48 0 99 -10t78 -20l27 -10l-34 -182h-82z" />
    <glyph glyph-name="scedilla" unicode="&#x15f;" horiz-adv-x="487" 
d="M71 -204l38 55q32 -19 69 -19q24 0 39.5 11t15.5 31q0 39 -75 39l12 77q-37 1 -77 7.5t-61 12.5l-21 5l26 160h86v-70q29 -11 69 -11q85 0 85 58q0 22 -22 40.5t-53 33.5t-62 33t-53 49t-22 72q0 84 62 127t161 43q40 0 82.5 -7t65.5 -14l22 -7l-27 -150h-86l-5 65
q-21 9 -58 9q-33 0 -51.5 -14t-18.5 -39q0 -22 22.5 -40.5t54 -33.5t63.5 -32.5t54.5 -47.5t22.5 -70q0 -70 -47 -114.5t-128 -58.5l-6 -40q33 -7 52 -26.5t19 -49.5q0 -51 -39.5 -82.5t-93.5 -31.5q-30 0 -59 7.5t-43 14.5z" />
    <glyph glyph-name="Scaron" unicode="&#x160;" horiz-adv-x="592" 
d="M592 885l-159 -127l-87 -8l-125 134l65 60l114 -93l151 93zM147 217l2 -86q38 -19 97 -19q47 0 84 24t37 65q0 28 -28 49.5t-67.5 38t-79.5 37.5t-68 59.5t-28 92.5q0 114 78.5 176.5t196.5 62.5q48 0 99 -10t78 -20l27 -10l-34 -182h-82l-12 85q-43 15 -87 15
q-47 0 -76 -21t-29 -57q0 -28 28 -49.5t67.5 -38t79 -37t67.5 -57.5t28 -88q0 -121 -84 -190.5t-206 -69.5q-48 0 -100.5 9.5t-81.5 19.5l-29 9l31 192h92z" />
    <glyph glyph-name="scaron" unicode="&#x161;" horiz-adv-x="487" 
d="M522 766l-176 -154l-83 -7l-138 162l62 57l124 -118l173 119zM123 175v-70q29 -11 69 -11q85 0 85 58q0 22 -22 40.5t-53 33.5t-62 33t-53 49t-22 72q0 84 62 127t161 43q40 0 82.5 -7t65.5 -14l22 -7l-27 -150h-86l-5 65q-21 9 -58 9q-33 0 -51.5 -14t-18.5 -39
q0 -22 22.5 -40.5t54 -33.5t63.5 -32.5t54.5 -47.5t22.5 -70q0 -84 -67.5 -131.5t-176.5 -47.5q-40 0 -83.5 6t-67.5 12l-23 7l26 160h86z" />
    <glyph glyph-name="Tcedilla" unicode="&#x162;" horiz-adv-x="577" 
d="M641 705l-34 -215h-90l-10 97h-94l-75 -476l77 -24l-14 -87h-109l-7 -44q33 -7 52 -26.5t19 -49.5q0 -51 -39.5 -82.5t-93.5 -31.5q-30 0 -59 7.5t-42 14.5l-14 8l38 55q32 -19 69 -19q24 0 39.5 11t15.5 31q0 39 -75 39l14 87h-119l14 87l84 24l75 476h-93l-40 -97h-90
l36 215h565z" />
    <glyph glyph-name="tcedilla" unicode="&#x163;" horiz-adv-x="404" 
d="M49 -204l38 55q32 -19 69 -19q24 0 39.5 11t15.5 31q0 39 -75 39l13 84q-68 22 -68 124q0 32 5 60l37 236h-90l15 95l92 13l22 137l146 28l-27 -165h134l-17 -108h-134l-35 -217q-5 -27 -5 -49q0 -49 42 -49q13 0 33 5t34 10l14 5l22 -72q-68 -43 -137 -56l-6 -38
q33 -7 52 -26.5t19 -49.5q0 -51 -39.5 -82.5t-93.5 -31.5q-30 0 -59 7.5t-43 14.5z" />
    <glyph glyph-name="Tcaron" unicode="&#x164;" horiz-adv-x="577" 
d="M564 885l-159 -127l-87 -8l-125 134l65 60l114 -93l151 93zM188 111l75 476h-93l-40 -97h-90l36 215h565l-34 -215h-90l-10 97h-94l-75 -476l77 -24l-14 -87h-311l14 87z" />
    <glyph glyph-name="tcaron" unicode="&#x165;" horiz-adv-x="438" 
d="M409 576l-69 28q56 114 70 237l129 5q-9 -56 -47.5 -132.5t-82.5 -137.5zM347 122l22 -72q-30 -19 -81 -39.5t-90 -20.5q-117 0 -117 131q0 32 5 60l37 236h-90l15 95l92 13l22 137l146 28l-27 -165h134l-17 -108h-134l-35 -217q-5 -27 -5 -49q0 -49 42 -49q13 0 33 5
t34 10z" />
    <glyph glyph-name="Tbar" unicode="&#x166;" horiz-adv-x="564" 
d="M235 408l28 179h-93l-40 -95h-90l36 213h563l-34 -213h-90l-10 95h-94l-28 -179h114l-18 -110h-114l-29 -187l77 -24l-14 -87h-309l14 87l84 24l29 187h-110l18 110h110z" />
    <glyph glyph-name="tbar" unicode="&#x167;" horiz-adv-x="405" 
d="M110 332l14 85h-90l15 95l92 13l22 137l146 28l-27 -165h134l-17 -108h-134l-14 -85h133l-17 -105h-133l-4 -27q-5 -27 -5 -49q0 -49 42 -49q13 0 33 5t34 10l14 5l22 -72q-30 -19 -81 -39.5t-90 -20.5q-117 0 -117 131q0 32 5 60l7 46h-91l17 105h90z" />
    <glyph glyph-name="Utilde" unicode="&#x168;" horiz-adv-x="735" 
d="M298 780l-38 41q2 4 7 11.5t19.5 26t30 32.5t39 25.5t45.5 11.5q35 0 83.5 -22.5t76.5 -22.5q17 0 35 10.5t28 20.5l10 11l45 -39q-2 -4 -6.5 -11.5t-19 -26.5t-30 -33t-38 -26t-44.5 -12q-35 0 -86 22t-79 22q-18 0 -37.5 -10.5t-30.5 -20.5zM295 587l-51 -317
q-5 -33 -5 -56q0 -51 24 -77.5t84 -26.5q68 0 102 40t48 133l48 304l-70 30l13 83l297 5l-14 -88l-77 -30l-46 -295q-24 -150 -99 -227t-223 -77q-126 0 -182 50t-56 150q0 41 7 82l51 317l-71 30l13 83l296 5l-14 -88z" />
    <glyph glyph-name="utilde" unicode="&#x169;" 
d="M201 630l-38 46q2 4 6.5 11.5t19 26.5t29.5 33.5t38 26.5t45 12q35 0 80.5 -23t73.5 -23q17 0 35 10.5t28 21.5l10 10l45 -46q-2 -4 -6.5 -11.5t-19 -26.5t-30 -33t-38 -26t-44.5 -12q-35 0 -81.5 22t-74.5 22q-18 0 -37.5 -10.5t-29.5 -20.5zM362 0l34 159
q-7 -13 -19.5 -32t-41 -54.5t-70.5 -59t-87 -23.5q-110 0 -110 121q0 33 5 59l43 262l-77 20l13 80l222 8l-55 -343q-3 -19 -3 -35q0 -50 38 -50q31 0 60.5 28.5t50 71t32 74t18.5 56.5l33 198h141l-69 -436l76 -15l-13 -79z" />
    <glyph glyph-name="Umacron" unicode="&#x16a;" horiz-adv-x="735" 
d="M598 901l-18 -105h-291l18 105h291zM295 587l-51 -317q-5 -33 -5 -56q0 -51 24 -77.5t84 -26.5q68 0 102 40t48 133l48 304l-70 30l13 83l297 5l-14 -88l-77 -30l-46 -295q-24 -150 -99 -227t-223 -77q-126 0 -182 50t-56 150q0 41 7 82l51 317l-71 30l13 83l296 5
l-14 -88z" />
    <glyph glyph-name="umacron" unicode="&#x16b;" 
d="M525 747l-18 -105h-291l18 105h291zM362 0l34 159q-7 -13 -19.5 -32t-41 -54.5t-70.5 -59t-87 -23.5q-110 0 -110 121q0 33 5 59l43 262l-77 20l13 80l222 8l-55 -343q-3 -19 -3 -35q0 -50 38 -50q31 0 60.5 28.5t50 71t32 74t18.5 56.5l33 198h141l-69 -436l76 -15
l-13 -79z" />
    <glyph glyph-name="Ubreve" unicode="&#x16c;" horiz-adv-x="735" 
d="M319 930l85 9q0 -24 15 -48.5t50 -24.5q29 0 49.5 16t26.5 32l6 17l85 6q-13 -82 -68.5 -128t-124.5 -46q-57 0 -92 35t-35 94q0 11 3 38zM296 587l-51 -317q-5 -33 -5 -56q0 -51 24 -77.5t84 -26.5q68 0 102 40t48 133l48 304l-70 30l13 83l297 5l-14 -88l-77 -30
l-46 -295q-24 -150 -99 -227t-223 -77q-126 0 -182 50t-56 150q0 41 7 82l51 317l-71 30l13 83l296 5l-14 -88z" />
    <glyph glyph-name="ubreve" unicode="&#x16d;" 
d="M228 779l85 9q0 -24 15 -48.5t50 -24.5q29 0 49.5 16.5t26.5 32.5l6 16l85 6q-13 -82 -68.5 -128t-124.5 -46q-57 0 -92 35t-35 94q0 11 3 38zM362 0l34 159q-7 -13 -19.5 -32t-41 -54.5t-70.5 -59t-87 -23.5q-110 0 -110 121q0 31 48 321l-77 20l13 80l222 8
q-58 -357 -58 -378q0 -50 38 -50q31 0 60.5 28.5t50 71t32 74t18.5 56.5l33 198h141l-69 -436l76 -15l-13 -79z" />
    <glyph glyph-name="Uring" unicode="&#x16e;" horiz-adv-x="736" 
d="M339 839q0 64 42 110t107 46q48 0 80.5 -27.5t32.5 -75.5q0 -63 -43.5 -110t-107.5 -47q-48 0 -79.5 28.5t-31.5 75.5zM478 923q-25 0 -40.5 -22t-15.5 -50q0 -43 40 -43q25 0 40.5 22t15.5 50q0 43 -40 43zM295 587l-51 -317q-5 -33 -5 -56q0 -51 24 -77.5t84 -26.5
q68 0 102 40t48 133l48 304l-70 30l13 83l297 5l-14 -88l-77 -30l-46 -295q-24 -150 -99 -227t-223 -77q-126 0 -182 50t-56 150q0 41 7 82l51 317l-71 30l13 83l296 5l-14 -88z" />
    <glyph glyph-name="uring" unicode="&#x16f;" 
d="M250 701q0 64 42 110t107 46q48 0 80.5 -27.5t32.5 -75.5q0 -63 -43.5 -110t-107.5 -47q-48 0 -79.5 28.5t-31.5 75.5zM389 785q-25 0 -40.5 -22t-15.5 -50q0 -43 40 -43q25 0 40.5 22t15.5 50q0 43 -40 43zM362 0l34 159q-7 -13 -19.5 -32t-41 -54.5t-70.5 -59
t-87 -23.5q-110 0 -110 121q0 33 5 59l43 262l-77 20l13 80l222 8l-55 -343q-3 -19 -3 -35q0 -50 38 -50q31 0 60.5 28.5t50 71t32 74t18.5 56.5l33 198h141l-69 -436l76 -15l-13 -79z" />
    <glyph glyph-name="Uhungarumlaut" unicode="&#x170;" horiz-adv-x="756" 
d="M281 788l181 191l66 -80l-188 -164zM490 788l181 191l68 -83l-190 -161zM305 587l-51 -317q-5 -33 -5 -56q0 -51 24 -77.5t84 -26.5q68 0 102 40t48 133l48 304l-70 30l13 83l297 5l-14 -88l-77 -30l-46 -295q-24 -150 -99 -227t-223 -77q-126 0 -182 50t-56 150
q0 41 7 82l51 317l-71 30l13 83l296 5l-14 -88z" />
    <glyph glyph-name="uhungarumlaut" unicode="&#x171;" 
d="M185 655l181 191l66 -80l-188 -164zM394 655l181 191l68 -83l-190 -161zM362 0l34 159q-7 -13 -19.5 -32t-41 -54.5t-70.5 -59t-87 -23.5q-110 0 -110 121q0 31 48 321l-77 20l13 80l222 8q-58 -357 -58 -378q0 -50 38 -50q31 0 60.5 28.5t50 71t32 74t18.5 56.5l33 198
h141l-69 -436l76 -15l-13 -79z" />
    <glyph glyph-name="Uogonek" unicode="&#x172;" horiz-adv-x="735" 
d="M295 587l-51 -317q-5 -33 -5 -56q0 -51 24 -77.5t84 -26.5q68 0 102 40t48 133l48 304l-70 30l13 83l297 5l-14 -88l-77 -30l-46 -295q-9 -59 -26 -105.5t-34.5 -74t-41 -48.5t-40.5 -31t-39 -20q-8 -3 -11 -5q-29 -15 -55.5 -31t-54.5 -43.5t-28 -50.5q0 -14 9 -22
t25 -8l40 7l5 -71q-53 -24 -102 -24q-41 0 -67 22t-26 61q0 78 101 141q-114 4 -164.5 54t-50.5 145q0 41 7 82l51 317l-71 30l13 83l296 5l-14 -88z" />
    <glyph glyph-name="uogonek" unicode="&#x173;" 
d="M362 0l34 159q-7 -13 -19.5 -32t-41 -54.5t-70.5 -59t-87 -23.5q-110 0 -110 121q0 33 5 59l43 262l-77 20l13 80l222 8l-55 -343q-3 -19 -3 -35q0 -50 38 -50q31 0 61 29t50.5 69.5t33 75.5t16.5 56l33 198h141l-69 -436l76 -15l-13 -79q-137 -78 -137 -127q0 -14 9 -22
t25 -8l40 7l5 -71q-53 -24 -102 -24q-41 0 -67 22t-26 61q0 29 14.5 56.5t38 47.5t41 31.5t35.5 20.5z" />
    <glyph glyph-name="Wcircumflex" unicode="&#x174;" horiz-adv-x="973" 
d="M365 807l172 137l87 7l130 -144l-56 -65l-127 100l-164 -100zM35 617l13 83l193 5l62 -471l194 463l116 8l63 -474l148 357l-69 29l15 83l278 5l-15 -88l-72 -29l-267 -588h-117l-65 440l-197 -440h-117l-93 590z" />
    <glyph glyph-name="wcircumflex" unicode="&#x175;" horiz-adv-x="822" 
d="M295 684l172 137l87 7l130 -144l-56 -65l-127 100l-164 -100zM669 437l-64 15l13 80l242 8l-14 -85l-42 -13l-202 -442h-149l-42 300l-121 -300h-148l-69 439l-64 13l13 80l190 8l41 -375l141 361l116 16l49 -377z" />
    <glyph glyph-name="Ycircumflex" unicode="&#x176;" horiz-adv-x="617" 
d="M172 807l172 137l87 7l130 -144l-56 -65l-127 100l-164 -100zM411 0h-296l14 87l78 25l21 134l-107 349l-76 22l13 83l188 5l90 -329l127 219l-68 22l13 83l283 5l-14 -88l-74 -28l-229 -359l-19 -118l70 -25z" />
    <glyph glyph-name="ycircumflex" unicode="&#x177;" horiz-adv-x="563" 
d="M125 684l172 137l87 7l130 -144l-56 -65l-127 100l-164 -100zM9 452l12 80l192 8l68 -326l6 -62l118 286l-62 14l12 80l251 8l-14 -85l-49 -16l-191 -423q-67 -149 -117.5 -202.5t-138.5 -53.5q-27 0 -58.5 5t-49.5 10l-19 5l28 100q39 -5 74 -5q50 0 74.5 19.5
t50.5 77.5l-118 463z" />
    <glyph glyph-name="Ydieresis" unicode="&#x178;" horiz-adv-x="617" 
d="M208 830q0 40 22 68t61 28q29 0 45.5 -16.5t16.5 -44.5q0 -40 -23.5 -67.5t-61.5 -27.5q-28 0 -44 16t-16 44zM421 830q0 40 22 68t60 28q29 0 45.5 -16.5t16.5 -44.5q0 -40 -23 -67.5t-61 -27.5q-28 0 -44 16t-16 44zM411 0h-296l14 87l78 25l21 134l-107 349l-76 22
l13 83l188 5l90 -329l127 219l-68 22l13 83l283 5l-14 -88l-74 -28l-229 -359l-19 -118l70 -25z" />
    <glyph glyph-name="Zacute" unicode="&#x179;" horiz-adv-x="594" 
d="M260 738l-38 80l245 130l53 -104zM25 104l374 483h-200l-36 -85h-88l29 203h494l-12 -111l-371 -477h205l38 104h93l-35 -221h-505z" />
    <glyph glyph-name="zacute" unicode="&#x17a;" horiz-adv-x="498" 
d="M447 741l-52 104l-249 -172l46 -73zM480 452l-286 -346h141l34 89h80l-24 -195h-418l7 90l294 345h-136l-33 -75h-83l27 180h404z" />
    <glyph glyph-name="Zdotaccent" unicode="&#x17b;" horiz-adv-x="594" 
d="M275 829q0 37 24 66.5t62 29.5q60 0 60 -60q0 -43 -26 -69.5t-60 -26.5q-60 0 -60 60zM25 104l374 483h-200l-36 -85h-88l29 203h494l-12 -111l-371 -477h205l38 104h93l-35 -221h-505z" />
    <glyph glyph-name="zdotaccent" unicode="&#x17c;" horiz-adv-x="498" 
d="M214 680q0 37 24 66.5t62 29.5q60 0 60 -60q0 -43 -26 -69.5t-60 -26.5q-60 0 -60 60zM480 452l-286 -346h141l34 89h80l-24 -195h-418l7 90l294 345h-136l-33 -75h-83l27 180h404z" />
    <glyph glyph-name="Zcaron" unicode="&#x17d;" horiz-adv-x="594" 
d="M552 885l-159 -127l-87 -8l-125 134l65 60l114 -93l151 93zM25 104l374 483h-200l-36 -85h-88l29 203h494l-12 -111l-371 -477h205l38 104h93l-35 -221h-505z" />
    <glyph glyph-name="zcaron" unicode="&#x17e;" horiz-adv-x="498" 
d="M509 766l-176 -154l-83 -7l-138 162l62 57l124 -118l173 119zM480 452l-286 -346h141l34 89h80l-24 -195h-418l7 90l294 345h-136l-33 -75h-83l27 180h404z" />
    <glyph glyph-name="longs" unicode="&#x17f;" horiz-adv-x="394" 
d="M75 -48l92 578q10 63 24 105.5t39.5 79.5t68 54.5t103.5 17.5q37 0 78.5 -5.5t65.5 -11.5l23 -6l-30 -162h-85v75h-48q-41 0 -61.5 -21t-26.5 -61l-100 -626q-16 -99 -71.5 -156.5t-149.5 -57.5q-18 0 -43.5 3.5t-41.5 7.5l-17 3l19 87h69q77 0 92 96z" />
    <glyph glyph-name="florin" unicode="&#x192;" horiz-adv-x="474" 
d="M83 449l91 16q19 89 37 141.5t47 95t71.5 60t105.5 17.5q18 0 42.5 -2.5t40 -5t15.5 -3.5l-25 -98h-63q-44 0 -65.5 -21t-33.5 -69l-28 -115h130l-19 -100h-135l-90 -368q-48 -197 -229 -197q-15 0 -34.5 3t-31.5 5l-12 3l20 99h51q42 0 61.5 22t31.5 71l88 362h-80z" />
    <glyph glyph-name="Aringacute" unicode="&#x1fa;" horiz-adv-x="711" 
d="M677 88l-15 -88h-296l14 87l79 25l-12 73h-221l-36 -76l69 -22l-14 -87h-283l14 88l67 23l302 578q-40 29 -40 82q0 64 42 110t107 46q48 0 80.5 -27.5t32.5 -75.5q0 -79 -62 -127l114 -589zM444 855q-25 0 -40.5 -22t-15.5 -50q0 -43 40 -43q25 0 40.5 22t15.5 50
q0 43 -40 43zM430 292l-37 241l-117 -241h154zM355 927l-31 83l255 108l44 -108z" />
    <glyph glyph-name="aringacute" unicode="&#x1fb;" horiz-adv-x="615" 
d="M282 686q0 64 42 110t107 46q48 0 80.5 -27.5t32.5 -75.5q0 -63 -43.5 -110t-107.5 -47q-48 0 -79.5 28.5t-31.5 75.5zM421 770q-25 0 -40.5 -22t-15.5 -50q0 -43 40 -43q25 0 40.5 22t15.5 50q0 43 -40 43zM563 10l-215 -10l35 148q-4 -7 -12 -20.5t-29 -39t-44.5 -46
t-58.5 -36.5t-70 -16q-65 0 -104 51.5t-39 129.5q0 91 26 164.5t69 119.5t97.5 70.5t113.5 24.5q31 0 60 -9t43 -19l14 -9l29 27h91l-70 -436l77 -15zM392 347l15 83q-29 12 -73 12q-69 0 -113.5 -71.5t-44.5 -180.5q0 -39 13 -61t36 -22q28 0 55.5 24.5t46.5 60t34.5 71
t22.5 59.5zM599 962l-40 109l-266 -145l38 -78z" />
    <glyph glyph-name="AEacute" unicode="&#x1fc;" horiz-adv-x="934" 
d="M583 738l-38 80l245 130l53 -104zM817 420l-17 -110h-198l-30 -193h175l36 84h90l-33 -201h-506l15 87l75 25l13 80h-190l-53 -84l59 -21l-15 -87h-276l14 87l71 25l300 477l-77 28l13 83l247 5h409l-31 -193h-80l-13 75h-168l-27 -167h197zM483 587l-174 -287h143
l47 287h-16z" />
    <glyph glyph-name="aeacute" unicode="&#x1fd;" horiz-adv-x="811" 
d="M87 365l17 145q115 40 215 40q117 0 137 -66q76 66 167 66q84 0 133.5 -39.5t49.5 -103.5q0 -87 -89.5 -138t-252.5 -53q0 -58 20.5 -84.5t72.5 -26.5q17 0 35.5 3t37 8t31.5 9t28.5 9.5t17.5 6.5l42 -74q-21 -14 -49.5 -29.5t-81.5 -31.5t-102 -16q-130 0 -171 97
q-82 -96 -194 -96q-63 0 -100 34.5t-37 94.5q0 95 68 143t185 48h71l9 56q2 12 2 20q0 55 -64 55q-23 0 -45.5 -3t-33.5 -7l-11 -3l-25 -64h-83zM661 389q0 48 -57 48q-44 0 -79 -37t-50 -96q93 2 139.5 25t46.5 60zM325 226h-56q-112 0 -112 -76q0 -21 15.5 -35.5
t36.5 -14.5q43 0 76.5 40.5t39.5 85.5zM700 741l-52 104l-249 -172l46 -73z" />
    <glyph glyph-name="Oslashacute" unicode="&#x1fe;" horiz-adv-x="738" 
d="M15 -59l97 128q-53 67 -53 177q0 129 45.5 235t135.5 171t207 65q75 0 130 -27l77 103l78 -51l-83 -110q56 -67 56 -172q0 -131 -48.5 -238t-139.5 -170.5t-208 -63.5q-71 0 -124 24l-92 -122zM227 222l266 356q-25 14 -66 14q-93 0 -150.5 -96t-57.5 -219q0 -29 8 -55z
M537 482l-266 -355q25 -15 63 -15q91 0 150 92.5t59 219.5q0 32 -6 58zM376 738l-38 80l245 130l53 -104z" />
    <glyph glyph-name="oslashacute" unicode="&#x1ff;" horiz-adv-x="586" 
d="M-10 -75l90 122q-47 50 -47 138q0 164 86 264.5t225 100.5q50 0 95 -16l80 109l67 -42l-81 -109q48 -53 48 -135q0 -166 -87.5 -266.5t-227.5 -100.5q-47 0 -92 15l-90 -122zM185 190l176 238q-19 7 -36 7q-63 0 -102 -66.5t-39 -159.5q0 -13 1 -19zM401 350l-177 -239
q15 -6 35 -6q62 0 102.5 62t40.5 156q0 5 -0.5 14t-0.5 13zM540 741l-52 104l-249 -172l46 -73z" />
    <glyph glyph-name="Scommaaccent" unicode="&#x218;" horiz-adv-x="592" 
d="M147 217l2 -86q38 -19 97 -19q47 0 84 24t37 65q0 28 -28 49.5t-67.5 38t-79.5 37.5t-68 59.5t-28 92.5q0 114 78.5 176.5t196.5 62.5q48 0 99 -10t78 -20l27 -10l-34 -182h-82l-12 85q-43 15 -87 15q-47 0 -76 -21t-29 -57q0 -28 28 -49.5t67.5 -38t79 -37t67.5 -57.5
t28 -88q0 -121 -84 -190.5t-206 -69.5q-48 0 -100.5 9.5t-81.5 19.5l-29 9l31 192h92zM56 -332l-46 48q68 66 68 90q0 10 -8 29.5t-8 37.5q0 33 23.5 55t53.5 22t47.5 -18t17.5 -51q0 -45 -42 -102.5t-106 -110.5z" />
    <glyph glyph-name="scommaaccent" unicode="&#x219;" horiz-adv-x="487" 
d="M123 175v-70q29 -11 69 -11q85 0 85 58q0 22 -22 40.5t-53 33.5t-62 33t-53 49t-22 72q0 84 62 127t161 43q40 0 82.5 -7t65.5 -14l22 -7l-27 -150h-86l-5 65q-21 9 -58 9q-33 0 -51.5 -14t-18.5 -39q0 -22 22.5 -40.5t54 -33.5t63.5 -32.5t54.5 -47.5t22.5 -70
q0 -84 -67.5 -131.5t-176.5 -47.5q-40 0 -83.5 6t-67.5 12l-23 7l26 160h86zM56 -332l-46 48q68 66 68 90q0 10 -8 29.5t-8 37.5q0 33 23.5 55t53.5 22t47.5 -18t17.5 -51q0 -45 -42 -102.5t-106 -110.5z" />
    <glyph glyph-name="Tcommaaccent" unicode="&#x21a;" horiz-adv-x="577" 
d="M188 111l75 476h-93l-40 -97h-90l36 215h565l-34 -215h-90l-10 97h-94l-75 -476l77 -24l-14 -87h-311l14 87zM152 -332l-46 48q68 66 68 90q0 10 -8 29.5t-8 37.5q0 33 23.5 55t53.5 22t47.5 -18t17.5 -51q0 -45 -42 -102.5t-106 -110.5z" />
    <glyph glyph-name="tcommaaccent" unicode="&#x21b;" horiz-adv-x="404" 
d="M347 122l22 -72q-30 -19 -81 -39.5t-90 -20.5q-117 0 -117 131q0 32 5 60l37 236h-90l15 95l92 13l22 137l146 28l-27 -165h134l-17 -108h-134l-35 -217q-5 -27 -5 -49q0 -49 42 -49q13 0 33 5t34 10zM56 -332l-46 48q68 66 68 90q0 10 -8 29.5t-8 37.5q0 33 23.5 55
t53.5 22t47.5 -18t17.5 -51q0 -45 -42 -102.5t-106 -110.5z" />
    <glyph glyph-name="dotlessj" unicode="&#x237;" horiz-adv-x="328" 
d="M59 532l222 8l-94 -583q-15 -95 -72 -148.5t-149 -53.5q-19 0 -44 3.5t-40 7.5l-16 4l20 88q3 0 25 -1.5t38 -1.5q51 0 70.5 28t31.5 101l72 448l-78 20z" />
    <glyph glyph-name="circumflex" unicode="&#x2c6;" horiz-adv-x="389" 
d="M0 687l172 137l87 7l130 -144l-56 -65l-127 100l-164 -100z" />
    <glyph glyph-name="caron" unicode="&#x2c7;" horiz-adv-x="398" 
d="M476 766l-176 -154l-83 -7l-138 162l62 57l124 -118l173 119z" />
    <glyph glyph-name="firsttonechinese" unicode="&#x2c9;" horiz-adv-x="299" 
d="M299 747l-18 -105h-281l18 105h281z" />
    <glyph glyph-name="breve" unicode="&#x2d8;" horiz-adv-x="440" 
d="M96 763l85 9q0 -24 15 -48.5t50 -24.5q29 0 49.5 16.5t26.5 32.5l6 16l85 6q-13 -82 -68.5 -128t-124.5 -46q-57 0 -92 35t-35 94q0 11 3 38z" />
    <glyph glyph-name="dotaccent" unicode="&#x2d9;" horiz-adv-x="143" 
d="M90 829q0 37 24 66.5t62 29.5q60 0 60 -60q0 -43 -26 -69.5t-60 -26.5q-60 0 -60 60z" />
    <glyph glyph-name="ring" unicode="&#x2da;" horiz-adv-x="258" 
d="M70 701q0 64 42 110t107 46q48 0 80.5 -27.5t32.5 -75.5q0 -63 -43.5 -110t-107.5 -47q-48 0 -79.5 28.5t-31.5 75.5zM209 785q-25 0 -40.5 -22t-15.5 -50q0 -43 40 -43q25 0 40.5 22t15.5 50q0 43 -40 43z" />
    <glyph glyph-name="ogonek" unicode="&#x2db;" horiz-adv-x="345" 
d="M191 2h111q-13 -8 -33 -20.5t-53.5 -44.5t-33.5 -54q0 -14 9 -22t25 -8l40 7l5 -71q-53 -24 -102 -24q-41 0 -67 22t-26 61q0 29 14.5 56t37.5 46.5t40 31.5t33 20z" />
    <glyph glyph-name="tilde" unicode="&#x2dc;" horiz-adv-x="381" 
d="M38 630l-38 46q2 4 6.5 11.5t19 26.5t29.5 33.5t38 26.5t45 12q35 0 80.5 -23t73.5 -23q17 0 35 10.5t28 21.5l10 10l45 -46q-2 -4 -6.5 -11.5t-19 -26.5t-30 -33t-38 -26t-44.5 -12q-35 0 -81.5 22t-74.5 22q-18 0 -37.5 -10.5t-30.5 -20.5z" />
    <glyph glyph-name="hungarumlaut" unicode="&#x2dd;" horiz-adv-x="580" 
d="M78 664l181 191l66 -80l-188 -164zM287 664l181 191l68 -83l-190 -161z" />
    <glyph glyph-name="commaaccent" unicode="&#x326;" horiz-adv-x="0" 
d="M56 -332l-46 48q68 66 68 90q0 10 -8 29.5t-8 37.5q0 33 23.5 55t53.5 22t47.5 -18t17.5 -51q0 -45 -42 -102.5t-106 -110.5z" />
    <glyph glyph-name="Gamma" unicode="&#x393;" horiz-adv-x="559" 
d="M594 490h-91l-9 98h-181l-72 -473l89 -30l-14 -85h-316l14 85l77 30l72 470l-67 30l12 85l224 5h295z" />
    <glyph glyph-name="Delta" unicode="&#x394;" 
d="M464 723l146 -623l-16 -100h-624l17 100l349 623h128zM466 112l-104 448l-244 -448h348z" />
    <glyph glyph-name="Pi" unicode="&#x3a0;" horiz-adv-x="730" 
d="M712 117l23 -70q-88 -57 -170 -57q-62 0 -92.5 43.5t-16.5 136.5l65 415h-206l-76 -474l70 -24l-14 -87h-295l14 87l78 24l75 477l-69 29l13 83l222 5h429l-14 -89l-78 -29l-67 -423q-10 -63 41 -63q12 0 29 4t28 8z" />
    <glyph glyph-name="Omega" unicode="&#x3a9;" horiz-adv-x="778" 
d="M670 0h-265l17 100q58 40 90 87q66 98 66 252q0 68 -33 110.5t-97 42.5q-68 0 -116.5 -42t-70 -102t-21.5 -127q0 -133 65 -217l-25 -104h-265l20 120l122 -3q-25 29 -48 82.5t-23 117.5q0 109 43.5 199t131.5 145.5t205 55.5q124 0 198 -70.5t74 -191.5
q0 -59 -17.5 -116.5t-45.5 -100t-52 -70.5t-46 -47l114 4z" />
    <glyph glyph-name="mu" unicode="&#x3bc;" horiz-adv-x="649" 
d="M373 0l34 160q-4 -11 -16 -32.5t-35.5 -55.5t-60 -58t-76.5 -24q-14 0 -30 7l-40 -232h-141l114 667l-78 20l14 80l222 8l-56 -344q-4 -28 -4 -34q0 -50 41 -50q39 0 77.5 50.5t60 107t29.5 99.5l30 171h141l-70 -436l76 -17l-14 -80z" />
    <glyph glyph-name="pi" unicode="&#x3c0;" horiz-adv-x="655" 
d="M622 117l23 -70q-85 -57 -159 -57q-54 0 -85 29.5t-31 87.5q0 16 7 65l37 255h-155l-68 -427h-144l69 430l-72 22l12 78l209 10h387l-14 -88l-81 -20l-40 -247q-4 -21 -4 -41q1 -43 43 -43q11 0 27.5 4t27.5 8z" />
    <glyph glyph-name="Iegravecy" unicode="&#x400;" horiz-adv-x="611" 
d="M292 957l242 -131l-38 -80l-251 103zM297 420h197l-17 -110h-198l-30 -190h175l36 81h90l-33 -201h-510l14 87l78 24l75 477l-69 29l13 83l225 5h273l-31 -193h-80l-13 73h-168z" />
    <glyph glyph-name="Iocy" unicode="&#x401;" horiz-adv-x="611" 
d="M233 830q0 40 22 68t61 28q29 0 45.5 -16.5t16.5 -44.5q0 -40 -23.5 -67.5t-61.5 -27.5q-28 0 -44 16t-16 44zM446 830q0 40 22 68t60 28q29 0 45.5 -16.5t16.5 -44.5q0 -40 -23 -67.5t-61 -27.5q-28 0 -44 16t-16 44zM297 420h197l-17 -110h-198l-30 -190h175l36 81h90
l-33 -201h-510l14 87l78 24l75 477l-69 29l13 83l225 5h273l-31 -193h-80l-13 73h-168z" />
    <glyph glyph-name="Djecy" unicode="&#x402;" horiz-adv-x="732" 
d="M401 585l-37 -233q101 58 191 58q70 0 108 -37.5t38 -105.5q0 -123 -56.5 -201t-173.5 -78q-54 0 -99 15l24 100q23 -3 64 -3q50 0 69.5 29.5t19.5 92.5q0 33 -19 50.5t-52 17.5q-56 0 -129 -39l-40 -251h-242l14 85l95 25l75 475h-83l-39 -95h-89l33 215h566l-34 -215
h-89l-10 95h-105z" />
    <glyph glyph-name="Gjecy" unicode="&#x403;" horiz-adv-x="559" 
d="M336 738l-38 80l245 130l53 -104zM594 490h-91l-9 98h-181l-72 -473l89 -30l-14 -85h-316l14 85l77 30l72 470l-67 30l12 85l224 5h295z" />
    <glyph glyph-name="Ecy" unicode="&#x404;" horiz-adv-x="646" 
d="M531 484l-8 97q-40 11 -91 11q-77 0 -125.5 -50t-71.5 -129h249l-17 -110h-251l-1 -29q0 -157 136 -157q84 0 190 59l41 -85q-139 -104 -268 -104q-127 0 -193 67.5t-66 197.5q0 215 114 340t287 125q46 0 97 -10.5t79 -21.5l28 -11l-34 -190h-95z" />
    <glyph glyph-name="Dzecy" unicode="&#x405;" horiz-adv-x="592" 
d="M147 217l2 -86q38 -19 97 -19q47 0 84 24t37 65q0 28 -28 49.5t-67.5 38t-79.5 37.5t-68 59.5t-28 92.5q0 114 78.5 176.5t196.5 62.5q48 0 99 -10t78 -20l27 -10l-34 -182h-82l-12 85q-43 15 -87 15q-47 0 -76 -21t-29 -57q0 -28 28 -49.5t67.5 -38t79 -37t67.5 -57.5
t28 -88q0 -121 -84 -190.5t-206 -69.5q-48 0 -100.5 9.5t-81.5 19.5l-29 9l31 192h92z" />
    <glyph glyph-name="Icy" unicode="&#x406;" horiz-adv-x="378" 
d="M295 0h-298l14 87l78 24l76 477l-69 29l13 83l298 5l-14 -88l-78 -30l-76 -476l70 -24z" />
    <glyph glyph-name="Yicy" unicode="&#x407;" horiz-adv-x="384" 
d="M107 830q0 40 22 68t61 28q29 0 45.5 -16.5t16.5 -44.5q0 -40 -23.5 -67.5t-61.5 -27.5q-28 0 -44 16t-16 44zM320 830q0 40 22 68t60 28q29 0 45.5 -16.5t16.5 -44.5q0 -40 -23 -67.5t-61 -27.5q-28 0 -44 16t-16 44zM293 0h-298l14 87l78 24l76 477l-69 29l13 83l298 5
l-14 -88l-78 -30l-76 -476l70 -24z" />
    <glyph glyph-name="Jecy" unicode="&#x408;" horiz-adv-x="368" 
d="M325 587l-78 -485q-22 -134 -80.5 -196.5t-180.5 -62.5l-73 7l29 100h47q41 0 67 25t33 71l86 542l-69 29l13 83l298 5l-14 -88z" />
    <glyph glyph-name="Ljecy" unicode="&#x409;" horiz-adv-x="940" 
d="M617 432h94q97 0 153 -40.5t56 -124.5q0 -132 -81 -199.5t-211 -67.5h-311l14 87l85 24l76 474h-140q-31 -144 -72 -290q-20 -71 -39 -120.5t-47.5 -95t-67.5 -68.5t-88 -23q-44 0 -90 17l48 155q17 -5 36 -5q92 0 135 137q38 122 72 293l-126 30l15 90h617l-13 -88
l-90 -29zM568 120h73q56 0 89.5 35.5t33.5 92.5q0 79 -105 79h-58z" />
    <glyph glyph-name="Njecy" unicode="&#x40a;" horiz-adv-x="997" 
d="M690 431h95q95 0 151.5 -39.5t56.5 -119.5q0 -127 -82 -199.5t-209 -72.5h-305l14 87l78 24l32 210h-254l-33 -210l70 -24l-14 -87h-297l14 87l77 24l76 477l-69 29l13 83l298 5l-14 -88l-78 -30l-27 -156h255l27 157l-71 29l13 83l313 5l-14 -88l-91 -30zM641 120h74
q53 0 87.5 38t34.5 91q0 72 -104 72h-60z" />
    <glyph glyph-name="Tshecy" unicode="&#x40b;" horiz-adv-x="765" 
d="M731 90l-14 -90h-276l13 90l63 30l17 86q4 24 4 33q0 65 -71 65q-52 0 -115 -43l-24 -150l62 -24l-14 -87h-306l14 87l94 24l75 476h-83l-40 -97h-90l36 215h565l-34 -215h-90l-10 97h-104l-35 -225q91 67 181 67q71 0 108 -36t37 -102q0 -20 -5 -52l-21 -119z" />
    <glyph glyph-name="Kjecy" unicode="&#x40c;" horiz-adv-x="670" 
d="M392 738l-38 80l245 130l53 -104zM662 0h-286l14 87l57 21l-103 197h-72l-31 -194l68 -24l-14 -87h-293l14 87l78 24l75 477l-69 29l13 83l294 5l-14 -88l-77 -29l-27 -173h65l208 285l165 5l-14 -88l-76 -30l-169 -220l142 -257l66 -23z" />
    <glyph glyph-name="Iigravecy" unicode="&#x40d;" horiz-adv-x="804" 
d="M552 746l-251 103l47 108l242 -131zM827 705l-14 -88l-78 -30l-76 -476l71 -24l-14 -87h-299l14 87l78 24l49 306l-314 -270l-6 -36l70 -24l-14 -87h-297l14 87l77 24l76 477l-69 29l13 83l298 5l-14 -88l-78 -30l-49 -306l314 272l6 35l-71 29l13 83z" />
    <glyph glyph-name="Ushortcy" unicode="&#x40e;" horiz-adv-x="627" 
d="M560 950l48 -33q-30 -56 -91.5 -98t-131.5 -42q-73 0 -116 38.5t-52 106.5l111 28q8 -85 96 -85q82 0 136 85zM729 705l-14 -90l-73 -30l-209 -365q-133 -232 -270 -232q-64 0 -134 32l44 112q46 -19 99 -19q54 0 101 51l-164 421l-69 30l13 85l304 5l-14 -90l-83 -30
l102 -280l159 280l-78 30l13 85z" />
    <glyph glyph-name="Dzhecy" unicode="&#x40f;" horiz-adv-x="760" 
d="M785 705l-14 -89l-77 -30l-76 -471l72 -30l-13 -85h-274l-53 -195h-93l9 195h-267l12 86l78 26l76 474l-69 30l13 84l301 5l-13 -89l-82 -30l-75 -466h229l75 466l-74 32l13 82z" />
    <glyph glyph-name="Acy" unicode="&#x410;" horiz-adv-x="711" 
d="M677 88l-15 -88h-296l14 87l79 25l-12 73h-221l-36 -76l69 -22l-14 -87h-283l14 88l67 23l307 587l154 7l115 -597zM276 292h154l-37 241z" />
    <glyph glyph-name="Becy" unicode="&#x411;" horiz-adv-x="630" 
d="M315 588l-30 -186h97q107 0 165 -48t44 -142q-17 -105 -92 -158.5t-196 -53.5h-306l14 85l78 27l76 476l-69 29l13 83l224 5h295l-33 -206h-90l-11 89h-179zM268 297l-28 -177h77q49 0 81 26.5t37 65.5q6 41 -21 63t-85 22h-61z" />
    <glyph glyph-name="Vecy" unicode="&#x412;" horiz-adv-x="653" 
d="M333 705h96q83 0 139.5 -39.5t56.5 -112.5q0 -72 -42 -119t-106 -66q122 -35 122 -133q0 -113 -80.5 -174t-205.5 -61h-316l14 87l78 24l75 477l-69 29l13 83zM287 417h55q57 0 92 29t35 77q0 32 -21 48t-56 16h-78zM239 117h71q63 0 97.5 31t34.5 79q0 45 -27.5 65
t-86.5 20h-58z" />
    <glyph glyph-name="Gecy" unicode="&#x413;" horiz-adv-x="559" 
d="M594 490h-91l-9 98h-181l-72 -473l89 -30l-14 -85h-316l14 85l77 30l72 470l-67 30l12 85l224 5h295z" />
    <glyph glyph-name="Decy" unicode="&#x414;" horiz-adv-x="726" 
d="M646 585l-75 -470l114 -15l-43 -295h-90l-27 195h-414l-81 -195h-92l46 297q64 21 104 59t64 126q21 76 69 298l-119 30l15 90h620l-14 -90zM496 585h-159q-31 -153 -70 -297q-19 -72 -33 -107.5t-39 -60.5h226z" />
    <glyph glyph-name="Iecy" unicode="&#x415;" horiz-adv-x="611" 
d="M297 420h197l-17 -110h-198l-30 -190h175l36 81h90l-33 -201h-510l14 87l78 24l75 477l-69 29l13 83l225 5h273l-31 -193h-80l-13 73h-168z" />
    <glyph glyph-name="Zhecy" unicode="&#x416;" horiz-adv-x="980" 
d="M940 589l-165 -218l145 -256l71 -30l-14 -85h-301l14 85l64 30l-107 190h-77l-30 -190l58 -30l-14 -85h-264l14 85l66 30l37 230l-7 -40h-76l-167 -190l56 -30l-14 -85h-302l14 85l79 30l227 256l-97 218l-90 28l14 88l177 -5l122 -285h75l27 172l-70 30l13 83l291 5
l-14 -88l-80 -30l-27 -171h73l212 285l181 4l-14 -88z" />
    <glyph glyph-name="Zecy" unicode="&#x417;" horiz-adv-x="582" 
d="M77 501l22 176q115 40 228 40q114 0 176.5 -39.5t62.5 -114.5q0 -71 -38.5 -122t-113.5 -73q53 -16 83 -53.5t30 -89.5q0 -108 -87 -173t-225 -65q-127 0 -233 54l53 109q97 -40 185 -40q68 0 110 32t42 85q0 83 -129 83h-94l17 105h91q79 0 117 31.5t38 78.5
q0 70 -113 70q-24 0 -49 -3.5t-38 -6.5l-13 -3l-19 -81h-103z" />
    <glyph glyph-name="Iicy" unicode="&#x418;" horiz-adv-x="804" 
d="M827 705l-14 -88l-78 -30l-76 -476l71 -24l-14 -87h-299l14 87l78 24l49 306l-314 -270l-6 -36l70 -24l-14 -87h-297l14 87l77 24l76 477l-69 29l13 83l298 5l-14 -88l-78 -30l-49 -306l314 272l6 35l-71 29l13 83z" />
    <glyph glyph-name="Iishortcy" unicode="&#x419;" horiz-adv-x="804" 
d="M650 950l48 -33q-30 -56 -91.5 -98t-131.5 -42q-73 0 -116 38.5t-52 106.5l111 28q8 -85 96 -85q82 0 136 85zM827 705l-14 -88l-78 -30l-76 -476l71 -24l-14 -87h-299l14 87l78 24l49 306l-314 -270l-6 -36l70 -24l-14 -87h-297l14 87l77 24l76 477l-69 29l13 83l298 5
l-14 -88l-78 -30l-49 -306l314 272l6 35l-71 29l13 83z" />
    <glyph glyph-name="Kacy" unicode="&#x41a;" horiz-adv-x="670" 
d="M662 0h-286l14 87l57 21l-103 197h-72l-31 -194l68 -24l-14 -87h-293l14 87l78 24l75 477l-69 29l13 83l294 5l-14 -88l-77 -29l-27 -173h65l208 285l165 5l-14 -88l-76 -30l-169 -220l142 -257l66 -23z" />
    <glyph glyph-name="Elcy" unicode="&#x41b;" horiz-adv-x="711" 
d="M744 705l-14 -90l-78 -30l-74 -470l70 -30l-14 -85h-305l14 85l85 30l74 470h-155q-31 -144 -72 -290q-20 -71 -39 -120.5t-47.5 -95t-67.5 -68.5t-88 -23q-44 0 -90 17l48 155q17 -5 36 -5q92 0 135 137q38 122 72 293l-126 30l15 90h621z" />
    <glyph glyph-name="Emcy" unicode="&#x41c;" horiz-adv-x="853" 
d="M270 0h-278l14 87l77 24l76 477l-69 29l13 83l248 5l96 -338l203 333l237 5l-15 -88l-77 -30l-75 -475l69 -25l-14 -87h-283l14 87l74 25l56 356l-175 -285l-108 -7l-83 288l-56 -353l70 -24z" />
    <glyph glyph-name="Ency" unicode="&#x41d;" horiz-adv-x="783" 
d="M700 0h-299l14 87l78 24l31 194h-255l-31 -194l70 -24l-14 -87h-297l14 87l77 24l76 477l-69 29l13 83l298 5l-14 -88l-78 -30l-27 -165h255l27 166l-71 29l13 83l300 5l-14 -88l-78 -30l-76 -476l71 -24z" />
    <glyph glyph-name="Ocy" unicode="&#x41e;" horiz-adv-x="732" 
d="M306 -13q-120 0 -186 67t-66 192q0 129 46 235t136.5 171t207.5 65q123 0 191.5 -69.5t68.5 -192.5q0 -197 -111 -332.5t-287 -135.5zM544 449q0 143 -120 143q-67 0 -117 -56.5t-71.5 -130t-21.5 -147.5q0 -71 29.5 -108.5t87.5 -37.5q66 0 116.5 55.5t73.5 130.5
t23 151z" />
    <glyph glyph-name="Pecy" unicode="&#x41f;" horiz-adv-x="769" 
d="M796 705l-13 -90l-78 -30l-75 -472l69 -28l-14 -85h-296l14 85l77 28l75 472h-242l-73 -472l69 -28l-14 -85h-296l13 85l77 28l74 474l-68 30l13 83l224 5h464z" />
    <glyph glyph-name="Ercy" unicode="&#x420;" horiz-adv-x="605" 
d="M-3 0l14 87l78 24l75 477l-69 29l13 83l225 5h94q89 0 147 -42.5t58 -128.5q0 -98 -45 -165t-115 -95.5t-159 -28.5h-53l-21 -134l72 -24l-14 -87h-300zM278 362h53q75 0 111 39t36 102q0 43 -24.5 63.5t-62.5 20.5h-77z" />
    <glyph glyph-name="Escy" unicode="&#x421;" horiz-adv-x="645" 
d="M552 480l-13 94q-54 18 -108 18q-67 0 -117 -47.5t-73.5 -117.5t-23.5 -150q0 -74 36.5 -117.5t95.5 -43.5q96 0 196 70l53 -84q-135 -115 -282 -115q-119 0 -190 71t-71 191q0 206 110 337t283 131q52 0 106.5 -11.5t82.5 -23.5l28 -12l-30 -190h-83z" />
    <glyph glyph-name="Tecy" unicode="&#x422;" horiz-adv-x="577" 
d="M188 111l75 476h-93l-40 -97h-90l36 215h565l-34 -215h-90l-10 97h-94l-75 -476l77 -24l-14 -87h-311l14 87z" />
    <glyph glyph-name="Ucy" unicode="&#x423;" horiz-adv-x="627" 
d="M729 705l-14 -90l-73 -30l-209 -365q-133 -232 -270 -232q-64 0 -134 32l44 112q46 -19 99 -19q54 0 101 51l-164 421l-69 30l13 85l304 5l-14 -90l-83 -30l102 -280l159 280l-78 30l13 85z" />
    <glyph glyph-name="Efcy" unicode="&#x424;" horiz-adv-x="897" 
d="M576 660l-6 -37q155 -7 232 -54.5t77 -142.5q0 -278 -385 -303l-5 -33l70 -25l-14 -85h-283l14 85l75 25l5 32q-156 7 -229.5 54.5t-73.5 142.5q0 276 378 302l6 39l-70 25l13 90h285l-14 -90zM556 531l-47 -310q130 7 178 48t48 138q0 62 -42 90.5t-137 33.5zM371 221
l46 309q-114 -9 -167.5 -54.5t-53.5 -144.5q0 -55 39.5 -80.5t135.5 -29.5z" />
    <glyph glyph-name="Hacy" unicode="&#x425;" horiz-adv-x="665" 
d="M244 0h-287l14 87l76 23l206 240l-136 248l-62 19l13 83l295 5l-14 -88l-49 -15l70 -139l113 136l-42 18l13 83l282 5l-14 -88l-76 -21l-207 -233l139 -256l68 -20l-14 -87h-299l14 87l48 12l-70 145l-115 -140l48 -17z" />
    <glyph glyph-name="Tsecy" unicode="&#x426;" horiz-adv-x="775" 
d="M620 115l114 -15l-43 -295h-90l-27 195h-575l12 86l79 29l75 471l-69 30l13 84l301 5l-13 -89l-82 -30l-75 -466h229l75 466l-74 32l13 82l302 5l-14 -89l-77 -30z" />
    <glyph glyph-name="Checy" unicode="&#x427;" horiz-adv-x="712" 
d="M740 705l-15 -89l-77 -28l-75 -476l70 -26l-14 -86h-319l13 86l100 26l23 147q-84 -34 -175 -34q-92 0 -140 56t-32 164l21 143l-64 27l14 90h285l-13 -90l-72 -27l-21 -120q-12 -65 8.5 -91.5t71.5 -26.5q69 0 134 18l35 220l-64 27l13 85z" />
    <glyph glyph-name="Shacy" unicode="&#x428;" horiz-adv-x="1070" 
d="M1095 705l-14 -90l-78 -27l-74 -476l71 -26l-13 -86h-989l14 86l78 27l74 475l-68 27l12 85l292 5l-13 -90l-73 -27l-74 -468h195l73 468l-63 27l13 85l287 5l-14 -90l-72 -27l-74 -468h194l74 468l-68 27l13 85z" />
    <glyph glyph-name="Shchacy" unicode="&#x429;" horiz-adv-x="1084" 
d="M1003 588l-74 -473l115 -15l-44 -295h-90l-27 195h-885l14 85l79 30l73 473l-68 27l12 85l292 5l-13 -90l-73 -27l-74 -468h195l73 468l-63 27l13 85l287 5l-14 -90l-72 -27l-74 -468h194l74 468l-68 27l13 85l297 5l-14 -90z" />
    <glyph glyph-name="Hardsigncy" unicode="&#x42a;" horiz-adv-x="687" 
d="M380 432h93q97 0 153 -40.5t56 -124.5q0 -132 -81 -199.5t-211 -67.5h-303l14 87l78 25l75 473h-82l-39 -95h-90l33 215h443l-13 -89l-102 -30zM330 120h73q56 0 89.5 35.5t33.5 92.5q0 79 -105 79h-58z" />
    <glyph glyph-name="Yerucy" unicode="&#x42b;" horiz-adv-x="953" 
d="M290 432h94q97 0 153 -40.5t56 -124.5q0 -132 -81 -199.5t-211 -67.5h-303l14 87l77 24l76 477l-70 29l13 83l310 5l-13 -88l-90 -29zM982 705l-14 -88l-78 -30l-76 -476l70 -24l-14 -87h-297l14 87l77 24l76 477l-69 29l13 83zM241 120h73q56 0 89.5 35.5t33.5 92.5
q0 79 -105 79h-58z" />
    <glyph glyph-name="Softsigncy" unicode="&#x42c;" horiz-adv-x="608" 
d="M290 432h94q97 0 153 -40.5t56 -124.5q0 -132 -81 -199.5t-211 -67.5h-303l14 87l77 24l76 477l-70 29l13 83l310 5l-13 -88l-90 -29zM241 120h73q56 0 89.5 35.5t33.5 92.5q0 79 -105 79h-58z" />
    <glyph glyph-name="Ereversedcy" unicode="&#x42d;" horiz-adv-x="646" 
d="M90 484l23 183q118 50 241 50q128 0 195.5 -67.5t67.5 -197.5q0 -207 -110.5 -335.5t-280.5 -128.5q-109 0 -219 98l70 91q86 -59 169 -59q72 0 121 51.5t72 132.5h-249l16 110h251v19q0 82 -34 119.5t-102 37.5q-27 0 -53.5 -3t-39.5 -5l-13 -3l-30 -93h-95z" />
    <glyph glyph-name="Iucy" unicode="&#x42e;" horiz-adv-x="1034" 
d="M290 422h120q40 133 133.5 214t221.5 81q123 0 191.5 -69.5t68.5 -192.5q0 -130 -44 -235t-133.5 -169t-210.5 -64q-120 0 -186 67t-66 192q0 30 3 59h-116l-31 -194l70 -24l-14 -87h-297l14 87l77 24l76 477l-69 29l13 83l298 5l-14 -88l-78 -30zM662 112q53 0 94.5 32
t64 83.5t33.5 107.5t11 114q0 143 -120 143q-47 0 -86.5 -32.5t-63.5 -83.5t-37 -108t-13 -110q0 -71 29.5 -108.5t87.5 -37.5z" />
    <glyph glyph-name="Iacy" unicode="&#x42f;" horiz-adv-x="661" 
d="M297 86l76 26l23 145h-44q-27 0 -48.5 -19.5t-60.5 -72.5l-120 -165h-180l13 85l85 25l87 102q63 74 97 88q-49 19 -85.5 61.5t-36.5 104.5q0 109 79.5 174t208.5 65h298l-13 -89l-79 -30l-74 -474l69 -26l-14 -86h-295zM447 585h-80q-50 0 -82 -35.5t-32 -87.5t29 -76
t90 -24h40z" />
    <glyph glyph-name="acy" unicode="&#x430;" horiz-adv-x="615" 
d="M563 10l-215 -10l35 148q-4 -7 -12 -20.5t-29 -39t-44.5 -46t-58.5 -36.5t-70 -16q-65 0 -104 51.5t-39 129.5q0 91 26 164.5t69 119.5t97.5 70.5t113.5 24.5q31 0 60 -9t43 -19l14 -9l29 27h91l-70 -436l77 -15zM392 347l15 83q-29 12 -73 12q-69 0 -113.5 -71.5
t-44.5 -180.5q0 -39 13 -61t36 -22q28 0 55.5 24.5t46.5 60t34.5 71t22.5 59.5z" />
    <glyph glyph-name="becy" unicode="&#x431;" horiz-adv-x="622" 
d="M611 801l24 -110q-28 -7 -72 -16.5t-78 -18t-64 -18.5q-159 -52 -192 -181q66 78 184 78q172 0 172 -206q0 -154 -89 -246.5t-221 -92.5q-97 0 -148.5 57t-51.5 163q0 60 9.5 121.5t32.5 127.5t57.5 120.5t89.5 99t124 64.5q137 40 223 58zM289 105q54 0 90 38t48.5 83.5
t12.5 93.5q0 54 -19.5 77t-60.5 23q-65 0 -107.5 -51.5t-42.5 -163.5q0 -100 79 -100z" />
    <glyph glyph-name="vecy" unicode="&#x432;" horiz-adv-x="532" 
d="M414 269q63 -28 63 -99q0 -81 -75 -130.5t-165 -49.5q-98 0 -152 51.5t-54 148.5q0 151 90.5 255.5t220.5 104.5q78 0 121.5 -37.5t43.5 -95.5q0 -99 -93 -148zM310 439q-50 0 -84.5 -41.5t-48.5 -107.5q112 7 152.5 29.5t40.5 65.5q0 24 -15.5 39t-44.5 15zM247 90
q40 0 69 23.5t29 66.5q0 37 -26 47q-17 6 -64 3l-33 -3q-34 -2 -53 -3v-14q0 -120 78 -120z" />
    <glyph glyph-name="gecy" unicode="&#x433;" horiz-adv-x="500" 
d="M403 146l40 -74q-123 -82 -238 -82q-76 0 -126 37t-50 105q0 56 29.5 97.5t71.5 64.5t84 41t71.5 37t29.5 42q0 36 -45 36q-27 0 -62 -10t-56 -20l-22 -10l-37 70q20 12 48 25.5t78 29t91 15.5q69 0 110.5 -35.5t41.5 -101.5q0 -56 -30 -97.5t-73 -64.5t-86 -41.5
t-73 -37.5t-30 -42q0 -35 50 -35q32 0 74.5 11.5t67.5 21.5t41 18z" />
    <glyph glyph-name="decy" unicode="&#x434;" horiz-adv-x="574" 
d="M188 663l-6 94q66 24 130 24q100 0 163 -67.5t63 -218.5q0 -55 -5 -111t-25 -130.5t-51.5 -130t-91.5 -94.5t-140 -39q-95 0 -145 57t-50 168q0 137 67.5 228.5t174.5 91.5q62 0 99 -28.5t49 -61.5q14 120 -24.5 176.5t-105.5 56.5q-42 0 -102 -15zM254 110q48 0 81 34
t44.5 73.5t11.5 78.5q0 55 -21.5 92t-66.5 37q-59 0 -93.5 -62t-34.5 -138q0 -115 79 -115z" />
    <glyph glyph-name="iecy" unicode="&#x435;" horiz-adv-x="522" 
d="M418 141l42 -74q-36 -25 -101 -51t-134 -26q-91 0 -145 49t-54 136q0 163 88 269t213 106q88 0 139 -38.5t51 -104.5q0 -86 -91.5 -139.5t-253.5 -54.5q0 -62 23 -85t71 -23q20 0 46.5 5t42.5 10t39 13zM372 389q0 48 -57 48q-44 0 -80 -38t-51 -98q91 2 139.5 27
t48.5 61z" />
    <glyph glyph-name="zhecy" unicode="&#x436;" horiz-adv-x="956" 
d="M865 375l-8 65q-23 9 -35 9q-45 0 -79 -84t-34 -190q0 -45 16.5 -70t46.5 -25q16 0 33.5 4t29 8.5t26.5 11t17 7.5l28 -65q-88 -56 -175 -56q-66 0 -99 44.5t-33 125.5q0 37 5 80h-70l-38 -240h-120l38 240h-72q-26 -114 -90 -182t-146 -68q-59 0 -118 26l28 149h75
l8 -65q15 -6 37 -6q45 0 78 82.5t33 188.5q0 45 -16.5 70t-46.5 25q-16 0 -33.5 -4t-29 -8.5t-26.5 -11t-17 -7.5l-28 65q88 56 175 56q66 0 99 -44.5t33 -125.5q0 -18 -2 -50h73l33 207l120 5l-33 -212h74q29 102 90.5 161t137.5 59q59 0 118 -26l-28 -149h-75z" />
    <glyph glyph-name="zecy" unicode="&#x437;" horiz-adv-x="486" 
d="M-13 49l38 88q86 -42 158 -42q91 0 91 71q0 32 -22.5 47.5t-75.5 15.5h-48l13 90h43q62 0 88.5 16.5t26.5 51.5q0 58 -71 58q-43 0 -79 -15l-13 -59h-91l20 135q71 44 180 44q83 0 135.5 -32.5t52.5 -98.5q0 -53 -35.5 -88t-94.5 -49q49 -5 82 -34.5t33 -89.5
q0 -70 -69 -119.5t-165 -49.5q-64 0 -108.5 15t-88.5 45z" />
    <glyph glyph-name="iicy" unicode="&#x438;" 
d="M362 0l34 159q-7 -13 -19.5 -32t-41 -54.5t-70.5 -59t-87 -23.5q-110 0 -110 121q0 33 5 59l43 262l-77 20l13 80l222 8l-55 -343q-3 -19 -3 -35q0 -50 38 -50q31 0 60.5 28.5t50 71t32 74t18.5 56.5l33 198h141l-69 -436l76 -15l-13 -79z" />
    <glyph glyph-name="iishortcy" unicode="&#x439;" 
d="M198 755l111 28q8 -85 96 -85q82 0 136 85l48 -33q-30 -56 -91.5 -98t-131.5 -42q-73 0 -116 38.5t-52 106.5zM362 0l34 159q-7 -13 -19.5 -32t-41 -54.5t-70.5 -59t-87 -23.5q-110 0 -110 121q0 33 5 59l43 262l-77 20l13 80l222 8l-55 -343q-3 -19 -3 -35q0 -50 38 -50
q31 0 60.5 28.5t50 71t32 74t18.5 56.5l33 198h141l-69 -436l76 -15l-13 -79z" />
    <glyph glyph-name="kacy" unicode="&#x43a;" horiz-adv-x="560" 
d="M252 339h65l82 102l-40 14l12 80l238 5l-13 -85l-65 -12l-118 -137l83 -203l72 -23l-11 -80h-173l-88 244h-59l-40 -244h-144l69 433l-78 19l14 81l227 9z" />
    <glyph glyph-name="elcy" unicode="&#x43b;" horiz-adv-x="612" 
d="M568 90l-13 -80l-224 -10l65 420h-109q-20 -92 -36 -152.5t-38.5 -117.5t-48.5 -89.5t-62 -51.5t-82 -19q-39 0 -72 14l34 115q18 -6 39 -6q65 0 99.5 71.5t67.5 245.5l-114 22l14 88h472l-68 -435z" />
    <glyph glyph-name="emcy" unicode="&#x43c;" horiz-adv-x="892" 
d="M837 80l-13 -80h-213l63 366l-244 -366l-68 -5l-94 339q-21 -90 -40.5 -148.5t-47 -105.5t-64.5 -68.5t-86 -21.5q-39 0 -72 14l34 115q18 -6 39 -6q61 0 92 70t65 247l-113 22l15 88h250l103 -365l234 360l158 5l-74 -435z" />
    <glyph glyph-name="ency" unicode="&#x43d;" horiz-adv-x="676" 
d="M632 90l-13 -80l-224 -10l35 227h-195l-35 -227h-146l66 430l-75 25l12 80l226 5l-32 -208h196l31 202l147 6l-68 -435z" />
    <glyph glyph-name="ocy" unicode="&#x43e;" horiz-adv-x="579" 
d="M244 -10q-102 0 -158 55t-56 155q0 159 83 254.5t219 95.5q103 0 159.5 -56.5t56.5 -154.5q0 -158 -84 -253.5t-220 -95.5zM398 345q-3 85 -83 85q-61 0 -98 -64t-37 -158q0 -98 81 -98q38 0 66.5 22.5t43 59t21 75t6.5 78.5z" />
    <glyph glyph-name="pecy" unicode="&#x43f;" horiz-adv-x="648" 
d="M282 540l-34 -160q4 9 12 22t29.5 41.5t45 50t59.5 39t73 17.5q57 0 86 -33t29 -89q0 -25 -5 -58l-46 -265l78 -15l-13 -80l-226 -10l55 340q4 26 4 36q0 49 -38 49q-40 0 -79.5 -54t-61 -111t-25.5 -89l-29 -171h-144l69 432l-77 20l13 80z" />
    <glyph glyph-name="ercy" unicode="&#x440;" horiz-adv-x="616" 
d="M275 540l-40 -152q6 12 11.5 22.5t26.5 39t43 48t57 36t72 16.5q68 0 106 -53t38 -132q0 -169 -92 -271.5t-216 -102.5q-50 0 -88 18l-22 -134l77 -25l-13 -80h-221l103 662l-73 20l13 80zM225 193l-15 -82q34 -11 71 -11q63 0 110.5 71t47.5 171q0 38 -13.5 63t-41.5 25
t-55 -24.5t-45 -59t-32 -69.5t-20 -59z" />
    <glyph glyph-name="escy" unicode="&#x441;" horiz-adv-x="485" 
d="M400 151l43 -79q-120 -82 -228 -82q-87 0 -137 50t-50 143q0 166 86 266.5t224 100.5q66 0 155 -40l-25 -158h-88l-5 70q-20 9 -53 9q-48 0 -82 -35.5t-49 -85.5t-15 -107q0 -43 22 -68t60 -25q52 0 142 41z" />
    <glyph glyph-name="tecy" unicode="&#x442;" horiz-adv-x="938" 
d="M278 540l-33 -161q58 116 142 155q34 16 69 16q54 0 81 -33t27 -88q0 -17 -3 -37q11 23 27 46t41 50.5t60 44.5t73 17q110 0 110 -122q0 -25 -5 -58l-43 -265l75 -15l-13 -80l-221 -10l56 342q3 20 3 36q0 49 -38 49q-49 0 -90 -74t-64 -160l-31 -193h-141l55 342
q3 20 3 36q0 49 -38 49q-48 0 -89.5 -76.5t-68.5 -180.5l-28 -170h-141l68 432l-77 20l13 80z" />
    <glyph glyph-name="ucy" unicode="&#x443;" horiz-adv-x="563" 
d="M9 452l12 80l192 8l68 -326l6 -62l118 286l-62 14l12 80l251 8l-14 -85l-49 -16l-191 -423q-67 -149 -117.5 -202.5t-138.5 -53.5q-27 0 -58.5 5t-49.5 10l-19 5l28 100q39 -5 74 -5q50 0 74.5 19.5t50.5 77.5l-118 463z" />
    <glyph glyph-name="efcy" unicode="&#x444;" horiz-adv-x="762" 
d="M522 775l-35 -220q121 -10 183.5 -67.5t62.5 -152.5q0 -141 -89.5 -228.5t-244.5 -103.5l-21 -128l77 -25l-14 -80h-197l37 232q-123 10 -187 66.5t-64 148.5q0 140 92 230t248 107l18 113l-77 20l13 88h198zM472 461l-58 -362q180 30 180 227q0 117 -122 135zM297 98
l57 360q-88 -16 -137 -75t-49 -148q0 -115 129 -137z" />
    <glyph glyph-name="hacy" unicode="&#x445;" horiz-adv-x="548" 
d="M569 455l-71 -16l-138 -168l87 -173l76 -14l-13 -79l-171 -10l-84 184l-127 -179h-154l13 80l67 23l136 172l-85 162l-71 15l13 80l166 8l79 -177l128 172l163 5z" />
    <glyph glyph-name="tsecy" unicode="&#x446;" horiz-adv-x="676" 
d="M588 -175h-127l108 213l-6 6q-31 -26 -52 -36.5t-50 -10.5q-48 0 -67.5 40t-8.5 117q-7 -14 -17 -29t-31 -41t-44 -45.5t-56 -34t-67 -14.5q-110 0 -110 121q0 31 48 321l-77 20l13 80l222 8q-58 -357 -58 -378q0 -50 38 -50q31 0 60.5 28.5t50 71t32 74t18.5 56.5
l33 198h138l-70 -438l128 8l12 -14z" />
    <glyph glyph-name="checy" unicode="&#x447;" horiz-adv-x="596" 
d="M552 90l-13 -80l-224 -10l45 254q-26 -37 -77.5 -70.5t-107.5 -33.5q-83 0 -109 53.5t-9 158.5l11 69l-64 24l13 80l215 5l-29 -166q-11 -56 -1.5 -80t45.5 -24q33 0 69.5 25.5t58.5 57.5l26 181l144 6l-68 -435z" />
    <glyph glyph-name="shacy" unicode="&#x448;" horiz-adv-x="936" 
d="M892 89l-13 -79l-221 -10l34 159q-5 -11 -11.5 -22.5t-27.5 -40.5t-42.5 -50t-55 -38.5t-67.5 -17.5t-57.5 16t-33.5 43t-13 53t-2 55q-11 -21 -26 -44t-40.5 -53.5t-60 -50t-71.5 -19.5q-110 0 -110 121q0 30 48 321l-77 20l13 80l222 8q-58 -364 -58 -378q0 -50 38 -50
q30 0 64 45t56 95t29 82l30 198l145 8q-58 -361 -58 -378q0 -50 38 -50q23 0 48.5 29t45.5 70t33.5 75.5t19.5 55.5l33 198h141l-69 -436z" />
    <glyph glyph-name="shchacy" unicode="&#x449;" horiz-adv-x="982" 
d="M875 38l-6 6q-31 -26 -52 -36.5t-50 -10.5q-48 0 -68 41.5t-7 120.5q-5 -11 -11.5 -22.5t-27.5 -40.5t-42.5 -50t-55 -38.5t-67.5 -17.5q-32 0 -54.5 16.5t-33 43.5t-14.5 53.5t-3 55.5q-11 -21 -25.5 -43.5t-40 -54t-61 -51.5t-72.5 -20q-110 0 -110 121q0 25 48 321
l-77 20l13 80l222 8q-58 -359 -58 -378q0 -50 38 -50q30 0 64 45t56 95t29 82l30 198l145 8q-58 -364 -58 -378q0 -50 38 -50q30 0 63.5 46.5t55 98t28.5 85.5l33 198h141l-71 -438l128 8l12 -14l-60 -271h-127z" />
    <glyph glyph-name="hardsigncy" unicode="&#x44a;" horiz-adv-x="592" 
d="M395 540l-15 -85q-79 -121 -108 -198q88 108 182 108q56 0 88.5 -34t32.5 -91q0 -104 -72.5 -177t-171.5 -73q-179 0 -179 155q0 102 101 285h-104l-28 -91h-94l16 201h352zM330 100q39 0 66.5 28t27.5 74q0 20 -13 31.5t-36 11.5q-25 0 -53.5 -18.5t-43.5 -44.5
q-3 -12 -3 -26q0 -56 55 -56z" />
    <glyph glyph-name="yerucy" unicode="&#x44b;" horiz-adv-x="809" 
d="M253 360l-22 -67q23 21 62.5 42t78.5 21q57 0 91.5 -35.5t34.5 -95.5q0 -106 -72 -170.5t-183 -64.5q-90 0 -135.5 54t-25.5 155l47 231l-74 25l12 80l225 5zM689 105l76 -15l-13 -80l-224 -10l85 540h145zM267 100q39 0 59.5 30t20.5 71q0 21 -11.5 33.5t-30.5 12.5
q-42 0 -85 -43q-8 -53 1.5 -78.5t45.5 -25.5z" />
    <glyph glyph-name="softsigncy" unicode="&#x44c;" horiz-adv-x="529" 
d="M253 360l-22 -67q23 21 62.5 42t78.5 21q57 0 91.5 -35.5t34.5 -95.5q0 -106 -72 -170.5t-183 -64.5q-90 0 -135.5 54t-25.5 155l47 231l-74 25l12 80l225 5zM267 100q39 0 59.5 30t20.5 71q0 21 -11.5 33.5t-30.5 12.5q-42 0 -85 -43q-8 -53 1.5 -78.5t45.5 -25.5z" />
    <glyph glyph-name="ereversedcy" unicode="&#x44d;" horiz-adv-x="513" 
d="M58 356l19 153q97 41 185 41q106 0 163.5 -53.5t57.5 -155.5q0 -153 -86 -252t-217 -99q-118 0 -197 79l63 92q76 -51 138 -51q42 0 77 28t53 78h-176l21 100h170q-1 56 -22 85t-72 29q-15 0 -31.5 -2t-25.5 -4l-9 -2l-23 -66h-88z" />
    <glyph glyph-name="iucy" unicode="&#x44e;" horiz-adv-x="878" 
d="M274 332h64q30 102 105 160t179 58q103 0 159.5 -56.5t56.5 -154.5q0 -158 -84 -253.5t-220 -95.5q-102 0 -158 55t-56 155l1 27h-64l-35 -227h-145l66 430l-73 25l12 80l224 5zM551 110q38 0 66.5 22.5t43 59t21 75t6.5 78.5q-3 85 -83 85q-61 0 -98 -64t-37 -158
q0 -98 81 -98z" />
    <glyph glyph-name="iacy" unicode="&#x44f;" horiz-adv-x="579" 
d="M540 90l-13 -80l-221 -10l32 191q-25 -5 -52 -5h-9q-29 -56 -70 -108t-77 -78h-168l13 80l65 20q33 19 67.5 51.5t55.5 62.5q-73 41 -73 126q0 81 67.5 145t185.5 64q83 0 190 -25l-66 -419zM353 283l26 155q-23 7 -46 7q-45 0 -75.5 -28.5t-30.5 -73.5q0 -66 82 -66
q21 0 44 6z" />
    <glyph glyph-name="iegravecy" unicode="&#x450;" horiz-adv-x="522" 
d="M233 841l260 -169l-38 -75l-271 132zM418 141l42 -74q-36 -25 -101 -51t-134 -26q-91 0 -145 49t-54 136q0 163 88 269t213 106q88 0 139 -38.5t51 -104.5q0 -86 -91.5 -139.5t-253.5 -54.5q0 -62 23 -85t71 -23q20 0 46.5 5t42.5 10t39 13zM372 389q0 48 -57 48
q-44 0 -80 -38t-51 -98q91 2 139.5 27t48.5 61z" />
    <glyph glyph-name="iocy" unicode="&#x451;" horiz-adv-x="522" 
d="M418 141l42 -74q-36 -25 -101 -51t-134 -26q-91 0 -145 49t-54 136q0 163 88 269t213 106q88 0 139 -38.5t51 -104.5q0 -86 -91.5 -139.5t-253.5 -54.5q0 -62 23 -85t71 -23q20 0 46.5 5t42.5 10t39 13zM372 389q0 48 -57 48q-44 0 -80 -38t-51 -98q91 2 139.5 27
t48.5 61zM102 694q0 40 22 68t61 28q29 0 45.5 -16.5t16.5 -44.5q0 -40 -23.5 -67.5t-61.5 -27.5q-28 0 -44 16t-16 44zM315 694q0 40 22 68t60 28q29 0 45.5 -16.5t16.5 -44.5q0 -40 -23 -67.5t-61 -27.5q-28 0 -44 16t-16 44z" />
    <glyph glyph-name="djecy" unicode="&#x452;" horiz-adv-x="624" 
d="M276 555l-36 -208q4 10 18 31.5t41 55t69 57.5t87 24q112 0 112 -119q0 -60 -25 -196q-18 -96 -32 -159t-31.5 -114.5t-34.5 -80.5t-42 -48.5t-53 -26t-68 -6.5q-26 0 -51 4.5t-37 8.5l-12 5l27 92q34 -6 58 -6q32 0 48 16.5t35 82t48 218.5q21 110 20 159q-2 49 -38 49
q-40 0 -77.5 -49.5t-55.5 -95t-22 -67.5l-33 -182h-145l89 555h-78l12 75h78l6 37l-77 20l13 80l226 8l-25 -145h188l-12 -75h-190z" />
    <glyph glyph-name="gjecy" unicode="&#x453;" horiz-adv-x="500" 
d="M478 741l-52 104l-249 -172l46 -73zM403 146l40 -74q-123 -82 -238 -82q-76 0 -126 37t-50 105q0 56 29.5 97.5t71.5 64.5t84 41t71.5 37t29.5 42q0 36 -45 36q-27 0 -62 -10t-56 -20l-22 -10l-37 70q20 12 48 25.5t78 29t91 15.5q69 0 110.5 -35.5t41.5 -101.5
q0 -56 -30 -97.5t-73 -64.5t-86 -41.5t-73 -37.5t-30 -42q0 -35 50 -35q32 0 74.5 11.5t67.5 21.5t41 18z" />
    <glyph glyph-name="ecy" unicode="&#x454;" horiz-adv-x="510" 
d="M390 352l-5 70q-30 9 -63 9q-90 0 -129 -115h173l-17 -100h-173v-13q0 -42 26.5 -67.5t65.5 -25.5q62 0 152 41l43 -79q-118 -82 -228 -82q-92 0 -149.5 50t-57.5 143q0 166 86 266.5t224 100.5q76 0 165 -40l-25 -158h-88z" />
    <glyph glyph-name="dzecy" unicode="&#x455;" horiz-adv-x="487" 
d="M123 175v-70q29 -11 69 -11q85 0 85 58q0 22 -22 40.5t-53 33.5t-62 33t-53 49t-22 72q0 84 62 127t161 43q40 0 82.5 -7t65.5 -14l22 -7l-27 -150h-86l-5 65q-21 9 -58 9q-33 0 -51.5 -14t-18.5 -39q0 -22 22.5 -40.5t54 -33.5t63.5 -32.5t54.5 -47.5t22.5 -70
q0 -84 -67.5 -131.5t-176.5 -47.5q-40 0 -83.5 6t-67.5 12l-23 7l26 160h86z" />
    <glyph glyph-name="icy" unicode="&#x456;" horiz-adv-x="334" 
d="M147 685q0 46 26.5 78t68.5 32q31 0 50 -18t19 -52q0 -47 -26 -79.5t-67 -32.5q-32 0 -51.5 18.5t-19.5 53.5zM214 105l76 -15l-13 -80l-224 -10l68 432l-77 20l14 80l225 8z" />
    <glyph glyph-name="yicy" unicode="&#x457;" horiz-adv-x="330" 
d="M42 694q0 40 22 68t61 28q29 0 45.5 -16.5t16.5 -44.5q0 -40 -23.5 -67.5t-61.5 -27.5q-28 0 -44 16t-16 44zM236 694q0 40 22 68t60 28q29 0 45.5 -16.5t16.5 -44.5q0 -40 -23 -67.5t-61 -27.5q-28 0 -44 16t-16 44zM210 105l76 -15l-13 -80l-220 -10l68 432l-77 20
l14 80l221 8z" />
    <glyph glyph-name="jecy" unicode="&#x458;" horiz-adv-x="329" 
d="M144 685q0 46 26.5 78t68.5 32q32 0 51 -18t19 -52q0 -47 -26 -79.5t-68 -32.5q-32 0 -51.5 18.5t-19.5 53.5zM59 532l222 8l-94 -583q-15 -95 -72 -148.5t-149 -53.5q-19 0 -44 3.5t-40 7.5l-16 4l20 88q3 0 25 -1.5t38 -1.5q51 0 70.5 28t31.5 101l72 448l-78 20z" />
    <glyph glyph-name="ljecy" unicode="&#x459;" horiz-adv-x="812" 
d="M536 360l-22 -67q23 21 62.5 42t78.5 21q57 0 91.5 -35.5t34.5 -95.5q0 -106 -72 -170.5t-183 -64.5q-90 0 -135.5 54t-25.5 155l45 221h-123q-20 -92 -36 -152.5t-38.5 -117.5t-48.5 -89.5t-62 -51.5t-82 -19q-39 0 -72 14l34 115q18 -6 39 -6q65 0 99.5 71.5
t67.5 245.5l-114 22l14 88h487zM550 100q39 0 59.5 30t20.5 71q0 21 -11.5 33.5t-30.5 12.5q-42 0 -85 -43q-8 -53 1.5 -78.5t45.5 -25.5z" />
    <glyph glyph-name="njecy" unicode="&#x45a;" horiz-adv-x="868" 
d="M588 360l-22 -67q23 21 62.5 42t78.5 21q57 0 91.5 -35.5t34.5 -95.5q0 -106 -72 -170.5t-183 -64.5q-90 0 -135.5 54t-25.5 155l5 28h-190l-35 -227h-145l66 430l-73 25l12 80l224 5l-32 -208h194l39 203l145 5zM602 100q39 0 59.5 30t20.5 71q0 21 -11.5 33.5
t-30.5 12.5q-42 0 -85 -43q-8 -53 1.5 -78.5t45.5 -25.5z" />
    <glyph glyph-name="tshecy" unicode="&#x45b;" horiz-adv-x="639" 
d="M600 90l-13 -80l-224 -10l50 309q3 19 3 36q0 49 -38 49q-31 0 -59 -24t-47 -60t-31 -69t-17 -59l-33 -182h-145l89 555h-78l12 75h78l6 37l-77 20l13 80l226 8l-26 -145h189l-12 -75h-190l-31 -175q3 8 17 26t39 44.5t66.5 45.5t86.5 19q112 0 112 -119q0 -24 -5 -59
l-36 -232z" />
    <glyph glyph-name="kjecy" unicode="&#x45c;" horiz-adv-x="560" 
d="M540 741l-52 104l-249 -172l46 -73zM252 339h65l82 102l-40 14l12 80l238 5l-13 -85l-65 -12l-118 -137l83 -203l72 -23l-11 -80h-173l-88 244h-59l-40 -244h-144l69 433l-78 19l14 81l227 9z" />
    <glyph glyph-name="iigravecy" unicode="&#x45d;" 
d="M230 841l260 -169l-38 -75l-271 132zM362 0l34 159q-7 -13 -19.5 -32t-41 -54.5t-70.5 -59t-87 -23.5q-110 0 -110 121q0 33 5 59l43 262l-77 20l13 80l222 8l-55 -343q-3 -19 -3 -35q0 -50 38 -50q31 0 60.5 28.5t50 71t32 74t18.5 56.5l33 198h141l-69 -436l76 -15
l-13 -79z" />
    <glyph glyph-name="ushortcy" unicode="&#x45e;" horiz-adv-x="563" 
d="M136 755l111 28q8 -85 96 -85q82 0 136 85l48 -33q-30 -56 -91.5 -98t-131.5 -42q-73 0 -116 38.5t-52 106.5zM9 452l12 80l192 8l68 -326l6 -62l118 286l-62 14l12 80l251 8l-14 -85l-49 -16l-191 -423q-67 -149 -117.5 -202.5t-138.5 -53.5q-27 0 -58.5 5t-49.5 10
l-19 5l28 100q39 -5 74 -5q50 0 74.5 19.5t50.5 77.5l-118 463z" />
    <glyph glyph-name="dzhecy" unicode="&#x45f;" 
d="M362 0l34 159q-7 -13 -19.5 -32t-41 -54.5t-70.5 -59t-87 -23.5q-110 0 -110 121q0 31 48 321l-77 20l13 80l222 8q-58 -357 -58 -378q0 -50 38 -50q31 0 60.5 28.5t50 71t32 74t18.5 56.5l33 198h141l-69 -436l76 -15l-13 -79zM244 -45h84l-34 -175h-121z" />
    <glyph glyph-name="Gheupturncy" unicode="&#x490;" horiz-adv-x="544" 
d="M599 588h-286l-72 -473l109 -30l-14 -85h-336l14 85l77 30l72 470l-67 30l12 85l224 5h142l83 195h92z" />
    <glyph glyph-name="gheupturncy" unicode="&#x491;" horiz-adv-x="486" 
d="M505 420l-2 2l1 -2h-226l-50 -315l94 -25l-12 -80h-323l13 80l83 25l50 325l-73 25l12 80l225 5h110l41 140h92z" />
    <glyph glyph-name="Ustraitstrokecy" unicode="&#x4b0;" horiz-adv-x="620" 
d="M691 705l-14 -88l-74 -28l-198 -311h132l-15 -105h-157l-10 -61l70 -25l-14 -87h-296l14 87l78 25l10 61h-137l15 105h123l-97 317l-76 22l13 83l188 5l90 -329l127 219l-68 22l13 83z" />
    <glyph glyph-name="ustraitstrokecy" unicode="&#x4b1;" horiz-adv-x="576" 
d="M627 540l-12 -85l-63 -13l-190 -352h120l-14 -90h-146l-20 -125l94 -25l-13 -80h-340l13 80l100 25l21 125h-148l15 90h123l-76 349l-55 16l11 80l170 5l66 -398l136 300l-59 13l12 80z" />
    <glyph glyph-name="Wgrave" unicode="&#x1e80;" horiz-adv-x="978" 
d="M409 957l242 -131l-38 -80l-251 103zM45 617l13 83l193 5l62 -471l194 463l116 8l63 -474l148 357l-69 29l15 83l278 5l-15 -88l-72 -29l-267 -588h-117l-65 440l-197 -440h-117l-93 590z" />
    <glyph glyph-name="wgrave" unicode="&#x1e81;" horiz-adv-x="822" 
d="M357 841l260 -169l-38 -75l-271 132zM669 437l-64 15l13 80l242 8l-14 -85l-42 -13l-202 -442h-149l-42 300l-121 -300h-148l-69 439l-64 13l13 80l190 8l41 -375l141 361l116 16l49 -377z" />
    <glyph glyph-name="Wacute" unicode="&#x1e82;" horiz-adv-x="978" 
d="M437 738l-38 80l245 130l53 -104zM45 617l13 83l193 5l62 -471l194 463l116 8l63 -474l148 357l-69 29l15 83l278 5l-15 -88l-72 -29l-267 -588h-117l-65 440l-197 -440h-117l-93 590z" />
    <glyph glyph-name="wacute" unicode="&#x1e83;" horiz-adv-x="822" 
d="M640 741l-52 104l-249 -172l46 -73zM669 437l-64 15l13 80l242 8l-14 -85l-42 -13l-202 -442h-149l-42 300l-121 -300h-148l-69 439l-64 13l13 80l190 8l41 -375l141 361l116 16l49 -377z" />
    <glyph glyph-name="Wdieresis" unicode="&#x1e84;" horiz-adv-x="973" 
d="M394 830q0 40 22 68t61 28q29 0 45.5 -16.5t16.5 -44.5q0 -40 -23.5 -67.5t-61.5 -27.5q-28 0 -44 16t-16 44zM607 830q0 40 22 68t60 28q29 0 45.5 -16.5t16.5 -44.5q0 -40 -23 -67.5t-61 -27.5q-28 0 -44 16t-16 44zM35 617l13 83l193 5l62 -471l194 463l116 8l63 -474
l148 357l-69 29l15 83l278 5l-15 -88l-72 -29l-267 -588h-117l-65 440l-197 -440h-117l-93 590z" />
    <glyph glyph-name="wdieresis" unicode="&#x1e85;" horiz-adv-x="822" 
d="M300 680q0 40 22 68t61 28q29 0 45.5 -16.5t16.5 -44.5q0 -40 -23.5 -67.5t-61.5 -27.5q-28 0 -44 16t-16 44zM513 680q0 40 22 68t60 28q29 0 45.5 -16.5t16.5 -44.5q0 -40 -23 -67.5t-61 -27.5q-28 0 -44 16t-16 44zM669 437l-64 15l13 80l242 8l-14 -85l-42 -13
l-202 -442h-149l-42 300l-121 -300h-148l-69 439l-64 13l13 80l190 8l41 -375l141 361l116 16l49 -377z" />
    <glyph glyph-name="Ygrave" unicode="&#x1ef2;" horiz-adv-x="617" 
d="M186 957l242 -131l-38 -80l-251 103zM411 0h-296l14 87l78 25l21 134l-107 349l-76 22l13 83l188 5l90 -329l127 219l-68 22l13 83l283 5l-14 -88l-74 -28l-229 -359l-19 -118l70 -25z" />
    <glyph glyph-name="ygrave" unicode="&#x1ef3;" horiz-adv-x="563" 
d="M120 841l260 -169l-38 -75l-271 132zM9 452l12 80l192 8l68 -326l6 -62l118 286l-62 14l12 80l251 8l-14 -85l-49 -16l-191 -423q-67 -149 -117.5 -202.5t-138.5 -53.5q-27 0 -58.5 5t-49.5 10l-19 5l28 100q39 -5 74 -5q50 0 74.5 19.5t50.5 77.5l-118 463z" />
    <glyph glyph-name="endash" unicode="&#x2013;" horiz-adv-x="493" 
d="M498 385l-19 -118h-484l18 118h485z" />
    <glyph glyph-name="emdash" unicode="&#x2014;" horiz-adv-x="928" 
d="M943 385l-18 -118h-940l18 118h940z" />
    <glyph glyph-name="horizontalbar" unicode="&#x2015;" horiz-adv-x="928" 
d="M947 385l-19 -118h-930l19 118h930z" />
    <glyph glyph-name="underscoredbl" unicode="&#x2017;" horiz-adv-x="518" 
d="M433 -80v-100h-504v100h504zM433 -260v-100h-504v100h504z" />
    <glyph glyph-name="quoteleft" unicode="&#x2018;" horiz-adv-x="289" 
d="M266 787l53 -52q-79 -82 -79 -121q0 -11 9 -36t9 -43q0 -44 -27 -72.5t-68 -28.5q-35 0 -54 19.5t-19 54.5q0 63 54.5 139t121.5 140z" />
    <glyph glyph-name="quoteright" unicode="&#x2019;" horiz-adv-x="286" 
d="M123 434l-53 53q79 82 79 121q0 11 -9 35.5t-9 42.5q0 44 27 72.5t68 28.5q34 0 53.5 -19.5t19.5 -53.5q0 -109 -176 -280z" />
    <glyph glyph-name="quotesinglbase" unicode="&#x201a;" horiz-adv-x="288" 
d="M32 -209l-52 52q78 82 78 121q0 11 -9 35.5t-9 42.5q0 44 27 72.5t68 28.5q35 0 54 -19.5t19 -53.5q0 -63 -54.5 -139t-121.5 -140z" />
    <glyph glyph-name="quotereversed" unicode="&#x201b;" horiz-adv-x="302" 
d="M303 487l-61 -53q-149 171 -132 280q5 35 27.5 54t56.5 19q41 0 63.5 -28.5t15.5 -72.5q-3 -18 -15.5 -42.5t-14.5 -35.5q-3 -17 12 -47.5t31 -52.5z" />
    <glyph glyph-name="quotedblleft" unicode="&#x201c;" horiz-adv-x="514" 
d="M266 787l53 -52q-79 -82 -79 -121q0 -11 9 -36t9 -43q0 -44 -27 -72.5t-68 -28.5q-35 0 -54 19.5t-19 54.5q0 63 54.5 139t121.5 140zM491 787l53 -52q-79 -82 -79 -121q0 -11 9 -36t9 -43q0 -44 -27 -72.5t-68 -28.5q-35 0 -54 19.5t-19 54.5q0 63 54.5 139t121.5 140z
" />
    <glyph glyph-name="quotedblright" unicode="&#x201d;" horiz-adv-x="554" 
d="M123 434l-53 53q79 82 79 121q0 11 -9 35.5t-9 42.5q0 44 27 72.5t68 28.5q34 0 53.5 -19.5t19.5 -53.5q0 -109 -176 -280zM348 434l-53 53q79 82 79 121q0 11 -9 35.5t-9 42.5q0 44 27 72.5t68 28.5q35 0 54 -19.5t19 -53.5q0 -109 -176 -280z" />
    <glyph glyph-name="quotedblbase" unicode="&#x201e;" horiz-adv-x="463" 
d="M22 -209l-52 52q78 82 78 121q0 11 -9 35.5t-9 42.5q0 44 27 72.5t68 28.5q35 0 54 -19.5t19 -53.5q0 -63 -54.5 -139t-121.5 -140zM247 -209l-53 52q79 82 79 121q0 11 -9 35.5t-9 42.5q0 44 27 72.5t68 28.5q34 0 53.5 -19.5t19.5 -53.5q0 -63 -54.5 -139t-121.5 -140z
" />
    <glyph glyph-name="dagger" unicode="&#x2020;" horiz-adv-x="488" 
d="M246 610l17 142l122 8l-30 -150h161l-14 -95l-223 -34l-209 34l15 95h161zM271 426l79 17l-75 -392l-69 -51l-52 51l44 392z" />
    <glyph glyph-name="daggerdbl" unicode="&#x2021;" horiz-adv-x="488" 
d="M246 610l17 142l122 8l-30 -150h161l-14 -95l-223 -34l-209 34l15 95h161zM272 431l174 29l-15 -99l-177 -42l-165 42l14 99zM247 270l72 16l-44 -235l-69 -51l-52 51l27 235z" />
    <glyph glyph-name="bullet" unicode="&#x2022;" horiz-adv-x="508" 
d="M85 315q0 78 55.5 133.5t133.5 55.5t133.5 -55.5t55.5 -133.5t-55.5 -133.5t-133.5 -55.5t-133.5 55.5t-55.5 133.5z" />
    <glyph glyph-name="ellipsis" unicode="&#x2026;" horiz-adv-x="770" 
d="M30 59q0 46 25 77.5t71 31.5q33 0 53.5 -19t20.5 -52q0 -46 -26 -78t-72 -32q-33 0 -52.5 19.5t-19.5 52.5zM276 59q0 46 25 77.5t71 31.5q33 0 53 -19t20 -52q0 -47 -25.5 -78.5t-72.5 -31.5q-33 0 -52 19.5t-19 52.5zM521 59q0 46 25 77.5t71 31.5q33 0 53 -19t20 -52
q0 -47 -25.5 -78.5t-72.5 -31.5q-33 0 -52 19.5t-19 52.5z" />
    <glyph glyph-name="perthousand" unicode="&#x2030;" horiz-adv-x="1175" 
d="M290 717q67 0 103.5 -34.5t36.5 -97.5q0 -101 -55.5 -168t-148.5 -67q-70 0 -108 34t-38 100q0 102 59 167.5t151 65.5zM241 436q32 0 54 38t22 88q0 35 -10.5 52t-36.5 17q-33 0 -55 -38t-22 -90q0 -67 48 -67zM683 353q67 0 103.5 -34.5t36.5 -97.5
q0 -101 -55.5 -167.5t-148.5 -66.5q-71 0 -108.5 33.5t-37.5 99.5q0 102 59 167.5t151 65.5zM634 72q32 0 54 38t22 88q0 35 -10.5 52t-36.5 17q-33 0 -55 -38t-22 -90q0 -67 48 -67zM1061 353q67 0 103.5 -34.5t36.5 -97.5q0 -101 -55 -167.5t-148 -66.5q-71 0 -108.5 33.5
t-37.5 99.5q0 102 59 167.5t150 65.5zM1012 72q34 0 55 40.5t21 94.5q0 60 -47 60q-34 0 -55 -39.5t-21 -95.5q0 -60 47 -60zM779 712l-519 -719h-140l519 719h140z" />
    <glyph glyph-name="minute" unicode="&#x2032;" horiz-adv-x="237" 
d="M93 508l68 280l121 -14l-88 -278z" />
    <glyph glyph-name="second" unicode="&#x2033;" horiz-adv-x="433" 
d="M93 508l68 280l121 -14l-88 -278zM289 508l68 280l121 -14l-88 -278z" />
    <glyph glyph-name="guilsinglleft" unicode="&#x2039;" horiz-adv-x="374" 
d="M190 52l-133 178l12 77l186 170l71 -58l-141 -152l90 -160z" />
    <glyph glyph-name="guilsinglright" unicode="&#x203a;" horiz-adv-x="366" 
d="M188 477l131 -179l-12 -77l-184 -169l-71 57l139 153l-88 159z" />
    <glyph glyph-name="exclamdbl" unicode="&#x203c;" horiz-adv-x="583" 
d="M113 256l66 509h148l-98 -504zM363 256l66 509h148l-98 -504zM58 58q0 47 25.5 78.5t72.5 31.5q33 0 52.5 -19.5t19.5 -52.5q0 -46 -25.5 -77.5t-71.5 -31.5q-33 0 -53 19t-20 52zM308 58q0 47 25.5 78.5t72.5 31.5q33 0 52.5 -19.5t19.5 -52.5q0 -46 -25.5 -77.5
t-71.5 -31.5q-33 0 -53 19t-20 52z" />
    <glyph glyph-name="overline" unicode="&#x203e;" horiz-adv-x="540" 
d="M525 711l-16 -95h-456l16 95h456z" />
    <glyph glyph-name="fraction" unicode="&#x2044;" horiz-adv-x="542" 
d="M672 705l-652 -779q-79 62 -85 67l650 779q58 -44 87 -67z" />
    <glyph glyph-name="foursuperior" unicode="&#x2074;" horiz-adv-x="453" 
d="M383 450h58l-16 -93h-57l-12 -77h-124l12 77h-194l2 84l233 269l137 -15zM260 450l20 127l-112 -127h92z" />
    <glyph glyph-name="nsuperior" unicode="&#x207f;" horiz-adv-x="514" 
d="M250 711l-25 -119q3 5 7.5 13.5t20.5 30.5t33.5 38.5t44.5 30t55 13.5q84 0 84 -90q0 -20 -3 -43l-33 -184l54 -11l-10 -63l-164 -7l41 245q3 13 3 26q0 36 -28 36q-29 0 -58 -38.5t-45 -78.5t-20 -64l-21 -126h-107l52 311l-57 15l10 59z" />
    <glyph glyph-name="franc" unicode="&#x20a3;" horiz-adv-x="555" 
d="M120 245l55 343l-69 29l13 83l222 5h273l-31 -193h-80l-13 75h-167l-29 -177h202l-18 -110h-201l-9 -55h121l-13 -85h-122l-8 -51l78 -22l-14 -87h-302l14 87l77 22l8 51h-74l13 85h74z" />
    <glyph glyph-name="lira" unicode="&#x20a4;" horiz-adv-x="606" 
d="M163 473l5 37q12 97 72.5 152t166.5 55q53 0 103 -8.5t74 -16.5l24 -8l-29 -180h-83l-13 90q-54 6 -78 6q-82 0 -94 -88l-5 -39h141l-14 -90h-369l14 90h85zM39 235h99q-7 -64 -20 -91.5t-46 -38.5l-52 -18l-13 -87h495l33 203h-91l-35 -86h-181q4 2 13.5 11t23 35
t15.5 58l1 14h128l14 90h-369z" />
    <glyph glyph-name="peseta" unicode="&#x20a7;" horiz-adv-x="700" 
d="M686 435h-70q-29 -95 -111.5 -142.5t-193.5 -47.5h-53l-21 -134l72 -24l-14 -87h-298l14 87l78 24l51 324h-74l13 85h74l11 68l-69 29l13 83l223 5h94q89 0 147 -42.5t58 -128.5q0 -3 -0.5 -7.5t-0.5 -6.5h70zM301 520h174q-10 67 -86 67h-77zM276 362h53q101 0 133 73
h-175z" />
    <glyph glyph-name="euro" unicode="&#x20ac;" horiz-adv-x="657" 
d="M536 499l-11 82q-39 11 -84 11q-104 0 -144 -128h195l-14 -90h-416l14 90h67q42 121 123.5 187t195.5 66q44 0 91.5 -11t72.5 -22l26 -11l-33 -174h-83zM468 311l-14 -90h-190q12 -105 105 -105q36 0 77.5 15t65.5 30l24 15l44 -78q-5 -4 -13.5 -11.5t-35.5 -26.5
t-54.5 -33.5t-68 -26.5t-78.5 -12q-105 0 -162 63t-62 170h-69l15 90h416z" />
    <glyph glyph-name="careof" unicode="&#x2105;" horiz-adv-x="1063" 
d="M838 428q79 0 122.5 -41t43.5 -113q0 -121 -66 -200t-175 -79q-82 0 -127 39.5t-45 115.5q0 125 69 201.5t178 76.5zM817 331q-49 0 -75.5 -49.5t-26.5 -120.5q0 -69 69 -69q45 0 70.5 51.5t25.5 116.5q0 71 -63 71zM369 548l-7 58q-25 9 -56 9q-48 0 -76.5 -46.5
t-28.5 -119.5q0 -36 17.5 -55t46.5 -19q49 0 113 33l39 -62q-102 -69 -182 -69q-71 0 -113 42.5t-42 113.5q0 122 65.5 199.5t167.5 77.5q37 0 73.5 -9t54.5 -19l18 -9l-17 -125h-73zM836 705l-501 -705h-142l501 705h142z" />
    <glyph glyph-name="literSign" unicode="&#x2113;" horiz-adv-x="513" 
d="M265 236l10 65q250 174 250 350q0 64 -37.5 99t-105.5 35q-44 0 -79 -15.5t-57 -39t-38 -59.5t-24 -68t-15 -73l-31 -193l-130 -80l41 -87q31 15 68 35l-1 -10q-15 -95 27 -151.5t134 -56.5q19 0 46.5 3.5t45.5 7.5l18 4l8 105q-43 -5 -66 -5q-47 0 -61 31.5t-3 102.5z
M301 456l14 94q8 57 20 88.5t35 31.5q26 0 26 -35q0 -82 -95 -179z" />
    <glyph glyph-name="numero" unicode="&#x2116;" horiz-adv-x="1252" 
d="M1053 718q75 0 116 -38.5t41 -107.5q0 -113 -61.5 -185.5t-165.5 -72.5q-78 0 -120.5 37.5t-42.5 109.5q0 114 65 185.5t168 71.5zM1033 627q-45 0 -70 -46t-25 -110q0 -66 64 -66q42 0 66 46.5t24 107.5q0 68 -59 68zM-8 0l14 87l78 24l75 477l-69 29l13 83l232 5
l191 -466l55 349l-65 29l13 83l277 5l-14 -88l-77 -29l-93 -588h-155l-193 464l-57 -353l67 -24l-14 -87h-278zM1152 235l-16 -100h-364l16 100h364z" />
    <glyph glyph-name="trademark" unicode="&#x2122;" horiz-adv-x="956" 
d="M202 383l42 259h-57l-23 -73h-55l21 136h340l-21 -136h-56l-2 73h-56l-42 -259l48 -15l-9 -48h-190l9 48zM440 320l7 48l47 15l41 252l-41 14l8 53l145 3l54 -171l111 168l138 3l-8 -54l-46 -16l-42 -252l40 -15l-9 -48h-168l9 48l46 15l30 183l-94 -140l-62 -7l-47 141
l-29 -177l44 -15l-8 -48h-166z" />
    <glyph glyph-name="Ohm" unicode="&#x2126;" horiz-adv-x="778" 
d="M670 0h-265l17 100q58 40 90 87q66 98 66 252q0 68 -33 110.5t-97 42.5q-68 0 -116.5 -42t-70 -102t-21.5 -127q0 -133 65 -217l-25 -104h-265l20 120l122 -3q-25 29 -48 82.5t-23 117.5q0 109 43.5 199t131.5 145.5t205 55.5q124 0 198 -70.5t74 -191.5
q0 -59 -17.5 -116.5t-45.5 -100t-52 -70.5t-46 -47l114 4z" />
    <glyph glyph-name="estimated" unicode="&#x212e;" horiz-adv-x="665" 
d="M181 360v-197q65 -62 164 -62q64 0 125 23t99 62l26 -26q-42 -45 -112 -72.5t-138 -27.5q-128 0 -206.5 77.5t-78.5 207.5q0 124 85.5 209.5t209.5 85.5q120 0 200 -80t80 -200h-454zM515 395v140q-70 65 -160 65q-100 0 -174 -74v-131h334z" />
    <glyph glyph-name="oneeighth" unicode="&#x215b;" horiz-adv-x="1012" 
d="M972 330q0 -70 -70 -106q17 -13 26 -21t19 -26t10 -38q0 -70 -57.5 -111t-140.5 -41q-69 0 -111 29.5t-42 75.5q0 74 91 117q-15 11 -22.5 18.5t-15.5 23.5t-8 35q0 71 54.5 108.5t130.5 37.5q63 0 99.5 -28t36.5 -74zM815 342q-22 0 -36 -11.5t-14 -28.5q0 -6 3 -12
t6.5 -10t11 -8t11.5 -6t13 -5.5t11 -4.5q37 16 37 52q0 14 -11.5 24t-31.5 10zM774 77q28 0 45.5 13.5t17.5 32.5q0 34 -45 53q-1 0 -7.5 -2.5t-9.5 -4t-9.5 -4t-10 -5t-9 -6t-8.5 -7.5t-6 -9t-4.5 -11t-1.5 -12q0 -14 13.5 -26t34.5 -12zM50 280l14 89h92l33 209l-96 -55
l-35 83l169 99h106l-53 -336h74l-14 -89h-290zM813 705l-501 -705h-142l501 705h142z" />
    <glyph glyph-name="threeeighths" unicode="&#x215c;" horiz-adv-x="1012" 
d="M972 330q0 -70 -70 -106q17 -13 26 -21t19 -26t10 -38q0 -70 -57.5 -111t-140.5 -41q-69 0 -111 29.5t-42 75.5q0 74 91 117q-15 11 -22.5 18.5t-15.5 23.5t-8 35q0 71 54.5 108.5t130.5 37.5q63 0 99.5 -28t36.5 -74zM815 342q-22 0 -36 -11.5t-14 -28.5q0 -6 3 -12
t6.5 -10t11 -8t11.5 -6t13 -5.5t11 -4.5q37 16 37 52q0 14 -11.5 24t-31.5 10zM774 77q28 0 45.5 13.5t17.5 32.5q0 34 -45 53q-1 0 -7.5 -2.5t-9.5 -4t-9.5 -4t-10 -5t-9 -6t-8.5 -7.5t-6 -9t-4.5 -11t-1.5 -12q0 -14 13.5 -26t34.5 -12zM85 574l15 114q87 23 154 23
q146 0 146 -99q0 -86 -96 -112q32 -5 53 -27t21 -53q0 -76 -58.5 -114t-141.5 -38q-36 0 -73 10.5t-56 21.5l-19 10l38 80q53 -27 109 -27q35 0 55.5 14.5t20.5 38.5q0 39 -60 39h-57l11 75h54q76 0 76 55q0 33 -48 33l-55 -6l-10 -38h-79zM810 705l-501 -705h-142l501 705
h142z" />
    <glyph glyph-name="fiveeighths" unicode="&#x215d;" horiz-adv-x="1012" 
d="M972 330q0 -70 -70 -106q17 -13 26 -21t19 -26t10 -38q0 -70 -57.5 -111t-140.5 -41q-69 0 -111 29.5t-42 75.5q0 74 91 117q-15 11 -22.5 18.5t-15.5 23.5t-8 35q0 71 54.5 108.5t130.5 37.5q63 0 99.5 -28t36.5 -74zM815 342q-22 0 -36 -11.5t-14 -28.5q0 -6 3 -12
t6.5 -10t11 -8t11.5 -6t13 -5.5t11 -4.5q37 16 37 52q0 14 -11.5 24t-31.5 10zM774 77q28 0 45.5 13.5t17.5 32.5q0 34 -45 53q-1 0 -7.5 -2.5t-9.5 -4t-9.5 -4t-10 -5t-9 -6t-8.5 -7.5t-6 -9t-4.5 -11t-1.5 -12q0 -14 13.5 -26t34.5 -12zM30 305l45 82q52 -24 101 -24
q30 0 50 13.5t20 37.5q0 42 -76 42h-91l47 249h267l-17 -92h-163l-13 -73h27q64 -2 103 -31t39 -77q0 -70 -54.5 -117t-130.5 -47q-36 0 -74.5 9t-59.5 19zM809 705l-501 -705h-142l501 705h142z" />
    <glyph glyph-name="seveneighths" unicode="&#x215e;" horiz-adv-x="992" 
d="M952 330q0 -70 -70 -106q17 -13 26 -21t19 -26t10 -38q0 -70 -57.5 -111t-140.5 -41q-69 0 -111 29.5t-42 75.5q0 74 91 117q-15 11 -22.5 18.5t-15.5 23.5t-8 35q0 71 54.5 108.5t130.5 37.5q63 0 99.5 -28t36.5 -74zM795 342q-22 0 -36 -11.5t-14 -28.5q0 -6 3 -12
t6.5 -10t11 -8t11.5 -6t13 -5.5t11 -4.5q37 16 37 52q0 14 -11.5 24t-31.5 10zM754 77q28 0 45.5 13.5t17.5 32.5q0 34 -45 53q-1 0 -7.5 -2.5t-9.5 -4t-9.5 -4t-10 -5t-9 -6t-8.5 -7.5t-6 -9t-4.5 -11t-1.5 -12q0 -14 13.5 -26t34.5 -12zM420 621l-216 -342h-134l206 332
h-119l-20 -52h-82l23 146h356zM786 705l-501 -705h-142l501 705h142z" />
    <glyph glyph-name="arrowleft" unicode="&#x2190;" horiz-adv-x="677" 
d="M240 258l104 -150l-93 -68l-196 247l9 60l269 247l69 -75l-143 -141h438l-19 -120h-438z" />
    <glyph glyph-name="arrowup" unicode="&#x2191;" horiz-adv-x="635" 
d="M264 395l-169 -127l-55 83l285 234h56l214 -231l-88 -81l-123 122l-62 -395h-120z" />
    <glyph glyph-name="arrowright" unicode="&#x2192;" horiz-adv-x="677" 
d="M437 378l-99 141l93 75l191 -247l-9 -60l-274 -247l-73 68l152 150h-438l19 120h438z" />
    <glyph glyph-name="arrowdown" unicode="&#x2193;" horiz-adv-x="625" 
d="M371 177l169 127l55 -83l-285 -234h-56l-214 231l88 81l123 -122l62 395h120z" />
    <glyph glyph-name="arrowboth" unicode="&#x2194;" horiz-adv-x="787" 
d="M575 359l-84 120l79 63l162 -214l-8 -47l-233 -209l-62 57l130 128h-347l89 -128l-79 -57l-167 213l8 47l228 210l59 -63l-122 -120h347z" />
    <glyph glyph-name="arrowupdown" unicode="&#x2195;" horiz-adv-x="593" 
d="M320 133l145 110l46 -70l-245 -200h-46l-180 194l74 69l104 -103l55 348l-145 -110l-46 70l245 200h46l180 -194l-74 -69l-104 103z" />
    <glyph glyph-name="arrowupdownbase" unicode="&#x21a8;" horiz-adv-x="628" 
d="M365 133l146 110l46 -70l-245 -200h-47l-179 194l74 69l103 -103l55 348l-145 -110l-46 70l245 200h47l179 -194l-74 -69l-104 103zM517 -85l-16 -100h-471l16 100h471z" />
    <glyph glyph-name="partialdiff" unicode="&#x2202;" horiz-adv-x="608" 
d="M214 648l-4 108q79 29 155 29q105 0 166.5 -65.5t61.5 -199.5q0 -70 -13.5 -143t-42 -143.5t-69 -125.5t-99.5 -89t-128 -34q-94 0 -150 53.5t-56 143.5q0 127 72.5 206t195.5 79q37 0 73 -13.5t54 -27.5l18 -13q10 54 10 91q0 78 -39 117t-99 39q-14 0 -29.5 -1
t-28.5 -3t-24 -4t-18 -3zM422 288q-1 2 -3.5 6t-12 14.5t-21 18t-31.5 14t-44 6.5q-58 0 -92.5 -39t-34.5 -101q0 -38 24 -62.5t58 -24.5q33 0 61.5 17.5t45 42t29 49t17.5 41.5z" />
    <glyph glyph-name="increment" unicode="&#x2206;" 
d="M464 723l146 -623l-16 -100h-624l17 100l349 623h128zM466 112l-104 448l-244 -448h348z" />
    <glyph glyph-name="product" unicode="&#x220f;" horiz-adv-x="720" 
d="M182 595l-71 22l11 78l212 10h439l-13 -88l-81 -22l-132 -830h-137l131 827h-221l-132 -827h-138z" />
    <glyph glyph-name="summation" unicode="&#x2211;" horiz-adv-x="611" 
d="M297 238l-204 365l17 102h516l-30 -193h-89l-12 80h-241l196 -345l-315 -369h257l31 87h96l-32 -200h-527l17 103z" />
    <glyph glyph-name="minus" unicode="&#x2212;" horiz-adv-x="593" 
d="M538 347l-18 -117h-465l18 117h465z" />
    <glyph glyph-name="divisionslash" unicode="&#x2215;" horiz-adv-x="568" 
d="M672 705l-652 -779q-79 62 -85 67l650 779q58 -44 87 -67z" />
    <glyph glyph-name="bulletoperator" unicode="&#x2219;" horiz-adv-x="412" 
d="M100 315q0 40 28 68t68 28t68 -28t28 -68t-28 -68t-68 -28t-68 28t-28 68z" />
    <glyph glyph-name="radical" unicode="&#x221a;" horiz-adv-x="660" 
d="M49 525l178 5l54 -382l271 622l210 5l-13 -84l-106 -18l-314 -673h-158l-79 428l-57 16z" />
    <glyph glyph-name="infinity" unicode="&#x221e;" horiz-adv-x="905" 
d="M627 108q-98 0 -188 94q-120 -94 -218 -94q-83 0 -127 40t-44 108q0 95 67.5 157.5t164.5 62.5q93 0 188 -93q119 93 219 93q84 0 127.5 -38.5t43.5 -109.5q0 -90 -68.5 -155t-164.5 -65zM238 232q46 0 121 61q-60 63 -93 63q-36 0 -55 -24t-19 -61q0 -39 46 -39z
M672 356q-47 0 -121 -63q55 -64 93 -64q34 0 54 23.5t20 58.5q0 45 -46 45z" />
    <glyph glyph-name="orthogonal" unicode="&#x221f;" horiz-adv-x="598" 
d="M553 130l-20 -130h-508l85 540h150l-65 -410h358z" />
    <glyph glyph-name="intersection" unicode="&#x2229;" horiz-adv-x="722" 
d="M426 0l65 411q17 104 1 142.5t-77 38.5q-63 0 -91.5 -39.5t-45.5 -146.5l-64 -406h-149l62 402q27 174 95.5 244.5t212.5 70.5q140 0 186.5 -68.5t20.5 -232.5l-66 -416h-150z" />
    <glyph glyph-name="integral" unicode="&#x222b;" horiz-adv-x="393" 
d="M-97 -290l25 108q48 -5 73 -5q85 0 94 102q4 40 55 681q9 121 59 182.5t153 61.5q23 0 50 -4.5t42 -9.5l16 -4l-27 -109q-33 7 -63 7q-39 0 -60 -25.5t-25 -79.5q-5 -61 -24 -307.5t-27 -349.5q-18 -265 -225 -265q-28 0 -57 4.5t-44 8.5z" />
    <glyph glyph-name="approxequal" unicode="&#x2248;" horiz-adv-x="622" 
d="M130 287l-54 44q3 5 8 13t22 28t35.5 35.5t47.5 28.5t59 13q44 0 103 -34t93 -34q24 0 49 13.5t38 27.5l13 14l56 -44q-3 -5 -8 -13t-22 -29t-35.5 -37t-46 -29t-55.5 -13q-43 0 -108 34t-100 34q-23 0 -47 -13t-36 -26zM99 91l-54 44q3 5 8 13t22 28.5t35.5 36
t47.5 28.5t59 13q45 0 103.5 -34t92.5 -34q24 0 49 13.5t38 26.5l13 14l56 -44q-3 -5 -8 -13t-22 -28.5t-35 -36.5t-46 -29t-56 -13q-42 0 -107.5 34t-100.5 34q-23 0 -47 -13t-36 -27z" />
    <glyph glyph-name="notequal" unicode="&#x2260;" horiz-adv-x="638" 
d="M359 442l68 110h130l-68 -110h112l-18 -115h-165l-62 -98h211l-18 -115h-264l-70 -114h-130l70 114h-105l18 115h158l62 98h-204l18 115h257z" />
    <glyph glyph-name="equivalence" unicode="&#x2261;" horiz-adv-x="677" 
d="M600 437l-18 -115h-485l18 115h485zM570 247l-18 -115h-485l18 115h485zM540 57l-18 -115h-485l18 115h485z" />
    <glyph glyph-name="lessequal" unicode="&#x2264;" horiz-adv-x="614" 
d="M518 135l-450 170l19 120l504 165l-19 -123l-353 -103l319 -107zM512 94l-19 -119h-478l18 119h479z" />
    <glyph glyph-name="greaterequal" unicode="&#x2265;" horiz-adv-x="619" 
d="M94 467l19 123l450 -165l-19 -120l-504 -170l20 122l353 107zM15 -25l19 119h477l-19 -119h-477z" />
    <glyph glyph-name="house" unicode="&#x2302;" horiz-adv-x="627" 
d="M552 316v-316h-477v316l206 226h65zM412 121v146q-18 19 -48 53.5t-51 56.5l-98 -109v-147h197z" />
    <glyph glyph-name="logicalnotReversed" unicode="&#x2310;" horiz-adv-x="668" 
d="M202 260l-29 -180h-123l47 295h511l-17 -115h-389z" />
    <glyph glyph-name="integraltp" unicode="&#x2320;" horiz-adv-x="374" 
d="M484 809l-34 -112q-54 13 -77 13q-60 0 -72 -88l-139 -922h-142l137 911q17 108 72.5 164t146.5 56q13 0 40 -5.5t48 -11.5z" />
    <glyph glyph-name="integralbt" unicode="&#x2321;" horiz-adv-x="366" 
d="M346 830l-135 -890q-16 -107 -71.5 -163.5t-144.5 -56.5q-15 0 -41 5t-45 11l-19 5l30 109q63 -9 79 -9q55 0 68 87l136 902h143z" />
    <glyph glyph-name="lozenge" unicode="&#x25ca;" horiz-adv-x="508" 
d="M275 775h126l127 -410l-255 -410h-125l-128 411zM232 101l158 263l-75 266l-159 -262z" />
    <glyph glyph-name="cyrbreve" unicode="&#xf6d4;" horiz-adv-x="381" 
d="M71 755l111 28q8 -85 96 -85q82 0 136 85l48 -33q-30 -56 -91.5 -98t-131.5 -42q-73 0 -116 38.5t-52 106.5z" />
    <glyph glyph-name="grave.Cup" horiz-adv-x="293" 
d="M139 957l242 -131l-38 -80l-251 103z" />
    <glyph glyph-name="tilde.Cup" horiz-adv-x="600" 
d="M280 780l-38 41q2 4 7 11.5t19.5 26t30 32.5t39 25.5t45.5 11.5q35 0 83.5 -22.5t76.5 -22.5q17 0 35 10.5t28 20.5l10 11l45 -39q-2 -4 -6.5 -11.5t-19 -26.5t-30 -33t-38 -26t-44.5 -12q-35 0 -86 22t-79 22q-18 0 -37.5 -10.5t-30.5 -20.5z" />
    <glyph glyph-name="acute.x" horiz-adv-x="301" 
d="M365 741l-52 104l-249 -172l46 -73z" />
    <glyph glyph-name="caron.x" horiz-adv-x="161" 
d="M111 510l-69 28q56 114 70 237l129 5q-9 -56 -47.5 -132.5t-82.5 -137.5z" />
    <glyph glyph-name="circumflex.x" horiz-adv-x="389" 
d="M66 687l172 137l87 7l130 -144l-56 -65l-127 100l-164 -100z" />
    <glyph glyph-name="grave.x" horiz-adv-x="309" 
d="M49 832l260 -169l-38 -75l-271 132z" />
    <glyph glyph-name="Igravecy" horiz-adv-x="804" 
d="M552 746l-251 103l47 108l242 -131zM827 705l-14 -88l-78 -30l-76 -476l71 -24l-14 -87h-299l14 87l78 24l49 306l-314 -270l-6 -36l70 -24l-14 -87h-297l14 87l77 24l76 477l-69 29l13 83l298 5l-14 -88l-78 -30l-49 -306l314 272l6 35l-71 29l13 83z" />
    <glyph glyph-name="NULL" horiz-adv-x="600" 
 />
    <glyph glyph-name="ShortIcy" horiz-adv-x="804" 
d="M651 938l48 -33q-30 -56 -91.5 -98t-131.5 -42q-73 0 -116 38.5t-52 106.5l111 28q8 -85 96 -85q82 0 136 85zM827 705l-14 -88l-78 -30l-76 -476l71 -24l-14 -87h-299l14 87l78 24l49 306l-314 -270l-6 -36l70 -24l-14 -87h-297l14 87l77 24l76 477l-69 29l13 83l298 5
l-14 -88l-78 -30l-49 -306l314 272l6 35l-71 29l13 83z" />
    <glyph glyph-name="foundryicon" horiz-adv-x="757" 
d="M634 0h-491q-92 0 -92 92v491q0 93 92 93h491q93 0 93 -93v-491q0 -92 -93 -92zM317 452l-56 -33q-9 -3 -11 -3q-6 0 -6 9v136h-86v-400h86v209q0 14 27 14q50 0 50 -65v-158h86v207q0 37 -25.5 60.5t-64.5 23.5zM441 403h29q13 0 13 -11v-153q0 -36 25.5 -60.5
t64.5 -24.5l73 43v29q-18 -5 -31 -5q-46 0 -46 67v104q0 11 11 11h67v42h-67q-11 0 -11 12v32h-25l-103 -65v-21z" />
    <glyph glyph-name="asterisk.alt" horiz-adv-x="404" 
d="M251 593l-31 40v111h102l-35 -111zM231 582l-54 -6l-101 42l63 90l81 -75zM264 583l23 50l105 75l37 -87l-114 -46zM227 567l-24 -49l-105 -76l-37 88l116 46zM315 575l100 -46l-62 -88l-84 77l-7 47zM244 557l26 -39v-110h-102l35 110z" />
    <glyph glyph-name="acute.Cup" horiz-adv-x="294" 
d="M126 738l-38 80l245 130l53 -104z" />
    <glyph glyph-name="caron.Cup" horiz-adv-x="370" 
d="M467 885l-159 -127l-87 -8l-125 134l65 60l114 -93l151 93z" />
    <glyph glyph-name="circumflex.Cup" horiz-adv-x="403" 
d="M83 798l180 144l87 7l136 -152l-56 -65l-133 108l-172 -107z" />
    </font>
</defs>
</svg>
